<?xml version="1.0" encoding="UTF-8"?>
<svg xmlns="http://www.w3.org/2000/svg" width="1029.4466" height="466.62628" viewBox="0 0 1029.4466 466.62628">
  <g id="a" data-name="Layer 5">
    <g opacity=".25">
      <path d="M426.79377,149.37967l6.46143.8252,3.16211,5.08643-.5498,6.18652c.2749,1.19238.52637,2.22363.75586,3.09375.22803.87207.61865,3.69043,1.16895,8.45508l1.09961,3.29932v5.08691l3.16211,3.16211v1.92432l4.53662,35.74512h1.375l1.9248,2.47461h-4.39941c1.74023,5.04199,3.20703,10.22119,4.39941,15.53564l4.53662,1.64941,4.26221-3.57422,4.53662,1.9248h1.9248l.5498.5498.8252-.5498c.36523.36719,2.24463.73438,5.63672,1.09961l7.01123-5.08691,10.99854.6875.5498-2.06201,7.01172,2.06201,12.23584-3.16211,2.47461-2.47461c.91504-1.00732,2.10742-1.73975,3.57422-2.19971l5.49951-1.78711,2.47461,3.98682h4.53662l1.9248,5.63672c-1.74219,3.57471-3.43701,6.18652-5.08643,7.83643l-1.375-.82471-10.99854,11.54834-5.63672,3.84961h-13.47314l-7.56152,2.06201-6.59863-1.51221-13.19824,5.63672-.8252-.55029-8.11133,3.4375,1.9248,29.83301h.5498v1.375l-1.92432,2.06201,1.92432,1.6499.55029,6.46191,1.37451,1.37402-1.37451,2.6123,2.61182,3.5752,1.375,10.99805,1.9248,2.6123,1.9248-.6875.68701,1.78711-.2749,1.9248h-1.78711l.5498,16.08447c-1.6499,2.75-3.34668,5.08691-5.08643,7.01172l-4.94971.5498-1.51221,3.9873-3.57422-.5498.5498,3.57422-2.19971,2.75c-.64258.82422-3.11719,2.56445-7.42383,5.22363l-4.81201-3.98633c-.5498-.36816-1.19238-1.375-1.9248-3.02539l-1.6499-3.98633v-7.69922l-2.61182-12.09863-1.1001-1.9248,1.1001-7.83545-1.1001-6.73633,2.6123-5.3623-3.16211-11.27246c.82471-1.74072,1.375-4.07764,1.6499-7.01221l-1.1001-2.06201,1.1001-5.91162c0-1.6499-.5498-5.03955-1.6499-10.17383l2.47461-5.49902-.82471-9.07373-4.12451-2.47461-2.88721,1.09961v-1.09961l-6.18652.5498.5498,3.84961-3.02441-.8252-3.43701.8252-.8252.5498c-4.21631,2.10938-8.34082,3.16211-12.37305,3.16211l-3.98682-.55029-8.11133,2.4751-8.52393,1.51221-.5498,3.57422-5.91162-2.47461v2.47461h-1.1001l-3.98682,3.9873h-5.63672l2.06201,5.63672-5.36182-1.1001-8.24854,4.94922-1.9248,2.0625-4.53662-1.375-5.08691,3.84961h-4.94922v3.71191l-5.08691.82471-2.0625,4.5376-2.47461,2.47363-3.43701,8.79883.9624.8252c-.2749.8252-1.78711,2.52148-4.53662,5.08691l-.5498,7.56152-3.9873,3.02441.55029,1.51221h-1.9248v3.02441l-4.53711,3.43652v1.09961c-.64209.64258-1.69678,2.33789-3.16211,5.08691h-1.09961l-3.2998,9.62402-1.2373-1.78711v1.09961l-3.29932,2.6123-.8252,2.6123c-.18457.91504-1.14697,2.19922-2.88672,3.84961l-5.08691-1.9248c-.5498-1.55957-1.00732-2.42969-1.375-2.6123l.55029-1.9248v-1.09961l.82471-2.6123c-1.00732-1.74023-1.6499-5.22461-1.9248-10.44824l1.9248.96191-1.375-1.5127v-1.9248l.55029-.5498-1.1001-3.43652,1.1001-2.47461-1.375-3.16162.82471-1.09961c-.18262-2.01562-.36523-4.8125-.5498-8.38672l2.6123-2.0625,7.56152,5.91211h4.53662l15.94775-19.93457-2.47461-1.64941.5498-2.8877-5.08643,2.06201-.8252,1.37451-1.09961-.54883-3.16211,1.64941c-.91748.5498-2.88721,1.00977-5.91162,1.375l-4.53711-5.91211c2.19971-5.58936,4.16943-8.75146,5.91162-9.48633,0-1.00732,1.51221-3.06934,4.53711-6.18652l3.16211-.9624-.55029-.5498,5.08691-7.01172h.5498l12.09863-2.47461,1.37451,2.47461,2.47461-.5498.55029.5498h1.51221l1.09961-2.47461,3.9873.5498v-1.09961l3.02441-2.6123-1.9248-3.29932,2.47461-3.71191,6.46191-2.47461-.55029-1.5127.8252-2.06201c.18262-.64014,1.60254-2.10742,4.26172-4.39941,1.73975-6.96436,3.61963-10.99854,5.63672-12.09814h-1.1001l6.46191-8.11133.5498.5498,9.62354-15.26025h-.5498l3.57471-5.36182h.82471l7.69873-14.02295h1.1001l6.46143-10.72363,1.9248-.5498,3.16211-5.91162c.36523-.36523,1.18994-2.42773,2.47461-6.18652l4.53711-3.4375v-.5498l2.47461-6.46143,1.51221-.5498.5498-5.08691h1.9248l.5498-1.9248h.5498l1.5127-3.16211,10.86084-6.46143,5.63672-3.84961ZM405.20929,190.4866l-4.53711,1.09961v1.9248l-4.53662,4.53711h-1.375l-6.18652,8.93604h-.5498l-4.53711,8.79883v1.37451l-1.64941,2.4751c-.55029,1.00928-1.33008,1.78711-2.3374,2.33691l-3.84961,2.19971-1.78711,4.53711c-.5498,1.28418-1.00977,4.4917-1.375,9.62354l-2.47461-.5498-.5498,3.57422-5.08691,3.98682.55029.55029v3.16162l-4.53711,1.9248-3.57422,10.03613c-.64258,1.9248-1.33008,3.43701-2.0625,4.53711l-3.29932,4.53662.5498.8252v.5498l1.37451.6875h8.11182l3.43701,1.92432,10.72314-6.46143,8.93652-.5498.5498,1.9248.82471-3.43701h5.08691l9.07373-2.47461,2.47461.82471,5.63672-1.9248v-.5498l8.52393-2.88721v-.5498l10.58594-2.47461v-3.16211l-3.57471-3.2998v-10.72314l3.0249-7.01172-3.0249-2.06201-3.98682,2.06201-5.08691-7.14893,7.14941-.5498v-1.9248l-8.52393-1.9248.82471-2.06201-2.47461-3.0249,1.6499-2.61182-4.53711-7.01172.8252-1.37451,1.2373-.55029-2.0625-2.06201-1.64941-9.48633-1.9248-1.09961Z" fill="#231f20"/>
    </g>
  </g>
  <g id="b" data-name="Layer 1">
    <g>
      <path d="M405.81562,147.64314c.40287.3193.22272.95489-.27687,1.02246l-5.39601.71715c-.56273.07-1.14775-.05258-1.63505-.34259l-4.7917-2.91438c-.37672-.21986-.28729-.79617.12543-.8976l5.72445-1.4626c.64473-.16243,1.31975-.021,1.84505.38659l4.40469,3.49097Z" fill="#00aeef"/>
      <path d="M414.87131,91.19525c.40915.2893.27086.94931-.23187,1.03189l-5.35316.96101c-.55402.10314-1.14532.01057-1.65076-.26758l-4.91699-2.69009c-.39487-.20801-.33858-.77559.08043-.90703l5.65474-1.72775c.63602-.19558,1.32918-.066,1.86077.31159l4.55684,3.28796Z" fill="#00aeef"/>
      <path d="M413.18351,104.18305c.40601.3043.24086.94303-.25872,1.0106l-5.36987.81658c-.58087.08186-1.15403-.02258-1.65633-.31573l-4.84056-2.83067c-.37672-.21986-.30544-.78431.11043-.90074l5.69831-1.56203c.64788-.17743,1.32604-.051,1.85134.35659l4.46541,3.4254Z" fill="#00aeef"/>
      <path d="M411.63744,115.14922c.20301.15215.26401.38415.22.59416s-.19301.39801-.43687.44087l-5.33887,1.0423c-.55402.10314-1.14846.02557-1.6539-.25258l-4.96585-2.60637c-.21243-.10715-.28844-.3423-.24758-.5373.03457-.165.14415-.31429.32801-.36972l5.62545-1.81218c.62102-.19872,1.32047-.09914,1.86705.28158l4.60255,3.21925Z" fill="#00aeef"/>
      <path d="M410.18751,126.77755c.40287.3193.22272.95489-.27687,1.02246l-5.39287.70215c-.56587.085-1.15089-.03758-1.63505-.34259l-4.79485-2.89938c-.37358-.23486-.28729-.79617.12858-.9126l5.72445-1.4626c.64473-.16243,1.31975-.021,1.84191.40159l4.40469,3.49097Z" fill="#00aeef"/>
      <path d="M407.93399,137.53286c.40287.3193.22272.95489-.27687,1.02246l-5.39601.71715c-.56587.085-1.15089-.03758-1.63505-.34259l-4.7917-2.91438c-.37672-.21986-.29043-.78117.12543-.8976l5.72445-1.4626c.64473-.16243,1.31975-.021,1.84505.38659l4.40469,3.49097Z" fill="#00aeef"/>
      <path d="M391.41558,168.91301l2.26776,5.76789-9.37527-1.96437-.94918,4.53013c-4.0834-1.81078-5.03371-3.40354-4.55597-5.6836.48088-2.29507,8.30753-3.55208,12.61266-2.65004Z" fill="#414142"/>
      <path d="M401.91654,77.01852c-.33272-.42987-.47601-.86703-.48115-1.2909l.00629-.03.44259-2.71022c.08529-.78074,5.13687-2.61921,9.91443-2.10361,4.75942.52746,9.17625,4.33415,9.09096,5.11489l-.27959,2.30592.06.01257c-.09743.46501-.58245.91145-1.36747,1.29503-1.97163.96488-5.85389,1.48246-10.15901.58042-4.09512-.85804-6.32689-2.01465-7.22706-3.17411Z" fill="#bcb529"/>
      <path d="M389.70011,164.54488l1.71547,4.36813c-4.30512-.90204-12.13178.35498-12.61266,2.65004-.47773,2.28006.47258,3.87283,4.55597,5.6836l-.82032,3.91511c-6.48018-1.35777-9.77198-6.57293-9.65997-9.94745.13687-3.79211,7.22551-7.50563,13.53812-7.21646,1.13275.04943,2.24035.21887,3.28338.54702Z" fill="#bcb529"/>
      <polygon points="393.68334 174.68089 401.26765 194.01161 399.5426 193.65017 392.3274 192.13839 385.3222 190.67062 380.74707 189.71201 382.53857 181.16177 383.35889 177.24666 384.30807 172.71653 393.68334 174.68089" fill="#bcb529"/>
      <path d="M463.81602,422.81938c-.02686,1.6229-4.16913,4.27826-10.56303,4.00337-6.39704-.25988-9.93243-1.84622-9.90871-3.45413l.12316-4.92243c-.07414-.76717,5.07771,1.54934,10.04557,1.30621,4.98286-.23999,9.92386-2.14861,9.99801-1.38144l.305,4.44841Z" fill="#bcb529"/>
      <path d="M463.51102,418.37097c-.07414-.76717-5.01515,1.14145-9.99801,1.38144-4.96786.24314-10.11972-2.07337-10.04557-1.30621,0,0-2.59086-83.5197-7.54952-104.99362.18215-.19672.3643-.39344.53145-.5933,0,0,8.3274-5.06684,18.08455-12.32388,6.24841,23.09083,8.9771,117.83557,8.9771,117.83557Z" fill="#414142"/>
      <path d="M481.41048,273.75269c.15572-.59373.24515-1.17003.2163-1.63019-.34085-4.80043-4.03722-15.40874-4.62309-16.42406-.77245-1.32061-8.09176-18.40355-9.21178-20.83048-.89859-1.98906-11.14813-18.46456-14.98466-24.59246-.93602-1.51147-2.10791-2.8688-3.4588-4.04441l-19.47795-16.74925c-3.3788-2.93152-6.46831-6.2722-10.26528-4.89117-.30458.10843-.61859.26186-.93574.4303l-1.10475,1.16217-1.25933,1.30203c-1.06746,1.35789-3.93969,3.18322-3.62654,2.13705l.83703-3.77068c.40916-1.3549,1.02089-2.18192,2.23579-2.89822l2.94309-2.01405.29344-.20472c2.2665-1.32589,3.90697-.26185,6.49162.10745l.62445.08386c1.4139.2023,2.74608.7946,3.81968,1.7242l28.9712,24.87665c1.50018,1.28518,2.70621,2.85323,3.55881,4.61343l18.72844,38.56173c2.97378,6.13504,3.63721,13.13267,1.86672,19.71429l-2.01878,4.47827c.15672-.3743.28658-.76988.38016-1.14175Z" fill="#2e3192"/>
      <path d="M435.91792,313.45258c-10.54676,11.10029-46.33352,16.28578-46.33352,16.28578.7226-2.10349,3.26883-8.0528,9.59073-10.42371,0,0,18.99842-5.10153,35.06648-13.85488,3.69768-2.02819,7.24679-4.2441,10.37975-6.64117,0,0,3.76883-1.91933,8.92041-4.83297,9.48114-5.34184,23.66986-14.0192,27.86871-20.23294-.09358.37187-.22344.76745-.38016,1.14175l-.03386.08686c-.3323.83859-.74831,1.62833-1.12275,2.14492-6.0772,8.15336-16.32723,16.71644-25.33979,23.40918-9.75716,7.25704-18.08455,12.32388-18.08455,12.32388-.16715.19986-.3493.39658-.53145.5933Z" fill="#2e3192"/>
      <path d="M453.54176,293.98557c-5.15155,2.91373-8.9204,4.83302-8.9204,4.83302-3.13295,2.39708-6.68211,4.61301-10.37973,6.64118l.00315-.01502c-.01048-.17442-.07174-.70403-.18773-1.49561-.24874-1.72764-.74728-4.72897-1.36163-8.2244-1.5184-8.82095-3.75348-20.79856-4.61245-23.4997.91146-1.06172,1.29774-1.56016,1.29774-1.56016,1.28622-1.28073,2.48794-2.53223,3.63527-3.7481,0,0,.01816-.01187.02131-.02688,1.14689-.84017,5.80426-4.60894,11.14333-11.25715,2.03563,4.85803,5.23296,19.41745,7.13813,29.00844.51713,2.61384.95659,4.85119,1.23362,6.44379.23722,1.33375.37068,2.19159.36857,2.42607l.62082.47453Z" fill="#414142"/>
      <path d="M432.24276,221.9545l-23.79124-8.86832-3.83439-1.42977c-1.33604-.49916-2.28678-1.7162-2.42392-3.15424l-.08529-.86345c-.12429-1.20046.28344-2.39907,1.1359-3.25395l1.4049-1.77262,4.03813-5.07299c.17901-.18172.82831-.51544,1.49819-.79788.61716-.10557,1.20432-.21743,1.74648-.33872l-5.31675,8.48495c-.75945,1.53204-.09701,3.37767,1.43503,4.13712,8.8131,4.27372,16.92318,7.19439,23.26893,9.11904,5.7433,1.73578,10.04214,2.66782,12.11849,3.07155.96317.18615,1.87677.53416,2.66822,1.09147,6.8569,4.86602,8.56979,11.4885,9.07508,14.08414.10872.60216.15986,1.25489-.09772,1.81162-3.3684,7.10805-7.2961,12.9245-10.90222,17.43033-5.33903,6.64818-9.99646,10.41699-11.14335,11.25715.04257-.05372.082-.09243.12143-.13115,13.28356-14.22238,17.10355-23.70993,17.19-29.8771.11474-7.94637-5.96157-10.4096-5.96157-10.4096l-12.14434-4.51759Z" fill="#2e3192"/>
      <path d="M341.43255,339.75538l-.00314.015c-.21529.20543-.40373.43215-.60402.64073,0,0-11.99595,11.14115-20.06378,22.66689-1.21218,1.07703-4.495,4.41354-4.66929,3.75067l-1.43888-5.68817c-.35658-1.43704-.16228-2.96223.60374-4.22669,8.64929-14.30082,22.45143-26.0657,34.96524-34.6712,3.01566-2.06148,5.94547-3.93738,8.71127-5.62843,3.2131-1.95748,6.18647-3.66766,8.81755-5.08941l.00314-.015c6.50077-3.52351,10.79218-5.39599,10.79218-5.39599,19.6936-12.75403,34.60793-29.45333,34.60793-29.45333,4.91915-4.12111,9.308-8.10278,13.1777-11.84874,6.65664-6.43474,11.81894-12.16475,15.61207-16.74101,5.75633-6.9209,8.40441-11.18902,8.40441-11.18902-.08645,6.16718-3.90644,15.65473-17.19,29.8771-.44801.34458-.49059.3983-.14272.158-1.14732,1.21589-2.34907,2.46735-3.63526,3.7481,0,0-.3863.49844-1.29776,1.56018-2.60037,2.99408-9.47144,10.52699-24.01533,24.18778,0,0-14.90918,13.83479-30.05007,21.4514,0,0-3.92126,1.82476-9.28742,4.86569-2.90952,1.62961-6.24019,3.62509-9.62429,5.87557l-.00314.015c-4.91444,3.27651-9.87887,7.09061-13.67014,11.13486Z" fill="#2e3192"/>
      <path d="M441.94426,248.07071c-3.79312,4.57626-8.95546,10.30622-15.61203,16.74097,0,0-.68716-3.74552-3.60625-12.90698-.75686-2.36645-1.65774-5.09196-2.72944-8.1978-2.65011-7.68008-6.36643-17.7445-11.54503-30.6207l23.79125,8.86829c1.7889,3.56922,3.45834,7.70855,4.86235,11.61994,1.04395,2.8651,1.95976,5.59373,2.66922,7.88766,1.19164,3.8042,1.90135,6.3957,1.90135,6.3957l.26859.21292Z" fill="#414142"/>
      <path d="M431.38718,217.89181l-.06843.25186c-6.34575-1.92464-14.45583-4.84532-23.26893-9.11904-1.53204-.75945-2.19449-2.60508-1.43503-4.13712l5.31675-8.48495c.53902-.10629,1.04803-.21886,1.4939-.32901,3.59139-.92302,8.93184-4.43911,8.68127-5.63471,4.68482,11.64535,9.28048,27.45296,9.28048,27.45296Z" fill="#414142"/>
      <path d="M393.81435,341.16313c-.52945,4.32055-4.19213,4.16382-4.19213,4.16382-6.01544-6.49049-.27311-14.83929-.27311-14.83929,0,0,.07472-.28187.23529-.74931l3.30894,6.62806c.73787,1.48562,1.12545,3.14838.92101,4.79671Z" fill="#1c1666"/>
      <path d="M422.10669,190.43885c.25058,1.19561-5.08987,4.71169-8.68127,5.63471-.44587.11014-.95489.22272-1.4939.32901l.02129-.02686c.16229-.32615-.82331-.03157-1.76777.36558-3.47724.60244-7.47493.92358-7.81594.08484.00314-.015-.01186-.01814-.00871-.03314s-.01186-.01814-.00871-.03314c-.19929-1.21618,5.88333-5.35971,9.45657-6.27087,3.57325-.91116,9.92158-1.24087,10.28973-.08326q.01186.01814.00871.03314Z" fill="#6d6f71"/>
      <path d="M401.26765,194.01161l-7.58431-19.33072-2.26776-5.76789-1.71547-4.36813,19.54644-8.16547,8.37047,21.78165,1.07774,2.77823-2.94309,2.01405c-1.21489.7163-1.82663,1.54333-2.23579,2.89822l-.83703,3.77068c-.31315,1.04617,2.55908-.77916,3.62654-2.13705l1.25933-1.30203,1.10475-1.16217c.31715-.16843.63116-.32186.93574-.4303l.09972.27144c.78145,1.65134,1.59075,3.54339,2.39305,5.54359-.36815-1.15761-6.71648-.8279-10.28973.08326-3.57325.91116-9.65586,5.05469-9.45657,6.27087l-1.08402-2.74823Z" fill="#414142"/>
      <path d="M410.18505,196.74129c-.66988.28244-1.31918.61616-1.49819.79788l-4.03813,5.07299-2.27962-5.78603c.34101.83874,4.3387.5176,7.81594-.08484Z" fill="#414142"/>
      <polygon points="407.75452 151.24382 409.82885 156.14126 409.24655 156.3794 389.70011 164.54488 387.70392 159.64816 387.27191 158.57113 388.07751 158.23883 407.37794 150.35065 407.75452 151.24382" fill="#bcb529"/>
      <path d="M392.3274,192.13839l7.2152,1.51178c-18.11301,79.87069-31.45835,116.95787-31.78822,117.85961l-.00314.015c-2.63108,1.42175-5.60446,3.13193-8.81755,5.08941,0,0,5.72919-10.52815,33.39371-124.4758Z" fill="#bdbec1"/>
      <path d="M414.6221,116.1504c-1.99424,13.62825-4.36148,27.61679-6.66243,35.01114l-.20515.08229-.37658-.89317-19.30043,7.88818c2.89411-11.12217,6.00139-28.7921,8.5285-44.81413l2.60836.40559c-.04086.19501.03514.43016.24758.5373l4.96585,2.60637c.50544.27815,1.09989.35573,1.6539.25258l5.33887-1.0423c.24386-.04286.39287-.23086.43687-.44087l2.76465.40702ZM409.91064,127.80001c.49959-.06757.67974-.70316.27687-1.02246l-4.40469-3.49097c-.52216-.42258-1.19718-.56402-1.84191-.40159l-5.72445,1.4626c-.41587.11643-.50216.67773-.12858.9126l4.79485,2.89938c.48416.30501,1.06917.42759,1.63505.34259l5.39287-.70215ZM407.65712,138.55531c.49959-.06757.67974-.70316.27687-1.02246l-4.40469-3.49097c-.5253-.40758-1.20032-.54902-1.84505-.38659l-5.72445,1.4626c-.41587.11643-.50216.67773-.12543.8976l4.7917,2.91438c.48416.30501,1.06917.42759,1.63505.34259l5.39601-.71715ZM405.53875,148.6656c.49959-.06757.67974-.70316.27687-1.02246l-4.40469-3.49097c-.5253-.40758-1.20032-.54902-1.84505-.38659l-5.72445,1.4626c-.41273.10143-.50216.67773-.12543.8976l4.7917,2.91438c.4873.29001,1.07232.41259,1.63505.34259l5.39601-.71715Z" fill="#939598"/>
      <path d="M414.6221,116.1504l-2.76465-.40702c.044-.21001-.017-.44201-.22-.59416l-4.60255-3.21925c-.54659-.38073-1.24603-.4803-1.86705-.28158l-5.62545,1.81218c-.18386.05543-.29344.20472-.32801.36972l-2.60836-.40559c3.01371-18.94225,5.20396-35.59859,5.31053-36.40618.90017,1.15946,3.13194,2.31607,7.22706,3.17411,4.30512.90204,8.18738.38446,10.15901-.58042l.121.24458c-.12072.053-2.09911,17.86551-4.80152,36.29361ZM412.92479,105.19365c.49959-.06757.66474-.7063.25872-1.0106l-4.46541-3.4254c-.5253-.40758-1.20346-.53402-1.85134-.35659l-5.69831,1.56203c-.41587.11643-.48716.68088-.11043.90074l4.84056,2.83067c.5023.29315,1.07546.39759,1.65633.31573l5.36987-.81658ZM414.63944,92.22714c.50273-.08257.64102-.74259.23187-1.03189l-4.55684-3.28796c-.53159-.37758-1.22475-.50716-1.86077-.31159l-5.65474,1.72775c-.41901.13143-.4753.69902-.08043.90703l4.91699,2.69009c.50544.27815,1.09675.37073,1.65076.26758l5.35316-.96101Z" fill="#939598"/>
      <path d="M385.3222,190.67062l7.0052,1.46777c-27.66452,113.94765-33.39371,124.4758-33.39371,124.4758-2.7658,1.69104-5.6956,3.56695-8.71127,5.62843l-.24343-.33287s25.58295-83.53563,35.34321-131.23913Z" fill="#595a5c"/>
      <path d="M355.10583,328.60553c3.3841-2.25048,6.71478-4.24596,9.62429-5.87557,0,0-31.5664,79.13449-50.1537,96.47352,0,0-5.38489,7.3902-24.25987,9.51107.93646-.50844,31.10551-17.22156,64.78613-100.09401l.00314-.015Z" fill="#bdbec1"/>
      <path d="M387.70392,159.64816l1.99619,4.89672c-1.04303-.32816-2.15063-.49759-3.28338-.54702.41402-1.22861.86403-2.77851,1.28719-4.34969Z" fill="#939598"/>
      <path d="M341.43255,339.75538c3.79126-4.04425,8.7557-7.85835,13.67014-11.13486-33.68061,82.87245-63.84967,99.58557-64.78613,100.09401,27.25558-32.40315,50.32296-87.04267,51.11285-88.94415l.00314-.015Z" fill="#595a5c"/>
    </g>
    <path d="M420.6701,78.31718c-.09743.46501-.58244.91141-1.36749,1.29504-.5586.27443-1.24901.50557-2.08632.69026.08824-.12239.14657-.25114.17487-.38618l-.05997-.01257.27956-2.30585c.08522-.78077-4.33154-4.58749-9.09103-5.11497-2.35718-.25897-4.78883.06141-6.6449.54951l.00944-.04505c.08531-.78075,5.13685-2.61919,9.91441-2.10358,4.75949.52749,9.17626,4.33412,9.09104,5.11488l-.27967,2.30592.06006.01258Z" fill="#a39e22"/>
    <path d="M409.14364,80.19263c-4.09518-.85805-6.32689-2.01465-7.22712-3.17412-.01013.12318-.0901.65445-.20928,1.52205,1.22331.66346,3.01805,1.29001,5.46313,1.80232,2.58012.5406,5.01762.5659,6.98592.28931-1.53357.07015-3.2426-.06869-5.01264-.43956ZM399.21437,113.83027c.03457-.16498.14414-.31435.32798-.36978l5.03757-1.62212M397.65358,113.58152,419.4236,79.85673l-.121-.2445c-.50726.25384-1.14957.47939-1.90248.63483-.32312,2.14017-2.19866,18.565-4.6932,35.62732l1.91522.27599c2.70234-18.42812,4.68072-36.24056,4.80146-36.29363Z" fill="#636466"/>
    <path d="M417.32943,79.76249c-.78503.38354-1.87011.70431-3.17314.86969,1.20849-.01297,2.30393-.15924,3.24384-.38513l.05028-.23997-.12098-.2446Z" fill="#636466"/>
    <path d="M414.62214,116.15036l-2.0802-.31056c-2.00299,13.59511-4.35454,27.50867-6.6523,34.88796l-.20515.08231-.37664-.89321-16.86862,6.8945c-.11872.4918-.23431.96868-.36168,1.42742l19.30037-7.88818.37664.89321.20515-.08231c2.3009-7.39431,4.66817-21.38285,6.66244-35.01113Z" fill="#68696b"/>
    <path d="M414.63948,92.22715l-5.3532.96094c-.55397.10318-1.1453.01063-1.65073-.2675l-4.91699-2.69009c-.39491-.20804-.33859-.77562.08043-.90707l.30142-.0934,4.76145,2.61047c.50543.27813,1.09674.37077,1.65071.26759l5.30503-.95545.05368.0426c.40923.28932.27093.94934-.23179,1.03191Z" fill="#007ba9"/>
    <path d="M412.97404,105.03616l-5.3532.96094c-.55397.10318-1.1453.01063-1.65073-.2675l-4.91699-2.69009c-.39491-.20804-.33859-.77562.08043-.90707l.30142-.0934,4.76145,2.61047c.50543.27813,1.09674.37077,1.65071.26759l5.30503-.95545.05368.0426c.40923.28932.27093.94934-.23179,1.03191Z" fill="#007ba9"/>
    <path d="M411.42202,116.14799l-5.3532.96094c-.55397.10318-1.1453.01063-1.65073-.2675l-4.91699-2.69009c-.39491-.20804-.33859-.77562.08043-.90707l.30142-.0934,4.76145,2.61047c.50543.27813,1.09674.37077,1.65071.26759l5.30503-.95545.05368.0426c.40923.28932.27093.94934-.23179,1.03191Z" fill="#007ba9"/>
    <path d="M407.79876,138.31398l-5.3532.96094c-.55397.10318-1.1453.01063-1.65073-.2675l-4.91699-2.69009c-.39491-.20804-.33859-.77562.08043-.90707l.30142-.0934,4.76145,2.61047c.50543.27813,1.09674.37077,1.65071.26759l5.30503-.95545.05368.0426c.40923.28932.27093.94934-.23179,1.03191Z" fill="#007ba9"/>
    <path d="M405.68274,148.41302l-5.3532.96094c-.55397.10318-1.1453.01063-1.65073-.2675l-4.91699-2.69009c-.39491-.20804-.33859-.77562.08043-.90707l.30142-.0934,4.76145,2.61047c.50543.27813,1.09674.37077,1.65071.26759l5.30503-.95545.05368.0426c.40923.28932.27093.94934-.23179,1.03191Z" fill="#007ba9"/>
    <path d="M409.98369,127.53065l-5.3532.96094c-.55397.10318-1.1453.01063-1.65073-.2675l-4.91699-2.69009c-.39491-.20804-.33859-.77562.08043-.90707l.30142-.0934,4.76145,2.61047c.50543.27813,1.09674.37077,1.65071.26759l5.30503-.95545.05368.0426c.40923.28932.27093.94934-.23179,1.03191Z" fill="#007ba9"/>
    <path d="M381.33641,176.21214c.57106.3389,1.23518.68163,2.02247,1.03448l-.82031,3.91509c-1.78505-.37402-3.32097-1.04028-4.61787-1.87572-2.27131-2.08882-3.39235-4.73515-3.32-6.72439.13681-3.79213,7.22549-7.50565,13.53811-7.21644.68203.03328,1.32458.10531,1.96959.24046l1.30723,3.32732c-4.30511-.90204-12.13181.35503-12.61268,2.65005-.3866,1.84511.15379,3.22671,2.53347,4.64915Z" fill="#bcb529"/>
    <path d="M381.33641,176.21214c.44335.50004,1.07604.99273,1.92818,1.48448l-.72603,3.46509c-1.78505-.37402-3.32097-1.04028-4.61787-1.87572-2.27131-2.08882-3.39235-4.73515-3.32-6.72439.13681-3.79213,7.22549-7.50565,13.53811-7.21644.68203.03328,1.32458.10531,1.96959.24046l1.30723,3.32732c-4.30511-.90204-12.13181.35503-12.61268,2.65005-.3866,1.84511.15379,3.22671,2.53347,4.64915Z" fill="#5e5c04"/>
    <path d="M400.6774,192.49424l-6.99407-17.8134-9.37527-1.96437-.14773.70507.20574.51286,6.47105,16.49805.59023,1.51734,9.84028,2.0618-.59023-1.51734Z" fill="#5e5c04"/>
    <polygon points="400.6774 192.49424 390.83712 190.43244 384.36607 173.93439 384.60809 172.77933 393.68333 174.68083 400.6774 192.49424" fill="#5e5c04"/>
    <path d="M392.3274,192.13839l7.2152,1.51178c-18.11301,79.87069-31.45835,116.95787-31.78822,117.85961l-.00314.015c-2.63108,1.42175-5.60446,3.13193-8.81755,5.08941,0,0,5.72919-10.52815,33.39371-124.4758Z" fill="#bdbec1"/>
    <path d="M399.54263,193.65015l-.09743.46501-3.0151-.63174c-19.69683,81.15175-28.27622,109.84209-31.58213,119.64094-1.84916,1.05315-3.83163,2.21934-5.91433,3.48983,0,0,5.72919-10.52813,33.39379-124.47581l7.2152,1.51178Z" fill="#dfe0e1"/>
    <path d="M364.73011,322.72996s-.72284,1.80592-2.00806,4.95027c-.97341.61025-1.95323,1.25059-2.95109,1.90274l-.00315.01502c-27.28781,67.15926-52.28158,90.86024-61.26557,97.71549-2.3888.56428-5.10757,1.05943-8.18563,1.40101.93639-.50838,31.1055-17.22152,64.78609-100.09397l.00315-.01502c3.38409-2.25051,6.71473-4.24595,9.62426-5.87555Z" fill="#e4e5e6"/>
    <path d="M463.51102,418.37096c-.05497-.55964-2.75918.31445-6.15831.91754-.46365-14.37811-3.15796-92.17267-8.66451-114.54431,1.85136-1.28761,3.82405-2.70635,5.84572-4.20878,6.24844,23.09079,8.9771,117.83555,8.9771,117.83555Z" fill="#333133"/>
    <path d="M453.40622,293.84137c-1.75847.99388-3.3537,1.88108-4.69489,2.60217l-.52523-.40757c.00209-.23439-.13135-1.09232-.36857-2.42607-.27703-1.59259-.71649-3.82994-1.23364-6.4437-1.695-8.5761-4.43889-21.11449-6.44882-27.14156,1.21743-1.32649,2.53579-2.8354,3.91-4.53609,2.03565,4.85794,5.23296,19.41745,7.13813,29.00844.51715,2.61375.95661,4.8511,1.23355,6.44368.23731,1.33377.37075,2.1917.36857,2.42607l.6209.47464Z" fill="#333133"/>
    <path d="M432.24276,221.9545l-23.79124-8.86832-3.83439-1.42977c-1.33604-.49916-2.28678-1.7162-2.42392-3.15424l-.08529-.86345c-.12429-1.20046.28344-2.39907,1.1359-3.25395l1.4049-1.77262,4.03813-5.07299c.17901-.18172.82831-.51544,1.49819-.79788.61716-.10557,1.20432-.21743,1.74648-.33872l-5.31675,8.48495c-.75945,1.53204-.09701,3.37767,1.43503,4.13712,8.8131,4.27372,16.92318,7.19439,23.26893,9.11904,5.7433,1.73578,10.04214,2.66782,12.11849,3.07155.96317.18615,1.87677.53416,2.66822,1.09147,6.8569,4.86602,8.56979,11.4885,9.07508,14.08414.10872.60216.15986,1.25489-.09772,1.81162-3.3684,7.10805-7.2961,12.9245-10.90222,17.43033-5.33903,6.64818-9.99646,10.41699-11.14335,11.25715.04257-.05372.082-.09243.12143-.13115,13.28356-14.22238,17.10355-23.70993,17.19-29.8771.11474-7.94637-5.96157-10.4096-5.96157-10.4096l-12.14434-4.51759Z" fill="#2e3192"/>
    <path d="M441.94426,248.07071c-3.79312,4.57626-8.95546,10.30622-15.61203,16.74097,0,0-.12307-.68344-.48835-2.15364,4.96015-4.98938,8.93571-9.46481,12.01771-13.18786l-.26859-.21292s-.70971-2.5915-1.90135-6.3957c-.70946-2.29392-1.62534-5.02266-2.66922-7.88766-1.40399-3.91148-3.07345-8.05072-4.86235-11.61994l-18.34522-6.83473c-.44072-1.11012-.88703-2.26843-1.36336-3.43303l23.79125,8.86829c1.7889,3.56922,3.45834,7.70855,4.86235,11.61994,1.04395,2.8651,1.95976,5.59373,2.66922,7.88766,1.19164,3.8042,1.90135,6.3957,1.90135,6.3957l.26859.21292Z" fill="#333133"/>
    <path d="M413.42546,196.07354c1.90415-.4936,4.28685-1.70114,6.07431-2.90819-.51489,1.41099-5.319,4.46012-8.63024,5.31655-.09942.0261-.18079.0404-.28022.06658l1.34221-2.14599c.53903-.10621,1.04804-.21881,1.49394-.32895Z" fill="#333133"/>
    <path d="M431.38713,217.89182l-.06835.25185c-1.10303-.34074-2.2511-.69091-3.44973-1.09861-1.59068-5.18763-4.8859-15.61789-8.22411-23.97459,1.52155-1.05919,2.58307-2.08947,2.46175-2.63166,4.6848,11.64534,9.28043,27.45301,9.28043,27.45301Z" fill="#333133"/>
    <path d="M419.64494,193.07047c-.05134.02059-.09079.05925-.14518.09488.05518-.11374.06217-.2219.05099-.31819.03248.06941.06485.13889.09418.22331Z" fill="#333133"/>
    <path d="M403.23283,195.39419c-.59143.58075-.92638,1.0586-.88118,1.36559l-.22311-.5791c.33601-.25847.72018-.52243,1.10429-.78649Z" fill="#333133"/>
    <polygon points="418.69474 180.93926 416.15401 182.67748 415.14978 180.0712 406.77938 158.28959 389.99684 165.29599 389.70015 164.54482 409.24651 156.3794 417.61701 178.16103 418.69474 180.93926" fill="#333133"/>
    <path d="M422.09795,190.40572c-.16942-.5366-1.6733-.75775-3.57324-.73311-1.71044.01751-3.75625.21516-5.46957.54518.19397-.17861.39117-.37212.53704-.54513.86073-.44605,2.09272-1.39359,2.71323-2.1875l.86187-.89989.39746-.40215,1.10474-1.1622c.31713-.16838.63113-.32184.9357-.43025l.09978.27141c.7814,1.65134,1.59074,3.54337,2.39298,5.54363Z" fill="#333133"/>
    <path d="M416.22751,182.84943l-1.84812,1.27262c.32868-.44791.78296-.82247,1.37228-1.16874l.40234-.27582.0735.17195Z" fill="#333133"/>
    <path d="M418.52472,189.67262c-1.71044.01751-3.75625.21516-5.46957.54518.19397-.17861.39117-.37212.53704-.54513.09699-.0893.17896-.18175.24601-.27733l1.25933-1.30203,1.10474-1.1622c.31713-.16838.63113-.32184.9357-.43025l.02933.08442.07045.18699c.42151.90261.86057,1.87151,1.28697,2.90035Z" fill="#333133"/>
    <polygon points="409.82887 156.1412 409.24651 156.3794 389.70015 164.54482 389.67082 164.4604 404.35926 158.33054 404.94159 158.09243 402.86719 153.19502 402.51438 152.33815 407.37791 150.3506 407.75456 151.24381 409.82887 156.1412" fill="#646207"/>
    <path d="M481.07176,268.71785c-1.13055-5.21651-3.59763-12.2005-4.06812-13.01942-.77242-1.32059-8.09168-18.40351-9.21176-20.83049-.89853-1.98909-11.14808-18.46453-14.98463-24.59248-.93602-1.51142-2.10789-2.86878-3.45881-4.0444l-19.47795-16.74919c-3.37877-2.93158-6.46836-6.27223-10.26532-4.89117-.30456.10841-.61857.26187-.9357.43025l-1.10474,1.1622-1.25933,1.30203c-1.06747,1.35791-3.93973,3.18321-3.62658,2.13701l.83706-3.77061c.00629-.03003.00944-.04505.03075-.07193l2.30483-1.58398.2935-.20477c2.26642-1.32585,3.90691-.26187,6.49157.10746l.62449.08392c1.41389.2023,2.74607.79453,3.81966,1.72415l28.97122,24.87667c1.50019,1.28518,2.70618,2.85326,3.55874,4.61337l18.72851,38.56184c2.24219,4.61937,3.16342,9.71365,2.73257,14.75956Z" fill="#2e3192"/>
    <path d="M481.07176,268.71785c-1.13055-5.21651-3.59763-12.2005-4.06812-13.01942-.77242-1.32059-8.09168-18.40351-9.21176-20.83049-.89853-1.98909-11.14808-18.46453-14.98463-24.59248-.93602-1.51142-2.10789-2.86878-3.45881-4.0444l-19.47795-16.74919c-3.37877-2.93158-6.46836-6.27223-10.26532-4.89117-.30456.10841-.61857.26187-.9357.43025l-1.10474,1.1622-1.25933,1.30203c-1.06747,1.35791-3.93973,3.18321-3.62658,2.13701l.83706-3.77061c.00629-.03003.00944-.04505.03075-.07193l2.30483-1.58398.2935-.20477c2.26642-1.32585,3.90691-.26187,6.49157.10746l.62449.08392c1.41389.2023,2.74607.79453,3.81966,1.72415l28.97122,24.87667c1.50019,1.28518,2.70618,2.85326,3.55874,4.61337l18.72851,38.56184c2.24219,4.61937,3.16342,9.71365,2.73257,14.75956Z" fill="#1c1666"/>
    <path d="M481.4105,273.75269c-.09359.37186-.2235.76747-.38019,1.14169l-.03387.08685c-.33227.83863-.74824,1.62837-1.12275,2.14495-2.16078,2.91398-4.86303,5.87105-7.85335,8.78344-5.62731,3.98837-12.26425,7.93742-17.48527,10.88352-5.15162,2.91362-8.92038,4.83293-8.92038,4.83293-3.13295,2.39708-6.68211,4.61301-10.37973,6.64118-16.06811,8.75342-35.06655,13.85493-35.06655,13.85493-4.16534,1.57005-6.69771,4.68792-8.13666,7.22078-1.54447.27134-2.44736.39536-2.44736.39536.72259-2.10349,3.26883-8.05273,9.5907-10.42371,0,0,18.99843-5.10151,35.06653-13.85484,3.69763-2.02817,7.24679-4.24409,10.37973-6.64118,0,0,3.76886-1.91929,8.9204-4.83302,9.48118-5.34182,23.66985-14.0192,27.86874-20.23288Z" fill="#201c6f"/>
    <path d="M440.37072,260.0646q-.01492-.00313-.01807.01189c-3.62174,3.90749-6.44697,6.18115-7.31537,6.81339.0425-.0537.08195-.09236.12142-.13111,13.28349-14.22237,17.10355-23.70992,17.18997-29.87712.11474-7.94632-5.9616-10.40957-5.9616-10.40957l-12.14431-4.5176-23.79125-8.86829-3.83441-1.42981c-1.33601-.49918-2.28679-1.71617-2.42387-3.15423l-.08527-.86342c-.12436-1.20048.28342-2.39908,1.13588-3.25402l1.40486-1.77264,4.03816-5.07294c.17905-.18173.82834-.51544,1.49816-.79792.2439-.04285.47279-.08884.70167-.13483-.1058.05611-.17835.1036-.22095.15728l-4.03808,5.07305-1.40494,1.77253c-.85246.85493-1.26015,2.05356-1.13588,3.25402l.08527.86342c.13718,1.43809,1.08796,2.65508,2.42397,3.15425l3.83441,1.42981,23.79116,8.86827,12.14441,4.51762s6.07625,2.46323,5.9616,10.40957c-.0692,5.26256-2.8719,12.95898-11.95692,23.9584Z" fill="#1c1666"/>
    <path d="M448.54401,244.89672c-1.00671,1.29236-2.17116,2.73957-3.49021,4.32662-3.79312,4.57626-8.95546,10.30622-15.61212,16.74095-3.86966,3.74602-8.25854,7.72769-13.17764,11.84878,0,0-14.91438,16.69925-34.60798,29.45333,0,0-4.29141,1.8725-10.79216,5.39601l-.00313.01492c-2.63107,1.42177-5.60442,3.13194-8.81759,5.08949-2.76575,1.69098-5.69556,3.56692-8.71125,5.62835-12.51377,8.60558-26.31599,20.37042-34.96525,34.67121-.76605,1.26451-.96032,2.7897-.60376,4.22673l.72507,2.89224c-1.16723,1.08641-2.28792,2.02602-2.39564,1.64332l-1.43887-5.68817c-.35665-1.43705-.16228-2.96222.60367-4.22675,8.64935-14.30077,22.45147-26.06563,34.96523-34.67112,3.01571-2.06152,5.9455-3.93737,8.71127-5.62844,3.21315-1.95745,6.18652-3.66772,8.81757-5.0894l.00315-.01502c6.50076-3.52351,10.79225-5.39599,10.79225-5.39599,19.6936-12.75408,34.60789-29.45335,34.60789-29.45335,4.91919-4.12107,9.30798-8.10276,13.17773-11.84876,6.65657-6.43475,11.81891-12.16472,15.61203-16.74097,5.75633-6.9209,8.40441-11.18905,8.40441-11.18905-.02624,2.21805-.54947,4.86441-1.80467,8.01506Z" fill="#1c1666"/>
    <path d="M463.8152,422.82534c-.02299,1.52973-3.73365,3.99367-9.5652,4.0245,1.82114-.62062,2.9056-1.53647,3.00593-2.31407l.18195-4.45599c.01905-.76328-5.10328.59057-10.09297.26545-1.34589-.07843-2.68095-.35816-3.9103-.69401l.03208-1.19905c-.07419-.76714,5.07773,1.54934,10.04552,1.30618,4.9829-.24,9.92385-2.14863,9.99802-1.3814l.30497,4.44839Z" fill="#a39e22"/>
    <path d="M367.75398,311.52s13.45624-36.99495,31.79293-117.86674l-14.22263-2.98002c-9.76226,47.6992-35.3413,131.23705-35.3413,131.23705" fill="none" stroke="#231f20" stroke-miterlimit="10" stroke-width=".75"/>
    <path d="M341.4607,339.71392s-23.41312,56.0307-51.15798,89.01685c18.88944-2.13176,24.26739-9.53037,24.26739-9.53037,18.59423-17.33061,50.15517-96.47748,50.15517-96.47748" fill="none" stroke="#231f20" stroke-miterlimit="10" stroke-width=".75"/>
    <path d="M433.154,266.7526c-2.9432,2.21394,11.95098-7.47129,21.92958-28.54525.26326-.55598.21157-1.208.09424-1.81186-.50489-2.59853-2.21859-9.22573-9.07755-14.08764-.79259-.56182-1.7069-.90625-2.66061-1.09138-4.38715-.85162-18.60671-4.03312-35.38565-12.19835-1.54017-.7495-2.19468-2.59576-1.44064-4.13372l5.34341-8.51483c.26921-.54908-2.84367.73243-3.27015,1.17069l-5.44702,6.84154c-.84275.86604-1.25986,2.06016-1.13963,3.26258l.08585.85855c.14318,1.43191,1.08842,2.65769,2.4369,3.16016l39.75798,14.81461s20.6974,8.33839-14.99896,44.18219c0,0-5.6441,7.28485-25.31746,25.75227,0,0-14.90523,13.84084-30.04299,21.45636,0,0-22.17051,10.3177-33.19784,22.53522,0,0-11.99164,11.14553-20.06254,22.67759-1.20946,1.07351-4.49978,4.40903-4.66546,3.75138l-1.43491-5.69551c-.36024-1.42989-.1661-2.95707.59734-4.21862,19.09194-31.54827,63.285-50.80382,63.285-50.80382,19.69346-12.75058,34.61933-29.4579,34.61933-29.4579,26.1061-21.90427,37.18434-39.76934,37.18434-39.76934" fill="none" stroke="#231f20" stroke-miterlimit="10" stroke-width=".75"/>
    <polyline points="401.35766 194.03047 401.26765 194.01161 399.5426 193.65017 392.3274 192.13839 385.3222 190.67062 380.74707 189.71201 382.53857 181.16177 383.35889 177.24666 384.30807 172.71653 393.68334 174.68089" fill="none" stroke="#231f20" stroke-miterlimit="10" stroke-width=".75"/>
    <path d="M382.53857,181.16177c-6.48018-1.35777-9.77198-6.57293-9.65997-9.94745.15516-4.47727,9.97588-8.82409,16.8215-6.66944l1.71547,4.36813,2.26776,5.76789,7.58431,19.33072,1.08402,2.74823c-.00314.015.01186.01814.00871.03314s.00871.03314.00871.03314l2.27962,5.78603" fill="none" stroke="#231f20" stroke-miterlimit="10" stroke-width=".75"/>
    <path d="M383.35889,177.24666c-4.0834-1.81078-5.03371-3.40354-4.55597-5.6836.48088-2.29507,8.30753-3.55208,12.61266-2.65004" fill="none" stroke="#231f20" stroke-miterlimit="10" stroke-width=".75"/>
    <polygon points="389.69722 164.54878 387.27288 158.57481 407.38142 150.3479 409.82221 156.13697 389.69722 164.54878" fill="none" stroke="#231f20" stroke-miterlimit="10" stroke-width=".75"/>
    <polyline points="409.24366 156.37879 417.61974 178.1564 418.69846 180.93645" fill="none" stroke="#231f20" stroke-miterlimit="10" stroke-width=".75"/>
    <path d="M401.92283,76.98852l-.00629.03c-.18801,1.49519-7.51522,56.94291-13.83904,81.22031" fill="none" stroke="#231f20" stroke-miterlimit="10" stroke-width=".75"/>
    <path d="M387.70392,159.64816c-.42316,1.57119-.8717,3.11405-1.28572,4.34266" fill="none" stroke="#231f20" stroke-miterlimit="10" stroke-width=".75"/>
    <path d="M407.96399,151.16593c5.39996-17.40853,11.24746-71.21621,11.45631-71.30822" fill="none" stroke="#231f20" stroke-miterlimit="10" stroke-width=".75"/>
    <path d="M401.41179,75.90488l.46846-2.92387c.08559-.77905,5.14611-2.61511,9.91261-2.09147,4.7665.52364,9.18192,4.32725,9.09633,5.10631l-.28446,2.30003" fill="none" stroke="#231f20" stroke-miterlimit="10" stroke-width=".75"/>
    <path d="M420.66681,78.30888c-.34395,1.64156-5.51062,3.14471-11.51955,1.88568-6.00893-1.25903-8.01789-3.15612-7.67394-4.79768" fill="none" stroke="#231f20" stroke-miterlimit="10" stroke-width=".75"/>
    <path d="M408.45331,213.09046c15.39929,38.28679,17.87608,51.72181,17.87608,51.72181" fill="none" stroke="#231f20" stroke-miterlimit="10" stroke-width=".75"/>
    <path d="M428.07644,272.22065c1.36322,4.27724,6.14609,31.66922,6.17649,33.21973" fill="none" stroke="#231f20" stroke-miterlimit="10" stroke-width=".75"/>
    <path d="M435.92134,313.4334c4.9456,21.45088,7.54559,105.00627,7.54559,105.00627" fill="none" stroke="#231f20" stroke-miterlimit="10" stroke-width=".75"/>
    <path d="M480.99479,274.97548l2.04917-4.56274c1.77578-6.57938,1.11452-13.57883-1.862-19.70925l-18.72538-38.56667c-.85656-1.76416-2.06632-3.3336-3.55432-4.61103l-28.97141-24.87183c-1.08371-.93036-2.4115-1.53043-3.82592-1.72905l-.62452-.0877c-2.59114-.36385-4.23146-1.42824-6.48711-.10217l-3.24878,2.2191c-1.21445.71396-1.81737,1.54962-2.23076,2.89637l-.82838,3.77093c-.32203,1.04912,2.54824-.78509,3.61893-2.1423l1.25877-1.30215,1.11273-1.15876c4.22689-2.34766,7.52925,1.30665,11.19407,4.46056l19.47362,16.75882c1.35566,1.16667,2.52232,2.52449,3.4693,4.04177,3.82527,6.12897,14.0774,22.60517,14.98123,24.58381,1.11325,2.43711,8.43829,19.51487,9.2055,20.83555.5854,1.0077,4.28503,11.62692,4.6202,16.42403.10101,1.44561-.93608,3.86876-1.74511,5.00728-12.7006,17.0203-43.42932,35.72316-43.42932,35.72316-9.80746,11.51618-46.85455,16.87884-46.85455,16.87884" fill="none" stroke="#231f20" stroke-miterlimit="10" stroke-width=".75"/>
    <path d="M389.59077,329.73206l3.29559,6.63269c.73862,1.48655,1.1273,3.15291.92663,4.80067-.52611,4.32003-4.18778,4.15694-4.18778,4.15694-6.02115-6.48124-.27019-14.82971-.27019-14.82971,0,0,2.08264-8.27898,9.82414-11.18063,0,0,28.75958-7.7192,45.44184-20.49175,0,0,31.84454-16.26112,37.24138-25.77659" fill="none" stroke="#231f20" stroke-miterlimit="10" stroke-width=".75"/>
    <path d="M422.11231,190.42494c.30119,1.17326-5.08257,4.72095-8.68083,5.64467-3.59826.92372-10.76417,1.89575-11.06536.72249s5.83763-5.37828,9.43589-6.302c3.59826-.92372,10.00911-1.23842,10.3103-.06516Z" fill="none" stroke="#231f20" stroke-miterlimit="10" stroke-width=".75"/>
    <path d="M454.52762,300.53807c6.24959,23.09223,8.97727,117.82617,8.97727,117.82617" fill="none" stroke="#231f20" stroke-miterlimit="10" stroke-width=".75"/>
    <path d="M444.1726,255.63483c3.0568,7.27059,8.78026,37.11918,8.81066,38.66969" fill="none" stroke="#231f20" stroke-miterlimit="10" stroke-width=".75"/>
    <path d="M432.14988,221.7418c5.30377,10.48849,9.53011,26.11918,9.53011,26.11918" fill="none" stroke="#231f20" stroke-miterlimit="10" stroke-width=".75"/>
    <path d="M419.70431,184.85676c5.35384,11.27677,11.68541,33.03948,11.68541,33.03948" fill="none" stroke="#231f20" stroke-miterlimit="10" stroke-width=".75"/>
    <path d="M443.34049,423.36117l.12645-4.9215c-.06915-.75659,5.07514,1.55368,10.05296,1.3131,4.97782-.24058,9.91585-2.14511,9.985-1.38853l.30523,4.45768" fill="none" stroke="#231f20" stroke-miterlimit="10" stroke-width=".75"/>
    <path d="M463.81013,422.82192c-.02155,1.61962-4.16186,4.27611-10.5576,4.00799-6.39574-.26812-9.93359-1.84912-9.91204-3.46874" fill="none" stroke="#231f20" stroke-miterlimit="10" stroke-width=".75"/>
    <path d="M393.84617,145.22421l5.71953-1.463c.64303-.16448,1.32598-.019,1.84614.39327l4.40329,3.48986c.39677.31446.22141.95124-.2804,1.01825l-5.38488.71909c-.57124.07628-1.15138-.04527-1.64395-.34445l-4.79385-2.91171c-.37416-.22726-.29001-.79283.13411-.90132Z" fill="none" stroke="#231f20" stroke-miterlimit="10" stroke-width=".75"/>
    <path d="M395.96377,135.11761l5.71953-1.463c.64303-.16448,1.32598-.019,1.84614.39327l4.40329,3.48986c.39677.31446.22141.95124-.2804,1.01825l-5.38488.71909c-.57124.07628-1.15138-.04527-1.64395-.34445l-4.79385-2.91171c-.37416-.22726-.29001-.79283.13411-.90132Z" fill="none" stroke="#231f20" stroke-miterlimit="10" stroke-width=".75"/>
    <path d="M398.21914,124.35344l5.71953-1.463c.64303-.16448,1.32598-.019,1.84614.39327l4.40329,3.48986c.39677.31446.22141.95124-.2804,1.01825l-5.38488.71909c-.57124.07628-1.15138-.04527-1.64395-.34445l-4.79385-2.91171c-.37416-.22726-.29001-.79283.13411-.90132Z" fill="none" stroke="#231f20" stroke-miterlimit="10" stroke-width=".75"/>
    <path d="M399.54509,113.45537l5.62023-1.80734c.63186-.20319,1.32238-.09942,1.8666.28052l4.60693,3.21626c.41511.28981.27872.93605-.2181,1.03339l-5.33132,1.0445c-.56556.1108-1.152.02467-1.66182-.24407l-4.96169-2.61547c-.38726-.20414-.33758-.77378.07917-.9078Z" fill="none" stroke="#231f20" stroke-miterlimit="10" stroke-width=".75"/>
    <path d="M401.17467,101.95856l5.69397-1.55954c.64015-.17533,1.32546-.04143,1.85253.36198l4.4617,3.41487c.40203.3077.23747.94736-.26314,1.02285l-5.37194.81008c-.56987.08594-1.15198-.02579-1.64954-.31659l-4.84242-2.8302c-.37795-.2209-.30338-.78781.11884-.90346Z" fill="none" stroke="#231f20" stroke-miterlimit="10" stroke-width=".75"/>
    <path d="M402.8064,89.32168l5.64724-1.72108c.6349-.1935,1.32375-.07916,1.86209.30907l4.55715,3.28641c.41063.29613.26436.94021-.2339,1.02993l-5.34669.96276c-.56719.10213-1.15225.00703-1.65789-.26948l-4.92106-2.69113c-.38409-.21004-.3257-.77885.09306-.90648Z" fill="none" stroke="#231f20" stroke-miterlimit="10" stroke-width=".75"/>
    <path d="M392.33196,192.14154c-27.6738,113.94763-33.39439,124.46666-33.39439,124.46666" fill="none" stroke="#231f20" stroke-miterlimit="10" stroke-width=".75"/>
    <path d="M355.10375,328.61245c-34.20941,84.19143-64.80103,100.11832-64.80103,100.11832" fill="none" stroke="#231f20" stroke-miterlimit="10" stroke-width=".75"/>
  </g>
  <g id="c" data-name="Layer 4">
    <g>
      <path d="M199.40091,192.70016h17.66v198.11c0,.05.02.1.04.14l45,72.3-63.25-75.29c-.02-.02-.03-.05-.03-.07v-99.52c0-.04.24-3.99.24-8.69,0-1.93-.04-3.99-.16-5.95v-.07l.48-82.19c.01,0,.01-.05.01-.14.01-.07.01-.16.01-.27v1.64Z" fill="#e2e3e4"/>
      <path d="M263.41091,464.41016v.11c0,.1-.12.14-.19.07l-5.86-9.42v-.49l6.05,9.73Z" fill="#3b3b3c"/>
      <path d="M263.44091,464.46016c.07.11.03.27-.08.34-.04.03-.09.04-.13.04-.09,0-.17-.04-.22-.12l-.91-1.47,1.12,1.34c.07.07.19.03.19-.07v-.11l.03.05Z" fill="#231f20"/>
      <polygon points="261.91091 262.71016 263.41091 464.41016 257.36091 454.68016 255.97091 268.54016 261.80091 262.71016 261.91091 262.71016" fill="#3b3b3c"/>
      <polygon points="261.63091 225.04016 261.78091 245.79016 261.63091 245.79016 255.90091 250.86016 255.13091 251.54016 255.06091 241.83016 256.01091 241.78016 261.63091 225.04016" fill="#3b3b3c"/>
      <polygon points="261.43091 198.64016 261.54091 212.74016 255.43091 218.16016 255.33091 206.02016 260.86091 198.64016 261.43091 198.64016" fill="#3b3b3c"/>
      <polygon points="260.86091 159.09016 260.86091 161.87016 260.78091 161.87016 260.76091 159.09016 260.86091 159.09016" fill="#231f20"/>
      <polygon points="260.78091 161.87016 198.78091 161.87016 198.83091 159.09016 260.76091 159.09016 260.78091 161.87016" fill="#231f20"/>
      <polygon points="256.12091 218.22016 256.21091 230.52016 252.36091 241.97016 242.09091 242.52016 223.97091 260.63016 224.29091 246.47016 240.24091 232.31016 256.12091 218.22016" fill="#414142"/>
      <polygon points="255.90091 250.86016 256.03091 267.63016 255.96091 267.63016 255.95091 265.41016 255.84091 265.41016 230.90091 290.36016 225.67091 288.37016 222.97091 292.31016 221.78091 294.05016 219.79091 293.29016 217.56091 296.55016 217.56091 284.82016 255.13091 251.54016 255.90091 250.86016" fill="#414142"/>
      <polygon points="261.78091 245.79016 261.91091 262.71016 261.80091 262.71016 255.97091 268.54016 255.96091 267.63016 256.03091 267.63016 255.90091 250.86016 261.63091 245.79016 261.78091 245.79016" fill="#3b3b3c"/>
      <path d="M255.90091,194.51016l.07,9.71h-.57l-5.81,7.76v-5.4c0-.32-.01-.64-.04-.95,0-.07-.01-.15-.02-.22-.02-.19-.04-.39-.07-.58-.01-.11-.03-.22-.05-.33-.02-.13-.04-.25-.07-.37-.07-.34-.15-.68-.25-1-.05-.18-.11-.36-.17-.53-.06-.18-.13-.36-.2-.53-.06-.16-.12-.31-.2-.46-.04-.13-.1-.25-.17-.37-.07-.16-.15-.32-.24-.47-.05-.1-.1-.19-.15-.28-.08-.14-.17-.28-.26-.42-.4-.64-.86-1.24-1.38-1.79h9.58v-3.77Z" fill="#414142"/>
      <polygon points="255.96091 267.63016 255.97091 268.54016 233.25091 291.26016 232.56091 290.99016 255.92091 267.63016 255.96091 267.63016" fill="#3b3b3c"/>
      <polygon points="230.90091 290.36016 255.84091 265.41016 255.95091 265.41016 255.96091 267.63016 255.92091 267.63016 232.56091 290.99016 231.51091 290.60016 230.90091 290.36016" fill="#3b3b3c"/>
      <polygon points="255.13091 251.54016 217.56091 284.82016 217.56091 267.04016 218.07091 266.53016 223.97091 260.63016 242.09091 242.52016 252.36091 241.97016 255.06091 241.83016 255.13091 251.54016" fill="#414142"/>
      <path d="M249.55091,205.63016c.03.31.04.63.04.95,0-.32-.01-.64-.04-.95Z" fill="#414142"/>
      <path d="M249.46091,204.83016c.03.19.05.39.07.58-.02-.2-.04-.39-.07-.58Z" fill="#414142"/>
      <path d="M249.46091,204.83016c-.01-.11-.03-.22-.05-.33.02.11.04.22.05.33Z" fill="#414142"/>
      <path d="M249.41091,204.50016c-.02-.13-.04-.25-.07-.37.03.12.05.24.07.37Z" fill="#414142"/>
      <path d="M249.29091,223.61016l-3.63,3.22,3.63-3.22Z" fill="#3b3b3c"/>
      <path d="M249.09091,203.13016c-.05-.18-.11-.36-.17-.53.06.17.12.35.17.53Z" fill="#414142"/>
      <path d="M248.75091,222.16016c.07-.17.13-.34.18-.5-.05.17-.11.34-.18.5Z" fill="#414142"/>
      <path d="M248.92091,202.60016c-.06-.18-.13-.36-.2-.53.07.17.14.35.2.53Z" fill="#414142"/>
      <path d="M248.72091,202.07016c-.06-.16-.12-.31-.2-.46.08.15.14.3.2.46Z" fill="#414142"/>
      <path d="M248.38091,223.01016c.05-.09.09-.18.13-.27-.04.09-.08.18-.13.27Z" fill="#414142"/>
      <path d="M248.35091,201.24016c-.07-.16-.15-.32-.24-.47.09.15.17.31.24.47Z" fill="#414142"/>
      <path d="M247.82091,224.05016c.2-.34.39-.69.56-1.04-.17.36-.36.7-.56,1.04Z" fill="#414142"/>
      <path d="M247.96091,200.49016c-.08-.14-.17-.28-.26-.42.09.14.18.28.26.42Z" fill="#414142"/>
      <path d="M247.50091,224.54016c.11-.16.22-.33.32-.49-.1.17-.21.33-.32.49Z" fill="#414142"/>
      <path d="M247.53091,60.81016l-6.11,5.34s-7.56-5.11-17.12,0l-5.33-5.34s14.28-17.44,28.56,0Z" fill="#595a5c"/>
      <path d="M246.80091,225.48016c.02-.03.04-.05.07-.08-.02.02-.04.05-.07.08Z" fill="#414142"/>
      <path d="M245.97091,197.92016c.11.1.22.21.32.33-.1-.11-.21-.22-.32-.33Z" fill="#414142"/>
      <path d="M246.11091,173.59016c2.23,0,4.03-1.8,4.03-4.03,0-2.22-1.8-4.02-4.03-4.02-2.22,0-4.02,1.8-4.02,4.02,0,2.23,1.8,4.03,4.02,4.03ZM229.70091,173.50016c2.22,0,4.03-1.81,4.03-4.03s-1.81-4.03-4.03-4.03-4.03,1.81-4.03,4.03,1.81,4.03,4.03,4.03ZM213.29091,173.50016c2.22,0,4.02-1.81,4.02-4.03s-1.8-4.03-4.02-4.03c-2.23,0-4.03,1.81-4.03,4.03s1.8,4.03,4.03,4.03ZM260.78091,161.87016l.08,15.39h-.01l-61.45.36h-.85l.23-15.75h62Z" fill="#414142"/>
      <path d="M248.51091,222.74016c.08-.19.17-.38.24-.58.07-.16.13-.33.18-.5.43-1.24.66-2.57.66-3.95v-4.02l5.74-7.67.1,12.14-6.14,5.45-3.63,3.22-.07-.08c.43-.39.84-.82,1.21-1.27.03-.03.05-.06.07-.08.22-.28.43-.56.63-.86.11-.16.22-.32.32-.49.2-.34.39-.68.56-1.04.05-.09.09-.18.13-.27Z" fill="#414142"/>
      <path d="M245.81091,197.76016c.05.04.1.09.15.15l-.15-.15Z" fill="#414142"/>
      <path d="M245.59091,226.75016c-.21.19-.43.38-.66.55.23-.17.45-.36.66-.55Z" fill="#414142"/>
      <path d="M244.04091,227.94016c.22-.14.43-.29.64-.44-.21.16-.42.31-.64.44Z" fill="#414142"/>
      <path d="M243.76091,196.18016c.15.08.3.18.44.28-.14-.1-.29-.19-.44-.28Z" fill="#3b3b3c"/>
      <path d="M243.31091,228.38016c.25-.13.49-.28.73-.44-.24.16-.48.31-.73.44Z" fill="#414142"/>
      <path d="M243.45091,196.00016c.11.05.21.11.31.18-.1-.06-.2-.12-.31-.18Z" fill="#3b3b3c"/>
      <path d="M243.19091,195.85016c-.17-.1-.34-.19-.52-.27.18.08.35.17.52.27Z" fill="#3b3b3c"/>
      <path d="M242.31091,228.88016c.25-.11.5-.23.75-.36-.24.13-.49.25-.75.36Z" fill="#414142"/>
      <path d="M241.39091,229.25016c.31-.11.62-.23.92-.37-.3.14-.6.26-.92.37Z" fill="#414142"/>
      <path d="M241.38091,195.05016c.1.03.2.07.3.11-.1-.04-.2-.08-.3-.11Z" fill="#3b3b3c"/>
      <path d="M241.69091,119.29016c.01.03.02.05.02.08v.01c-.32.44-9.22,12.65-17.74-.01.06-.15.1-.3.14-.46,0,0,.01-.01,0-.02.04-.11.06-.23.08-.35.03-.11.04-.23.06-.34.01-.08.02-.17.02-.25.02-.19.03-.38.03-.58v-51.22c9.56-5.11,17.12,0,17.12,0v51.22c0,.24.01.48.04.72.02.18.04.37.08.55v.02c.04.21.09.42.15.63Z" fill="#764d29"/>
      <path d="M240.42091,194.76016c.16.04.31.08.47.13-.15-.05-.31-.09-.47-.13Z" fill="#414142"/>
      <path d="M239.89091,229.66016c-.14.04-.28.06-.42.09l.42-.09Z" fill="#414142"/>
      <path d="M239.83091,194.62016c.02,0,.04.01.06.02-.02-.01-.04-.01-.06-.02Z" fill="#3b3b3c"/>
      <path d="M239.58091,194.57016c.05.01.09.02.13.03-.04-.01-.09-.02-.13-.03Z" fill="#414142"/>
      <path d="M238.78091,228.46016c3.83-2.07,6.42-6.11,6.42-10.75v-11.12c0-4.64-2.59-8.68-6.42-10.75v-1.33c5.89.89,10.39,5.96,10.39,12.08v11.12c0,6.12-4.5,11.19-10.39,12.08v-1.33Z" fill="#3b3b3c"/>
      <path d="M238.78091,195.84016c3.83,2.07,6.42,6.11,6.42,10.75v11.12c0,4.64-2.59,8.68-6.42,10.75v1.33c5.89-.89,10.39-5.96,10.39-12.08v-11.12c0-6.12-4.5-11.19-10.39-12.08v1.33ZM239.44091,229.75016c-.34.06-.67.1-1.01.13v-27.21c0-.14-.01-.28-.02-.41-.01-.11-.03-.22-.05-.32l.07-.01v-7.51c.18.02.36.03.54.06.21.02.41.05.61.09.04.01.09.02.13.03.04,0,.08.01.12.02.02.01.04.01.06.02.18.03.36.07.53.12.16.04.32.08.47.13.17.05.33.1.49.16.1.03.2.07.3.11.34.12.67.26.99.42.18.08.35.17.52.27.09.04.18.09.26.15.11.06.21.12.31.18.15.09.3.18.44.28.58.38,1.11.82,1.61,1.3l.15.15.01.01c.11.11.22.22.32.33.02.01.03.02.03.03.52.55.98,1.15,1.38,1.79.09.14.18.28.26.42.05.09.1.18.15.28.09.15.17.31.24.47.07.12.13.24.17.37.08.15.14.3.2.46.07.17.14.35.2.53.06.17.12.35.17.53.1.32.18.66.25,1,.03.12.05.24.07.37.02.11.04.22.05.33.03.19.05.38.07.58.01.07.02.15.02.22.03.31.04.63.04.95v11.13c0,1.38-.23,2.71-.66,3.95-.05.16-.11.33-.18.5-.07.2-.16.39-.24.58-.04.09-.08.18-.13.27-.17.35-.36.7-.56,1.04-.1.16-.21.33-.32.49-.2.3-.41.58-.63.86-.03.03-.05.05-.07.08-.37.45-.78.88-1.21,1.27-.21.19-.43.38-.66.55-.08.07-.16.14-.25.2-.21.15-.42.3-.64.44-.24.16-.48.31-.73.44-.08.05-.16.1-.25.14-.25.13-.5.25-.75.36-.3.14-.61.26-.92.37-.48.17-.98.31-1.5.41l-.42.09h-.03Z" fill="#414142"/>
      <path d="M239.44091,229.75016c-.33.06-.67.11-1.01.13.34-.03.67-.07,1.01-.13Z" fill="#414142"/>
      <path d="M238.43091,194.42016c.18.01.36.03.54.06-.18-.03-.36-.04-.54-.06Z" fill="#3b3b3c"/>
      <path d="M238.97091,194.48016c-.18-.03-.36-.05-.54-.06v-1.72h22.93v-3.77l.07,9.71h-.57l-5.53,7.38-5.74,7.67v-1.71l5.81-7.76h.57l-.07-9.71v3.77h-9.58c0-.01-.01-.02-.03-.03-.1-.12-.21-.23-.32-.33l-.01-.01c-.05-.06-.1-.11-.15-.15-.5-.48-1.03-.92-1.61-1.3-.14-.1-.29-.2-.44-.28-.1-.07-.2-.13-.31-.18-.08-.06-.17-.11-.26-.15-.17-.1-.34-.19-.52-.27-.32-.16-.65-.3-.99-.42-.1-.04-.2-.08-.3-.11-.16-.06-.32-.11-.49-.16-.16-.05-.31-.09-.47-.13-.17-.05-.35-.09-.53-.12-.02-.01-.04-.02-.06-.02-.04-.01-.08-.02-.12-.02-.04-.01-.08-.02-.13-.03-.2-.04-.4-.07-.61-.09Z" fill="#3b3b3c"/>
      <path d="M238.43091,229.88016v.03c-.17.01-.35.01-.53.01.04-.01.07-.01.1-.01.14,0,.29-.01.43-.03Z" fill="#3b3b3c"/>
      <path d="M238.43091,217.72016v10.42c-.35.01-.7.02-1.06.02h-5.15c-.63,0-1.24-.02-1.84-.06v-10.33c0,.03,0,.07.01.1,0,.11,0,.21.02.31.01.14.03.27.06.4.05.24.13.47.22.69.15.37.37.72.63,1.03.08.1.16.19.25.27.73.73,1.73,1.18,2.84,1.18,2.22,0,4.02-1.81,4.02-4.03Z" fill="#414142"/>
      <path d="M238.36091,201.94016c.02.1.04.21.05.32-.01-.11-.03-.21-.05-.32Z" fill="#414142"/>
      <path d="M238.28091,201.59016c.04.11.06.23.08.35-.02-.12-.05-.23-.08-.35Z" fill="#414142"/>
      <path d="M238.17091,201.26016c.05.11.08.22.11.33-.03-.11-.07-.22-.11-.33Z" fill="#414142"/>
      <path d="M238.08091,201.04016c-.04-.1-.08-.2-.14-.29.05.09.1.19.14.29Z" fill="#414142"/>
      <path d="M238.00091,229.91016c-.03,0-.06,0-.1.01-.17.01-.35.01-.53.01.21,0,.42-.01.63-.02Z" fill="#3b3b3c"/>
      <path d="M237.82091,194.38016c.06,0,.12.01.18.01-.06-.01-.12-.01-.18-.01Z" fill="#414142"/>
      <path d="M237.94091,200.75016c-.06-.12-.12-.23-.2-.33.07.11.14.22.2.33Z" fill="#414142"/>
      <path d="M237.75091,194.80016v1.76c-.35.02-.7.03-1.06.03h-5.15c-.39,0-.78-.01-1.16-.03v-1.77c.38.02.77.03,1.16.03h5.15c.36,0,.71-.01,1.06-.02Z" fill="#3b3b3c"/>
      <path d="M237.74091,200.42016c-.07-.11-.15-.21-.23-.31.09.1.16.2.23.31Z" fill="#414142"/>
      <path d="M237.25091,199.82016c.08.08.16.16.23.25-.07-.09-.15-.17-.23-.25Z" fill="#414142"/>
      <path d="M236.32091,199.13016c.34.18.66.41.93.69-.27-.27-.59-.51-.93-.69Z" fill="#414142"/>
      <path d="M236.12091,199.03016c.07.02.13.06.2.1-.06-.04-.13-.07-.2-.1Z" fill="#414142"/>
      <path d="M235.97091,198.96016c-.12-.05-.24-.1-.37-.14.13.04.25.08.37.14Z" fill="#414142"/>
      <path d="M235.60091,198.82016c-.08-.02-.16-.05-.25-.07.09.02.17.04.25.07Z" fill="#414142"/>
      <path d="M235.35091,198.75016c-.07-.02-.14-.03-.22-.04.08.01.15.02.22.04Z" fill="#414142"/>
      <path d="M234.79091,198.66016c.12.01.23.02.34.05-.11-.03-.23-.04-.34-.05Z" fill="#414142"/>
      <polygon points="233.25091 291.26016 232.55091 291.00016 232.56091 290.99016 233.25091 291.26016" fill="#3b3b3c"/>
      <polygon points="232.56091 290.99016 232.55091 291.00016 231.51091 290.60016 232.56091 290.99016" fill="#414142"/>
      <polygon points="230.90091 290.36016 231.51091 290.60016 232.55091 291.00016 233.25091 291.26016 255.97091 268.54016 257.36091 454.68016 217.56091 390.74016 217.56091 300.22016 221.78091 294.05016 222.97091 292.31016 227.30091 293.96016 230.90091 290.36016" fill="#414142"/>
      <path d="M237.37091,228.16016c.36,0,.71-.01,1.06-.02v1.74c-.14.02-.29.03-.43.03-.21.01-.42.02-.63.02h-5.23c-.29,0-.57-.01-.85-.04-.31-.02-.61-.05-.91-.1v-1.69c.6.04,1.21.06,1.84.06h5.15Z" fill="#3b3b3c"/>
      <path d="M232.22091,194.37016c-.32,0-.62.01-.93.04.31-.03.62-.04.93-.04Z" fill="#414142"/>
      <path d="M231.58091,205.53016c.27.27.57.49.91.67-.34-.17-.64-.4-.91-.67Z" fill="#414142"/>
      <path d="M231.29091,229.89016c.28.03.56.04.85.04-.29,0-.57-.01-.85-.04Z" fill="#3b3b3c"/>
      <path d="M231.32091,220.30016c.08.09.16.18.25.27-.09-.08-.17-.17-.25-.27Z" fill="#414142"/>
      <path d="M237.37091,194.37016c.15,0,.3,0,.45.01.06,0,.12,0,.18.01.14,0,.29.01.43.03v7.51l-.07.01c-.02-.12-.04-.24-.08-.35-.03-.11-.06-.22-.11-.33-.02-.08-.05-.15-.09-.22-.04-.1-.09-.2-.14-.29-.06-.11-.13-.22-.2-.33s-.14-.21-.23-.31c-.01-.02-.02-.03-.03-.04-.07-.09-.15-.17-.23-.25-.27-.28-.59-.51-.93-.69-.07-.04-.13-.08-.2-.1-.05-.03-.1-.05-.15-.07-.12-.06-.24-.1-.37-.14-.08-.03-.16-.05-.25-.07-.07-.02-.14-.03-.22-.04-.11-.03-.22-.04-.34-.05s-.25-.02-.38-.02c-2.23,0-4.03,1.8-4.03,4.03v-6.11c.38.02.77.03,1.16.03h5.15c.36,0,.71-.01,1.06-.03v-1.76c-.35.01-.7.02-1.06.02h-5.15c-.39,0-.78-.01-1.16-.03v-.28c.3-.05.6-.08.91-.1.31-.03.61-.04.93-.04h5.15Z" fill="#414142"/>
      <path d="M237.38091,217.72016c0-1.64-1.33-2.98-2.97-2.98-1.65,0-2.98,1.34-2.98,2.98s1.33,2.98,2.98,2.98c1.64,0,2.97-1.34,2.97-2.98ZM238.43091,217.72016c0,2.22-1.8,4.03-4.02,4.03-1.11,0-2.11-.45-2.84-1.18-.09-.09-.17-.18-.25-.27-.26-.31-.48-.66-.63-1.03-.09-.22-.16-.45-.22-.69-.03-.13-.05-.26-.06-.4-.01-.1-.02-.21-.02-.31-.01-.03-.01-.07-.01-.1v-.05c0-2.22,1.8-4.03,4.03-4.03,2.22,0,4.02,1.81,4.02,4.03Z" fill="#414142"/>
      <path d="M237.38091,202.67016c0-1.65-1.33-2.98-2.97-2.98-1.65,0-2.98,1.33-2.98,2.98,0,1.64,1.33,2.97,2.98,2.97,1.64,0,2.97-1.33,2.97-2.97ZM238.43091,202.67016c0,2.22-1.8,4.02-4.02,4.02-.7,0-1.35-.18-1.92-.49-.34-.18-.64-.4-.91-.67-.2-.2-.38-.41-.53-.65-.07-.09-.13-.19-.18-.3-.07-.11-.12-.23-.17-.35-.05-.1-.09-.21-.12-.33-.01-.02-.02-.04-.02-.06-.08-.22-.13-.46-.15-.71-.01-.1-.02-.21-.02-.31-.01-.03-.01-.07-.01-.1v-.05c0-2.23,1.8-4.03,4.03-4.03.13,0,.26.01.38.02.11.01.23.02.34.05.08.01.15.02.22.04.09.02.17.05.25.07.13.04.25.09.37.14.05.02.1.04.15.07.07.03.14.06.2.1.34.18.66.42.93.69.08.08.16.16.23.25.01.01.02.02.03.04.08.1.16.2.23.31.08.1.14.21.2.33.06.09.1.19.14.29.04.07.07.14.09.22.04.11.08.22.11.33.03.12.06.23.08.35.02.11.04.21.05.32.01.13.02.27.02.41Z" fill="#414142"/>
      <path d="M231.29091,229.89016c.28.03.56.04.85.04-.6,0-1.19-.02-1.76-.06v-.08c.3.05.6.08.91.1Z" fill="#3b3b3c"/>
      <path d="M231.29091,194.41016c-.31.02-.61.05-.91.1.3-.05.6-.08.91-.1Z" fill="#414142"/>
      <path d="M230.38091,229.79016c.3.05.6.08.91.1-.31-.02-.61-.05-.91-.1Z" fill="#3b3b3c"/>
      <polygon points="230.90091 290.36016 227.30091 293.96016 222.97091 292.31016 225.67091 288.37016 230.90091 290.36016" fill="#3b3b3c"/>
      <path d="M230.87091,204.58016c.05.11.11.21.18.3-.07-.09-.13-.19-.18-.3Z" fill="#414142"/>
      <path d="M230.70091,204.23016c.05.12.1.24.17.35-.06-.11-.12-.23-.17-.35Z" fill="#414142"/>
      <path d="M230.47091,218.58016c.06.24.13.47.22.69-.09-.22-.17-.45-.22-.69Z" fill="#414142"/>
      <path d="M230.56091,203.84016c0,.02.01.04.02.06-.01-.01-.02-.03-.02-.06Z" fill="#414142"/>
      <path d="M230.39091,202.82016c0,.1.01.21.02.31-.02-.1-.02-.2-.02-.31Z" fill="#414142"/>
      <path d="M230.39091,217.87016c0,.1.01.21.02.31-.02-.1-.02-.2-.02-.31Z" fill="#414142"/>
      <path d="M238.43091,202.67016v15.05c0-2.22-1.8-4.03-4.02-4.03-2.23,0-4.03,1.81-4.03,4.03v-15c0,.03,0,.07.01.1,0,.11,0,.21.02.31.02.25.07.49.15.71,0,.03.01.05.02.06.03.12.07.23.12.33.05.12.11.24.17.35.05.11.11.21.18.3.15.24.33.45.53.65.27.27.57.5.91.67.57.31,1.22.49,1.92.49,2.22,0,4.02-1.8,4.02-4.02Z" fill="#414142"/>
      <path d="M230.38091,202.67016v25.79c-3.82-2.07-6.41-6.11-6.41-10.75v-11.12c0-4.36,2.29-8.19,5.73-10.35v.29c.22.01.45.02.68.03v6.11Z" fill="#414142"/>
      <path d="M230.38091,195.84016v.72c-.23-.01-.46-.02-.68-.03v-.29c.22-.14.45-.27.68-.4Z" fill="#3b3b3c"/>
      <path d="M229.70091,196.24016v-1.48c.22.01.45.03.68.03v1.05c-.23.13-.46.26-.68.4Z" fill="#3b3b3c"/>
      <path d="M229.83091,194.61016c-.05.01-.1.02-.16.03.06-.02.11-.03.16-.03Z" fill="#414142"/>
      <path d="M229.29091,229.57016c.18.05.36.09.54.12-.18-.03-.36-.07-.54-.12Z" fill="#414142"/>
      <path d="M229.67091,194.64016c-.11.02-.22.05-.33.08.11-.04.22-.06.33-.08Z" fill="#414142"/>
      <path d="M229.70091,196.24016c-3.44,2.16-5.73,5.99-5.73,10.35v11.12c0,4.64,2.59,8.68,6.41,10.75v1.33c-.18-.03-.36-.06-.55-.1-.18-.03-.36-.07-.54-.12-.18-.04-.36-.09-.54-.14-.17-.05-.34-.11-.51-.17-.17-.05-.34-.12-.5-.18-.09-.03-.18-.07-.27-.11-.06-.03-.13-.06-.19-.08-.51-.23-1-.49-1.47-.77-.3-.19-.6-.39-.88-.6-.17-.13-.33-.25-.48-.38s-.3-.25-.45-.39c-.14-.13-.28-.26-.42-.4s-.27-.28-.4-.42c-.14-.15-.27-.3-.39-.45s-.24-.3-.36-.46c-.24-.31-.46-.64-.66-.97-.01-.02-.02-.04-.04-.06-.27-.46-.51-.93-.73-1.43-.01-.03-.02-.06-.04-.1-.08-.18-.15-.36-.22-.55s-.13-.38-.19-.57-.11-.38-.16-.58c-.06-.19-.1-.39-.14-.59l-.09-.48c-.05-.28-.08-.56-.11-.85-.03-.37-.05-.75-.05-1.13v-11.12c0-.38.02-.76.05-1.13.03-.29.06-.57.11-.85l.09-.48c.04-.2.08-.4.14-.59.05-.2.1-.39.16-.58s.12-.38.19-.57.14-.37.22-.55c.02-.04.03-.07.04-.1.22-.5.46-.97.73-1.43.02-.02.03-.04.04-.06.2-.33.42-.66.66-.97.12-.16.24-.31.36-.46.13-.15.25-.3.39-.45.13-.14.26-.28.4-.42s.28-.27.42-.4c.15-.14.3-.26.45-.39s.31-.26.48-.38c.28-.21.58-.41.88-.6.47-.29.96-.55,1.47-.77.06-.02.13-.05.19-.08.09-.04.18-.08.27-.11.16-.06.33-.13.5-.18.17-.06.34-.12.51-.17.2-.06.4-.11.59-.15.11-.03.22-.06.33-.08.06-.01.11-.02.16-.03.19-.04.37-.07.55-.1v.28c-.23,0-.46-.02-.68-.03v1.48Z" fill="#3b3b3c"/>
      <path d="M228.75091,194.87016c-.17.05-.34.11-.51.17.17-.07.34-.12.51-.17Z" fill="#414142"/>
      <path d="M228.24091,229.26016c.17.06.34.12.51.17-.17-.05-.34-.1-.51-.17Z" fill="#414142"/>
      <path d="M228.24091,195.04016c-.17.05-.34.12-.5.18.16-.07.33-.13.5-.18Z" fill="#414142"/>
      <path d="M227.74091,229.08016c.16.06.33.13.5.18-.17-.05-.34-.11-.5-.18Z" fill="#414142"/>
      <path d="M227.28091,228.89016c.06.02.13.05.19.08-.06-.02-.13-.05-.19-.08Z" fill="#414142"/>
      <path d="M227.28091,195.41016c.06-.03.13-.06.19-.08-.06.03-.13.06-.19.08Z" fill="#414142"/>
      <path d="M225.81091,196.18016c-.3.19-.6.39-.88.6.28-.21.58-.41.88-.6Z" fill="#3b3b3c"/>
      <path d="M224.93091,227.52016c.28.21.58.41.88.6-.3-.19-.6-.39-.88-.6Z" fill="#3b3b3c"/>
      <path d="M224.45091,197.16016c-.15.13-.3.25-.45.39.15-.14.29-.27.45-.39Z" fill="#3b3b3c"/>
      <path d="M224.00091,226.75016c.15.14.3.26.45.39-.16-.12-.3-.25-.45-.39Z" fill="#3b3b3c"/>
      <polygon points="224.30091 245.82016 224.29091 246.47016 223.97091 260.63016 224.30091 245.82016" fill="#414142"/>
      <polygon points="240.24091 232.31016 224.29091 246.47016 224.30091 245.82016 224.30091 245.80016 224.30091 245.79016 245.66091 226.83016 249.29091 223.61016 255.43091 218.16016 261.54091 212.74016 261.63091 225.04016 256.01091 241.78016 255.06091 241.83016 252.36091 241.97016 256.21091 230.52016 256.12091 218.22016 240.24091 232.31016" fill="#3b3b3c"/>
      <polygon points="224.30091 245.82016 223.97091 260.63016 218.07091 266.53016 217.56091 266.53016 217.56091 251.78016 224.30091 245.80016 224.30091 245.82016" fill="#414142"/>
      <path d="M224.25091,118.20016c.01-.08.02-.17.02-.25,0,.08-.01.17-.02.25Z" fill="#764d29"/>
      <path d="M224.11091,118.89016c.04-.12.06-.23.08-.35-.02.12-.04.24-.08.35Z" fill="#764d29"/>
      <path d="M223.97091,119.37016c.05-.15.1-.31.14-.46-.04.16-.08.31-.14.46Z" fill="#764d29"/>
      <path d="M223.97091,119.37016c8.52,12.66,17.42.45,17.74.01h.01c.06.2.12.4.2.59.06.15.12.3.19.45.03.07.07.15.11.22.07.15.15.29.24.43,0,.02.01.03.02.04.09.14.18.28.28.41.04.05.08.11.12.16.12.15.25.3.38.43l5.44,5.48c1.19,1.2,1.19,3.05-.01,4.25l-8.44,8.61v7.51h-15.95v-7.51l-7.88-8.61c-1-1.13-.96-2.92.09-3.99l5.8-5.9c.16-.16.32-.33.45-.5.12-.14.23-.27.33-.41.03-.04.06-.08.09-.13.12-.17.23-.33.32-.5l.01-.01c.09-.17.18-.34.26-.51s.15-.35.2-.52Z" fill="#595a5c"/>
      <path d="M223.58091,197.95016c-.14.14-.27.28-.4.42.13-.14.26-.28.4-.42Z" fill="#3b3b3c"/>
      <path d="M223.18091,225.93016c.13.14.26.28.4.42-.14-.14-.27-.28-.4-.42Z" fill="#3b3b3c"/>
      <path d="M223.18091,198.37016c-.14.15-.26.3-.39.45.13-.16.26-.3.39-.45Z" fill="#3b3b3c"/>
      <path d="M222.79091,198.82016c-.12.15-.24.3-.36.46.11-.16.23-.31.36-.46Z" fill="#3b3b3c"/>
      <path d="M222.43091,225.02016c.12.16.24.31.36.46-.13-.15-.25-.3-.36-.46Z" fill="#3b3b3c"/>
      <path d="M222.43091,199.28016c-.24.31-.46.64-.66.97.2-.33.42-.66.66-.97Z" fill="#3b3b3c"/>
      <path d="M221.77091,224.05016c.2.33.42.66.66.97-.24-.31-.46-.64-.66-.97Z" fill="#3b3b3c"/>
      <polygon points="219.79091 293.29016 221.78091 294.05016 217.56091 300.22016 217.56091 296.55016 219.79091 293.29016" fill="#414142"/>
      <path d="M221.00091,201.74016c.21-.49.45-.97.73-1.43-.27.46-.51.93-.73,1.43Z" fill="#3b3b3c"/>
      <path d="M221.73091,223.99016c-.28-.46-.52-.94-.73-1.43.22.5.46.97.73,1.43Z" fill="#3b3b3c"/>
      <path d="M220.96091,201.84016c-.08.18-.15.36-.22.55.07-.18.14-.37.22-.55Z" fill="#3b3b3c"/>
      <path d="M220.74091,221.91016c.07.19.14.37.22.55-.08-.18-.15-.37-.22-.55Z" fill="#3b3b3c"/>
      <path d="M220.74091,202.39016c-.07.19-.13.38-.19.57.06-.19.12-.38.19-.57Z" fill="#3b3b3c"/>
      <path d="M220.55091,202.96016c-.06.19-.11.38-.16.58.04-.2.1-.39.16-.58Z" fill="#3b3b3c"/>
      <path d="M220.39091,220.76016c.05.2.1.39.16.58-.06-.19-.12-.38-.16-.58Z" fill="#3b3b3c"/>
      <path d="M220.25091,204.13016l-.09.48c.03-.16.05-.32.09-.48Z" fill="#3b3b3c"/>
      <path d="M220.16091,219.69016l.09.48c-.04-.16-.06-.32-.09-.48Z" fill="#3b3b3c"/>
      <path d="M220.05091,205.46016c-.03.37-.05.75-.05,1.13,0-.38.02-.76.05-1.13Z" fill="#3b3b3c"/>
      <path d="M220.00091,217.71016c0,.38.02.76.05,1.13-.03-.37-.05-.75-.05-1.13Z" fill="#3b3b3c"/>
      <path d="M217.56091,192.70016h20.87v1.72c-.14-.02-.29-.03-.43-.03-.06,0-.12-.01-.18-.01-.15-.01-.3-.01-.45-.01h-5.15c-.31,0-.62.01-.93.04-.31.02-.61.05-.91.1-.18.03-.36.06-.55.1-.05,0-.1.01-.16.03-.11.02-.22.04-.33.08-.19.04-.39.09-.59.15-.17.05-.34.1-.51.17-.17.05-.34.11-.5.18-.09.03-.18.07-.27.11-.06.02-.13.05-.19.08-.51.22-1,.48-1.47.77-.3.19-.6.39-.88.6-.17.12-.33.25-.48.38-.16.12-.3.25-.45.39-.14.13-.28.26-.42.4s-.27.28-.4.42c-.13.15-.26.29-.39.45-.13.15-.25.3-.36.46-.24.31-.46.64-.66.97-.01.02-.02.04-.04.06-.28.46-.52.94-.73,1.43-.01.03-.02.06-.04.1-.08.18-.15.37-.22.55-.07.19-.13.38-.19.57s-.12.38-.16.58c-.06.19-.1.39-.14.59-.04.16-.06.32-.09.48-.05.28-.08.56-.11.85-.03.37-.05.75-.05,1.13v11.12c0,.38.02.76.05,1.13.03.29.06.57.11.85.03.16.05.32.09.48.04.2.08.4.14.59.04.2.1.39.16.58s.12.38.19.57c.07.18.14.37.22.55.02.04.03.07.04.1.21.49.45.97.73,1.43.02.02.03.04.04.06.2.33.42.66.66.97.11.16.23.31.36.46.12.15.25.3.39.45.13.14.26.28.4.42s.28.27.42.4c.15.14.29.27.45.39.15.13.31.25.48.38.28.21.58.41.88.6.47.28.96.54,1.47.77.06.03.13.06.19.08.09.04.18.08.27.11.16.07.33.13.5.18.17.07.34.12.51.17.18.05.36.1.54.14.18.05.36.09.54.12.19.04.37.07.55.1v.14l-12.24,12.23h-.58v-49.46Z" fill="#414142"/>
      <path d="M245.66091,226.83016l-21.36,18.96v.01l-6.74,5.98v-9.62h.58l12.24-12.23v-.06c.57.04,1.16.06,1.76.06h5.23c.18,0,.36,0,.53-.01.18,0,.36,0,.53-.01v-.03c.34-.02.68-.07,1.01-.13h.03c.14-.03.28-.05.42-.09.52-.1,1.02-.24,1.5-.41.32-.11.62-.23.92-.37.26-.11.51-.23.75-.36.09-.04.17-.09.25-.14.25-.13.49-.28.73-.44.22-.13.43-.28.64-.44.09-.06.17-.13.25-.2.23-.17.45-.36.66-.55l.07.08Z" fill="#414142"/>
      <polygon points="218.07091 266.53016 217.56091 267.04016 217.56091 266.53016 218.07091 266.53016" fill="#3b3b3c"/>
      <polygon points="217.56091 296.55016 217.56091 300.22016 217.31091 300.59016 217.31091 296.92016 217.56091 296.55016" fill="#414142"/>
      <polygon points="217.56091 284.82016 217.56091 296.55016 217.31091 296.92016 217.31091 285.04016 217.56091 284.82016" fill="#231f20"/>
      <polygon points="217.56091 267.04016 217.56091 284.82016 217.31091 285.04016 217.31091 267.29016 217.56091 267.04016" fill="#231f20"/>
      <polygon points="217.56091 251.78016 217.56091 266.53016 217.31091 266.53016 217.31091 252.00016 217.56091 251.78016" fill="#231f20"/>
      <path d="M217.56091,192.70016h-.5c0-.13.12-.25.25-.25.14,0,.25.12.25.25Z" fill="#231f20"/>
      <rect x="217.31091" y="192.70016" width=".25" height="49.46" fill="#231f20"/>
      <polygon points="217.31091 242.16016 217.56091 242.16016 217.56091 251.78016 217.31091 252.00016 217.31091 242.16016" fill="#231f20"/>
      <polygon points="217.31091 266.53016 217.56091 266.53016 217.56091 267.04016 217.31091 267.29016 217.31091 266.53016" fill="#3b3b3c"/>
      <polygon points="217.31091 390.81016 217.31091 300.59016 217.56091 300.22016 217.56091 390.74016 257.36091 454.68016 257.36091 455.17016 217.31091 390.81016" fill="#231f20"/>
      <path d="M217.31091,300.59016v90.22l40.05,64.36,5.86,9.42-1.12-1.34-45-72.3c-.02-.04-.04-.09-.04-.14v-198.11h.25v107.89Z" fill="#231f20"/>
      <path d="M199.40091,188.93016c.04,0,.02,1.41,0,2.13v-2.13Z" fill="#231f20"/>
      <path d="M199.40091,188.93016h61.96v3.77h-43.8c0-.13-.11-.25-.25-.25-.13,0-.25.12-.25.25h-17.66v-1.64c.02-.72.04-2.13,0-2.13Z" fill="#231f20"/>
      <path d="M261.36091,188.93016c0-.06-.05,0,0,0h-61.96l-9.66-.23-.1-11.08h9.76l61.45-.36c-.04.01.01.06.01,0l9.44.11.23,11.56h-9.17Z" fill="#818385"/>
      <path d="M199.38091,191.15016c0,.07,0,.13.01.18,0,.09,0,.14-.01.14v-.32Z" fill="#a293c7"/>
      <path d="M260.76091,159.09016h-61.93v-.02l.19-.28c.03-.05-.03-.06-.09-.04-.02,0-.04.01-.05.02s-.02.01-.03.02h-8.34c-.97,0-1.76-.79-1.76-1.77v-6.59c0-1.36,1.1-2.47,2.46-2.47h76.52c1.42,0,2.57,1.16,2.57,2.58v7.5c0,.06.09.89.03.89l-9.57.11v.05Z" fill="#818385"/>
      <path d="M197.76091,266.16016c-.81-2.31-2.1-2.94-4.12-.23,0,0-2.67.88-44.89,64.14-19.99,33.61-38.79-1.14-38.82-1.18l-.56-.66c-.14-.18-.31-.38-.51-.62l-1.46-1.76c-.28-.35-.59-.73-.92-1.13l-2.82-3.5c-.84-1.05-1.73-2.18-2.67-3.38-.24-.3-.48-.61-.72-.92-.48-.62-.98-1.26-1.49-1.92-.5-.65-1.02-1.32-1.54-2.01s-1.05-1.39-1.58-2.1l-2.45-3.29c-.55-.75-1.11-1.51-1.66-2.28-.56-.76-1.12-1.54-1.67-2.33-.84-1.18-1.67-2.37-2.5-3.57-.47-.66-.92-1.34-1.38-2.01-1.46-2.16-2.9-4.34-4.27-6.52-.52-.82-1.02-1.64-1.52-2.45-.75-1.22-1.47-2.43-2.16-3.63s-1.35-2.39-1.99-3.57v-.01c-.42-.78-.82-1.56-1.21-2.32-.39-.77-.76-1.53-1.11-2.28s-.69-1.49-1-2.21c-.31-.73-.6-1.44-.88-2.14-.27-.7-.52-1.39-.74-2.06-9.26-15.5-7.77,6.38-7.53,11.26.03.62.03,1.25.01,1.87-.58,19.68,3.04,71.42-3.28,85.44-.01.02-.02.03-.04.04-11.81,9.1-60.56,8.75-58.2-5.87v-195.27c3.57-19.54,32.87-16.58,32.89-16.58l23.03,4.39c.72.32,1.42.65,2.1.99l11.09,7.89c.23.23.46.45.69.68.45.45.89.91,1.31,1.37,6.14,6.7,9.45,13.96,12,18.16,5.63,9.26,32.15,52.45,32.15,52.45,15.33,20.61,28.38-1.67,28.45-1.78l52.76-75.79v2.4h.23l-.23,15.75h-8.91l.1,11.08c-.05,0,0,.06,0,0l9.66.23v2.13c0,.11-.01.2-.01.27-.01-.05-.01-.11-.01-.18v.32l-.48,82.19c-.02-.48-.06-.95-.1-1.41-.02-.31-.05-.61-.08-.91-.09-1.05-.22-2.03-.39-2.92-.02-.13-.04-.26-.07-.38-.1-.5-.21-.96-.33-1.37-.06-.18-.11-.35-.17-.51Z" fill="#a293c7"/>
      <polygon points="198.81091 159.09016 198.55091 159.47016 198.55091 159.09016 198.81091 159.09016" fill="#231f20"/>
      <polygon points="198.83091 159.09016 198.78091 161.87016 198.55091 161.87016 198.55091 159.47016 198.81091 159.09016 198.83091 159.09016" fill="#231f20"/>
      <path d="M198.72091,271.34016c.03.3.06.6.08.91-.02-.31-.05-.61-.08-.91Z" fill="#a293c7"/>
      <path d="M198.33091,268.42016c-.02-.13-.05-.25-.07-.38.03.12.05.25.07.38Z" fill="#a293c7"/>
      <path d="M197.76091,266.16016c.06.16.11.33.17.51-.06-.18-.11-.35-.17-.51Z" fill="#a293c7"/>
      <path d="M108.86091,327.61016c.2.24.37.44.51.62-.14-.18-.31-.38-.51-.62Z" fill="#a293c7"/>
      <path d="M106.48091,324.72016c.33.4.64.78.92,1.13-.29-.35-.6-.73-.92-1.13Z" fill="#a293c7"/>
      <path d="M86.00091,297.41016c.46.67.91,1.35,1.38,2.01-.47-.67-.93-1.34-1.38-2.01Z" fill="#a293c7"/>
      <path d="M71.88091,165.06016c.45.45.89.91,1.31,1.37-.42-.46-.86-.92-1.31-1.37Z" fill="#a293c7"/>
    </g>
    <path d="M219.37092,412.39017l-20.52002-24.43005c-.02002-.01996-.02997-.04999-.02997-.06995v-99.52002c0-.03998.23999-3.98999.23999-8.69,0-1.92999-.04004-3.98999-.16003-5.95001v-.07001l.47003-80.5h6.89996v198.10004c0,.06.02002.09998.04004.13995l13.06,20.99005Z" fill="#b1b3b6"/>
    <path d="M219.37092,412.39017l-20.52002-24.43005c-.02002-.01996-.02997-.04999-.02997-.06995v-99.52002c0-.03998.23999-3.98999.23999-8.69,0-1.92999-.04004-3.98999-.16003-5.95001v-.07001l.47003-80.5h6.89996v198.10004c0,.06.02002.09998.04004.13995l13.06,20.99005Z" fill="#939598"/>
    <path d="M270.53089,188.93015h-6.01001l-.12-5.72998-9.44-.11005c0,.06-.03998.01001-.00995,0l-61.45001.36005h-3.81l-.04999-5.83002h9.75995l61.45001-.35999c-.03998.01001.01001.06.01001,0l9.44.10999.22998,11.56Z" fill="#636466"/>
    <path d="M248.69093,131.84012l-1.92999,1.97003-3.24005-3.27002c-.12994-.13-.25995-.27997-.37994-.42999-.04004-.04999-.08002-.10999-.12006-.15997-.09998-.13-.19-.27002-.27997-.41003-.01001-.01001-.02002-.01996-.02002-.03998-.08997-.14001-.16998-.28003-.23999-.42999-.03998-.07001-.08002-.15002-.10999-.22003-.07001-.14996-.13-.29999-.19-.45001-.08002-.19-.14001-.38995-.20001-.58997h-.01001c-.32001.44-9.21997,12.64996-17.73999-.01001-.04999.16998-.12.34998-.20001.52002-.07996.16998-.16998.33997-.26001.51001l-.00995.00995c-.09003.17004-.20001.33002-.32001.5-.03003.05005-.06.09003-.09003.13-.09998.14001-.20996.27002-.33002.41003-.12994.16998-.28998.33997-.44995.5l-3.88,3.94-2.27002-2.48004c-1-1.13-.96002-2.91998.09003-3.98999l5.79999-5.89996c.15997-.16003.32001-.33002.45001-.5.12-.14001.22998-.27002.32996-.41003.03003-.03998.06-.08002.09003-.13.12-.16998.22998-.32996.32001-.5l.01001-.01001c.08997-.16998.17999-.33997.25995-.50995.08002-.17004.15002-.35004.20001-.52002,8.52002,12.65997,17.42004.45001,17.73999.01001h.01001c.06.20001.12.39996.20001.58997.06.15002.12.30005.19.45001.03003.07001.07001.15002.10999.22003.07001.14996.15002.28998.23999.42999,0,.01996.01001.02997.02002.03998.09003.14001.17999.28003.28003.41003.03998.04999.07996.10999.12.15997.12.15002.25.29999.38.42999l5.44,5.47998c1.19,1.20001,1.19,3.05005-.01001,4.25Z" fill="#414042"/>
    <path d="M241.71088,119.37015v.01001c-.07996.10999-.65997.89996-1.60999,1.87-.07001-.14001-.13-.29999-.17999-.45001-.09003-.22998-.15997-.46002-.21002-.69l-12.20996-49.75s-1.23004-.46002-3.20001-.63v-3.58002c9.56-5.10999,17.12,0,17.12,0v51.22003c0,.23999.01001.47998.03998.71997.02002.18005.04004.37.08002.55005v.01996c.03998.21002.09003.42004.15002.63.01001.03003.01996.04999.01996.08002Z" fill="#603e1d"/>
    <path d="M247.53089,60.81015l-6.07996,5.31c-8.01001-8.84998-15.92004-7.09003-21.18005-4.01001l-1.29999-1.29999s14.28003-17.44,28.56,0Z" fill="#414042"/>
    <path d="M60.32093,368.79014c-.01001.02002-.02002.03003-.04004.04004-11.77997,9.07996-60.31,8.75-58.20996-5.76001,14.51996,4.03998,39.54999,2.21997,47.56-3.96002.01996-.01001.02997-.02002.03998-.03998,6.32001-14.02002,2.70001-65.76001,3.28003-85.44.01996-.62.01996-1.25-.01001-1.87-.23999-4.88-1.73004-26.76001,7.52997-11.26001.22003.66998.47003,1.35999.73999,2.06.28003.70001.57001,1.40997.88,2.14001.31.71997.65002,1.45996,1,2.20996.22003.47003.45001.94.67999,1.42004-.71997,4.14996-.29999,10.72998-.17999,13.14996.03003.62.03003,1.25.01001,1.87-.58002,19.67999,3.04004,71.42004-3.27997,85.44Z" fill="#655c7e"/>
    <path d="M116.31092,235.36014c-3.03003-1.08002-6.27002-3.52997-9.62-8.03998,0,0-26.52002-43.19-32.15002-52.45001-2.08002-3.42999-4.66998-8.89001-8.88-14.42999l5.53003,3.94c.22998.22998.45996.45001.69.67999.44995.45001.88995.90997,1.31,1.37,6.13995,6.70001,9.45001,13.96002,12,18.15997,4.96997,8.17004,26.19,42.73004,31.12,50.77002Z" fill="#a293c7"/>
    <path d="M199.40089,188.93015v2.13c0,.10999-.00995.20001-.00995.27002-.01001-.05005-.01001-.11005-.01001-.18005v.32001l-.48004,82.19c-.01996-.47998-.06-.95001-.09998-1.40997-.02002-.31-.04999-.60999-.08002-.91003-.08997-1.04999-.21997-2.02997-.39001-2.91998-.01996-.13-.03998-.26001-.06995-.38-.10004-.5-.21002-.95996-.33002-1.37-.06-.17999-.10999-.34998-.16998-.51001-.81-2.31-2.10004-2.94-4.12-.22998,0,0-2.67004.88-44.89001,64.14001-15.33002,25.76996-29.95001,11.34998-35.95001,3.20996,7.01001,3.54004,16.02997,2.66003,25.29999-12.92999,42.22003-63.26001,44.89001-64.14001,44.89001-64.14001,2.02002-2.70996,3.31-2.07996,4.12.23004.06.15997.10999.33002.16998.51001.12.40997.23004.87.33002,1.37.03003.12.04999.25.07001.38.16998.88995.29999,1.87.39001,2.91998.02997.29999.06.59998.07996.90997.04004.46002.08002.92999.10004,1.41003l.47998-82.19v-.32001c0,.07001,0,.13.01001.17999,0-.07001.01001-.15997.01001-.27002v-2.13l-3.88-.08997,13.67999-19.65002v2.40002h.22998l-.22998,15.75h-8.90997l.09998,11.08002,9.65997.22998Z" fill="#655c7e"/>
    <line x1="198.54606" y1="177.62156" x2="260.85658" y2="177.25947" fill="none" stroke="#231f20" stroke-miterlimit="10" stroke-width="4"/>
    <path d="M198.82387,288.37058l.55661-97.22116c0,1.3857.07606-2.22404.01685-2.22404l-9.65187-.22147c-.05897,0,0,.05897,0,0l-.10678-11.08235h9.75864" fill="none" stroke="#231f20" stroke-miterlimit="10" stroke-width="4"/>
    <path d="M199.01642,158.78808h-8.50232c-.9744,0-1.76431-.78991-1.76431-1.76431v-6.59764c0-1.36026,1.10271-2.46296,2.46296-2.46296h76.51852c1.42162,0,2.57407,1.15245,2.57407,2.57407v7.5c0,.05897.08518.88889.02621.88889l-9.5717.11342c-.04142.04164.04142-.04164,0,0l.09672,18.21992c0,.05897-.05897,0,0,0l9.44878.10678c.05897,0,0-.05897,0,0l.22222,11.55914c0,.05658.05648-.00327,0,0h-9.1636c-.05679.00329-.00042-.05688,0,0l2.05027,275.5931c.00075.10005-.12417.14609-.18853.06948l-64.37683-76.63205c-.01616-.01924-.02502-.04356-.02502-.06868v-99.51351l.00002-.00348c.0071-.11835,1.9127-31.98193-5.18521-22.44411,0,0-2.66667.88889-44.88889,64.14815-19.98819,33.60977-38.7926-1.1441-38.8148-1.18515-.00044-.0007.00039.00062-.00004-.00007-.03104-.04296-31.6296-37.18515-38.81479-58.66663-9.25926-15.4996-7.77356,6.37596-7.53135,11.25312.03109.626.03466,1.25115.01604,1.87765-.58494,19.67842,3.03236,71.42016-3.28868,85.43792-.0073.01619-.01767.02924-.03175.04008-11.81418,9.09453-60.56553,8.74495-58.20129-5.86801l-.00005-195.24822.00194-.02127c3.56287-19.53863,32.86999-16.58409,32.88699-16.58238h.00054c35.2588.00026,44.59208,24.22227,50.22168,33.48148s32.14815,52.44444,32.14815,52.44444c15.3295,20.61779,28.38257-1.67186,28.44422-1.77741l.00238-.00347,53.22743-76.46829c.05874-.085-.18678-.04533-.18412.05796l-.28624,18.77552" fill="none" stroke="#231f20" stroke-miterlimit="10" stroke-width="4"/>
    <path d="M241.41646,66.14836v51.22004c0,1.6711.66131,3.55628,1.83949,4.74139l5.44537,5.47741c1.19281,1.19983,1.18742,3.05724-.01204,4.25042l-8.43949,8.6163v7.50926" fill="none" stroke="#231f20" stroke-miterlimit="10" stroke-width="4"/>
    <path d="M224.30535,147.96317v-7.50926l-7.88559-8.6163c-1.00195-1.12287-.9607-2.91266.0943-3.98585l5.80054-5.90055c1.27582-1.29782,1.99075-2.76291,1.99075-4.58282v-51.22004" fill="none" stroke="#231f20" stroke-miterlimit="10" stroke-width="4"/>
    <path d="M223.97533,119.37184c8.66825,12.88763,17.73639,0,17.73639,0" fill="none" stroke="#231f20" stroke-miterlimit="10" stroke-width="4"/>
    <path d="M241.41646,66.14836l6.11111-5.33333c-14.27778-17.44444-28.55556,0-28.55556,0l5.33333,5.33333c9.55556-5.11111,17.11111,0,17.11111,0Z" fill="none" stroke="#231f20" stroke-miterlimit="10" stroke-width="4"/>
    <rect x="199.39733" y="188.92539" width="61.96665" height="3.77928" fill="none" stroke="#231f20" stroke-miterlimit="10" stroke-width="4"/>
    <rect x="198.54606" y="159.0928" width="62.31051" height="2.77778" fill="none" stroke="#231f20" stroke-miterlimit="10" stroke-width="4"/>
    <circle cx="213.28915" cy="169.47012" r="4.02576" fill="none" stroke="#231f20" stroke-miterlimit="10"/>
    <circle cx="229.70132" cy="169.47012" r="4.02576" fill="none" stroke="#231f20" stroke-miterlimit="10"/>
    <circle cx="246.11349" cy="169.56503" r="4.02576" fill="none" stroke="#231f20" stroke-miterlimit="10"/>
    <polyline points="263.22572 464.58797 217.31491 390.81503 217.31491 192.70466" fill="none" stroke="#231f20" stroke-miterlimit="10" stroke-width="2"/>
    <circle cx="234.40642" cy="202.66688" r="4.02576" fill="none" stroke="#231f20" stroke-miterlimit="10"/>
    <circle cx="234.40642" cy="217.72084" r="4.02576" fill="none" stroke="#231f20" stroke-miterlimit="10"/>
    <rect x="220.00004" y="194.37058" width="29.59239" height="35.55556" rx="12.22044" ry="12.22044" fill="none" stroke="#231f20" stroke-miterlimit="10"/>
    <polyline points="230.38065 194.37058 230.38065 202.66688 230.38065 216.65485 230.38065 229.92614 218.14408 242.16271" fill="none" stroke="#231f20" stroke-miterlimit="10"/>
    <polyline points="238.43218 202.66688 238.43218 216.65485 238.43218 229.87744" fill="none" stroke="#231f20" stroke-miterlimit="10"/>
    <line x1="238.43218" y1="201.92614" x2="238.43218" y2="194.37058" fill="none" stroke="#231f20" stroke-miterlimit="10"/>
    <circle cx="234.40642" cy="217.72084" r="2.97584" fill="none" stroke="#231f20" stroke-miterlimit="10" stroke-width=".25"/>
    <circle cx="234.40642" cy="202.66688" r="2.97584" fill="none" stroke="#231f20" stroke-miterlimit="10" stroke-width=".25"/>
    <line x1="261.54117" y1="212.74278" x2="217.31491" y2="252.00021" fill="none" stroke="#231f20" stroke-miterlimit="10"/>
    <polyline points="261.63264 225.03839 256.00906 241.77799 242.08773 242.51873 218.07169 266.53477" fill="none" stroke="#231f20" stroke-miterlimit="10"/>
    <line x1="260.85658" y1="198.64111" x2="249.59242" y2="213.69507" fill="none" stroke="#231f20" stroke-miterlimit="10"/>
    <line x1="224.30535" y1="245.78658" x2="223.97533" y2="260.63113" fill="none" stroke="#231f20" stroke-miterlimit="10"/>
    <line x1="261.63264" y1="245.78658" x2="217.31491" y2="285.03725" fill="none" stroke="#231f20" stroke-miterlimit="10"/>
    <polyline points="217.31491 300.5928 225.67556 288.37058 233.2498 291.25947 261.80333 262.70593" fill="none" stroke="#231f20" stroke-miterlimit="10"/>
    <line x1="198.54606" y1="177.62156" x2="260.85658" y2="177.25947" fill="none" stroke="#231f20" stroke-miterlimit="10" stroke-width="4"/>
    <path d="M198.82387,288.37058l.55661-97.22116c0,1.3857.07606-2.22404.01685-2.22404l-9.65187-.22147c-.05897,0,0,.05897,0,0l-.10678-11.08235h9.75864" fill="none" stroke="#231f20" stroke-miterlimit="10" stroke-width="4"/>
    <path d="M241.41646,66.14836v51.22004c0,1.6711.66131,3.55628,1.83949,4.74139l5.44537,5.47741c1.19281,1.19983,1.18742,3.05724-.01204,4.25042l-8.43949,8.6163v7.50926" fill="none" stroke="#231f20" stroke-miterlimit="10" stroke-width="4"/>
    <path d="M224.30535,147.96317v-7.50926l-7.88559-8.6163c-1.00195-1.12287-.9607-2.91266.0943-3.98585l5.80054-5.90055c1.27582-1.29782,1.99075-2.76291,1.99075-4.58282v-51.22004" fill="none" stroke="#231f20" stroke-miterlimit="10" stroke-width="4"/>
    <path d="M223.97533,119.37184c8.66825,12.88763,17.73639,0,17.73639,0" fill="none" stroke="#231f20" stroke-miterlimit="10" stroke-width="4"/>
    <path d="M241.41646,66.14836l6.11111-5.33333c-14.27778-17.44444-28.55556,0-28.55556,0l5.33333,5.33333c9.55556-5.11111,17.11111,0,17.11111,0Z" fill="none" stroke="#231f20" stroke-miterlimit="10" stroke-width="4"/>
    <rect x="199.39733" y="188.92539" width="61.96665" height="3.77928" fill="#231f20" stroke="#231f20" stroke-miterlimit="10" stroke-width="4"/>
    <rect x="198.54606" y="159.0928" width="62.31051" height="2.77778" fill="#231f20" stroke="#231f20" stroke-miterlimit="10" stroke-width="4"/>
    <circle cx="213.28915" cy="169.47012" r="4.02576" fill="none" stroke="#231f20" stroke-miterlimit="10"/>
    <circle cx="229.70132" cy="169.47012" r="4.02576" fill="none" stroke="#231f20" stroke-miterlimit="10"/>
    <circle cx="246.11349" cy="169.56503" r="4.02576" fill="none" stroke="#231f20" stroke-miterlimit="10"/>
    <polyline points="263.22572 464.58797 217.31491 390.81503 217.31491 192.70466" fill="none" stroke="#231f20" stroke-miterlimit="10" stroke-width="2"/>
    <circle cx="234.40642" cy="202.66688" r="4.02576" fill="none" stroke="#231f20" stroke-miterlimit="10"/>
    <circle cx="234.40642" cy="217.72084" r="4.02576" fill="none" stroke="#231f20" stroke-miterlimit="10"/>
    <rect x="220.00004" y="194.37058" width="29.59239" height="35.55556" rx="12.22044" ry="12.22044" fill="none" stroke="#231f20" stroke-miterlimit="10"/>
    <polyline points="230.38065 194.37058 230.38065 202.66688 230.38065 216.65485 230.38065 229.92614 218.14408 242.16271" fill="none" stroke="#231f20" stroke-miterlimit="10"/>
    <polyline points="238.43218 202.66688 238.43218 216.65485 238.43218 229.87744" fill="none" stroke="#231f20" stroke-miterlimit="10"/>
    <line x1="238.43218" y1="201.92614" x2="238.43218" y2="194.37058" fill="none" stroke="#231f20" stroke-miterlimit="10"/>
    <circle cx="234.40642" cy="217.72084" r="2.97584" fill="none" stroke="#231f20" stroke-miterlimit="10" stroke-width=".25"/>
    <circle cx="234.40642" cy="202.66688" r="2.97584" fill="none" stroke="#231f20" stroke-miterlimit="10" stroke-width=".25"/>
    <line x1="261.54117" y1="212.74278" x2="217.31491" y2="252.00021" fill="none" stroke="#231f20" stroke-miterlimit="10"/>
    <polyline points="261.63264 225.03839 256.00906 241.77799 242.08773 242.51873 218.07169 266.53477" fill="none" stroke="#231f20" stroke-miterlimit="10"/>
    <line x1="260.85658" y1="198.64111" x2="249.59242" y2="213.69507" fill="none" stroke="#231f20" stroke-miterlimit="10"/>
    <line x1="224.30535" y1="245.78658" x2="223.97533" y2="260.63113" fill="none" stroke="#231f20" stroke-miterlimit="10"/>
    <line x1="261.63264" y1="245.78658" x2="217.31491" y2="285.03725" fill="none" stroke="#231f20" stroke-miterlimit="10"/>
    <polyline points="217.31491 300.5928 225.67556 288.37058 233.2498 291.25947 261.80333 262.70593" fill="none" stroke="#231f20" stroke-miterlimit="10"/>
  </g>
  <g id="d" data-name="Layer 3">
    <g>
      <g>
        <path d="M689.41535,323.64334c-4.28906,6.9292-9.01855,13.2207-14.19043,18.88135-5.17676,5.66113-10.97656,10.47754-17.40625,14.44727-6.43066,3.9707-13.56445,7.05762-21.39746,9.26172-7.83691,2.20312-16.48438,3.30859-25.94336,3.30859-11.82812,0-22.91504-2.21777-33.25977-6.65234-10.34863-4.43457-19.40137-10.42188-27.16211-17.96094-7.76074-7.53857-13.8584-16.40771-18.29297-26.60742-4.43506-10.19971-6.65234-21.06494-6.65234-32.59473s2.21729-22.39551,6.65234-32.59521c4.43457-10.19971,10.53223-19.06885,18.29297-26.60791s16.81348-13.52588,27.16211-17.96045c10.34473-4.43457,21.43164-6.65186,33.25977-6.65186,9.75684,0,18.5498,1.1084,26.38672,3.32617,7.83301,2.21729,14.92871,5.32129,21.28613,9.3125,6.35449,3.99121,12.08496,8.83496,17.18457,14.52344,5.09961,5.69238,9.79102,11.93896,14.08008,18.73682.73828,1.18457.88672,2.43896.44336,3.76953-.44336,1.33008-1.33008,2.29346-2.66113,2.88232l-31.48535,12.41699c-1.47949.59277-2.95898.59277-4.43457,0-1.47949-.58887-2.58887-1.47559-3.32617-2.66064-4.28906-6.79736-9.46191-12.0083-15.52148-15.63232-6.06348-3.62061-13.38086-5.43262-21.95215-5.43262-5.61914,0-10.90234,1.18848-15.85352,3.55811-4.95508,2.37012-9.27832,5.51953-12.97168,9.44824-3.69629,3.92871-6.5791,8.48486-8.64746,13.67139-2.07227,5.18994-3.10449,10.52539-3.10449,16.00635,0,5.6333,1.03223,11.00342,3.10449,16.11719,2.06836,5.11377,4.95117,9.6001,8.64746,13.45312,3.69336,3.85254,8.0166,6.96729,12.97168,9.33691,4.95117,2.36963,10.23438,3.55469,15.85352,3.55469,8.12793,0,15.4834-1.95752,22.0625-5.87598,6.57617-3.91504,11.78711-8.98047,15.63281-15.18896.7373-1.18115,1.80859-2.06836,3.21484-2.66064,1.40332-.58887,2.84473-.58887,4.32422,0l31.48535,12.41699c1.33105.59277,2.21777,1.51758,2.66113,2.77197.44336,1.25732.29492,2.5498-.44336,3.88037Z" fill="#231f20"/>
        <path d="M610.47785,372.54227c-12.18066,0-23.76855-2.31934-34.44141-6.89453-10.63623-4.55762-20.08057-10.80469-28.0708-18.56738-8.00635-7.77637-14.3833-17.05029-18.9541-27.5625-4.5791-10.53125-6.90088-21.90039-6.90088-33.79102s2.32178-23.26025,6.90137-33.7915c4.57031-10.51221,10.94727-19.78564,18.95361-27.56348,7.98975-7.76172,17.43408-14.0083,28.0708-18.56592,10.67188-4.57471,22.25977-6.89453,34.44141-6.89453,9.98633,0,19.13867,1.15723,27.20312,3.43945,8.07227,2.28516,15.49609,5.53467,22.06445,9.6582,6.5625,4.12158,12.55859,9.18896,17.82324,15.06201,5.17969,5.78125,10.01855,12.22021,14.38379,19.13867,1.22168,1.95947,1.47852,4.13916.75195,6.31836-.70996,2.13184-2.19434,3.74951-4.29297,4.67773l-.11328.04736-31.48535,12.41699c-2.16895.86768-4.47461.86816-6.65332-.00732-2.07324-.8252-3.67578-2.12451-4.75488-3.85938-4.00586-6.34863-8.89258-11.28076-14.51465-14.64258-5.56348-3.32227-12.43164-5.00732-20.41211-5.00732-5.13477,0-10.0332,1.09814-14.55859,3.26416-4.59473,2.19775-8.65918,5.15771-12.08105,8.79688-3.42188,3.63721-6.12891,7.91943-8.04688,12.72803-1.91797,4.80469-2.89062,9.81592-2.89062,14.89502,0,5.22314.9707,10.2666,2.88477,14.99072,1.91699,4.73926,4.61914,8.94482,8.03223,12.50293,3.43066,3.57812,7.50195,6.50781,12.10059,8.70703,4.52246,2.16406,9.41992,3.26123,14.55957,3.26123,7.54492,0,14.45117-1.83496,20.52734-5.45361,6.12598-3.64648,11.04395-8.42139,14.61719-14.19092,1.07422-1.7207,2.62012-3.01172,4.60156-3.8457,2.11914-.88916,4.40234-.89648,6.59766-.02246l31.59668,12.46338c2.07617.9248,3.55273,2.48535,4.26855,4.51318.72949,2.06738.50488,4.25732-.64844,6.33545l-.07227.12354c-4.36328,7.0498-9.25098,13.55225-14.52637,19.32568-5.34473,5.84473-11.41602,10.88379-18.04492,14.97656-6.63672,4.09766-14.09277,7.32617-22.16113,9.59668-8.07422,2.27051-17.07617,3.4209-26.75586,3.4209ZM610.47785,204.91141c-11.36426,0-22.15723,2.15625-32.07812,6.40918-9.95898,4.26807-18.79199,10.10693-26.25342,17.35498-7.44287,7.22998-13.375,15.86084-17.63232,25.65234-4.24902,9.77197-6.40332,20.33594-6.40332,31.39893s2.1543,21.62646,6.40332,31.39844c4.25732,9.79199,10.18945,18.42236,17.63232,25.65137,7.46191,7.24902,16.29443,13.08789,26.25342,17.35547,9.92188,4.25391,20.71484,6.41016,32.07812,6.41016,9.13086,0,17.58594-1.0752,25.13184-3.19629,7.5293-2.11914,14.47168-5.12207,20.63281-8.92676,6.15723-3.80176,11.79883-8.48438,16.76855-13.91895,5.00684-5.47998,9.65332-11.65967,13.81055-18.36719.41699-.77979.27637-1.17871.20801-1.37256-.11328-.31982-.32227-.69043-1.00293-1.00635l-31.41504-12.38916c-.75488-.30127-1.39062-.30664-2.0625-.0249-.8252.34766-1.42578.8335-1.83105,1.48291-4.08105,6.58838-9.68262,12.03418-16.64355,16.17822-7.0166,4.1792-14.95605,6.29834-23.59668,6.29834-6.04297,0-11.8125-1.29492-17.14844-3.84863-5.25293-2.51221-9.91016-5.86523-13.84277-9.9668-3.94238-4.10986-7.05859-8.95654-9.2627-14.4043-2.20508-5.44141-3.32324-11.24316-3.32324-17.24219,0-5.84473,1.11621-11.604,3.31836-17.11865,2.19727-5.51025,5.30957-10.42773,9.24902-14.61475,3.93066-4.18164,8.59473-7.57959,13.86133-10.09912,5.34082-2.55566,11.11035-3.85156,17.14844-3.85156,9.07812,0,16.98145,1.9707,23.49023,5.85693,6.43945,3.85107,11.99707,9.43799,16.52051,16.60693.40332.64795,1.02051,1.125,1.89844,1.47461.76953.30908,1.44922.30762,2.20898.00244l31.43457-12.39697c.52539-.24268.81152-.55469.98242-1.06641.16016-.48291.12305-.80615-.14355-1.23389-4.17773-6.62109-8.81348-12.79053-13.76855-18.32178-4.89062-5.45557-10.45801-10.16113-16.5459-13.98486-6.08496-3.82031-12.98438-6.83691-20.50781-8.96631-7.5332-2.13184-16.13574-3.21289-25.56934-3.21289Z" fill="#a293c7"/>
      </g>
      <path d="M744.82062,366.65945h-33.2041c-1.48633,0-2.75098-.5166-3.79004-1.55176-1.04004-1.0332-1.55957-2.29004-1.55957-3.76953v-151.66602c0-1.47607.5166-2.73389,1.55176-3.76953,1.0332-1.03271,2.29004-1.55225,3.76953-1.55225h68.95996c8.57129,0,16.48047,1.44141,23.72461,4.32373,7.24121,2.88281,13.41504,6.91211,18.51562,12.08447,5.09961,5.17627,9.09082,11.30859,11.97363,18.40381,2.88184,7.0957,4.32324,14.93262,4.32324,23.50391,0,4.73291-.55469,9.42383-1.66309,14.08008s-2.69824,9.05664-4.7666,13.19336c-2.07227,4.14014-4.51172,7.87158-7.31738,11.19727-2.80957,3.32617-5.9873,6.09766-9.53516,8.31494-1.18457.88721-1.96094,1.96143-2.32812,3.21533-.37012,1.25781-.11035,2.47705.77637,3.65869,5.61621,7.39355,11.53027,15.00488,17.73828,22.83838,6.20898,7.83691,11.75195,15.00488,16.63086,21.50879.88672,1.18457,1.1084,2.47656.66504,3.87988-.44336,1.40625-1.40723,2.10645-2.88281,2.10645h-41.24219c-1.47949,0-3.07031-.40527-4.76758-1.21973-1.70117-.81055-2.99316-1.80859-3.87988-2.99316-4.70898-6.20898-9.37891-12.49023-14.01465-18.84766-4.63574-6.354-9.2334-12.78418-13.79297-19.29053-.88281-1.18164-2.13379-2.1792-3.75195-2.99365-1.61816-.81055-3.16309-1.21924-4.63184-1.21924h-4.85449c-1.47168,0-2.72266.51953-3.75195,1.55225-1.03223,1.03564-1.54492,2.29346-1.54492,3.76904v35.92139c0,1.47949-.52344,2.73633-1.5625,3.76953-1.03906,1.03516-2.30371,1.55176-3.78711,1.55176ZM755.46418,279.29617h23.38965c1.76367,0,3.60254-.33252,5.51562-.99756,1.91211-.66504,3.67578-1.69775,5.29395-3.10449,1.61719-1.40283,2.94141-3.13867,3.97363-5.21045,1.0293-2.06836,1.54492-4.50732,1.54492-7.31738,0-1.47607-.25977-3.21484-.77246-5.21045-.5166-1.99561-1.39941-3.91504-2.64648-5.76514-1.25098-1.84668-2.94141-3.39893-5.07617-4.65674-2.13379-1.25391-4.74316-1.88477-7.83301-1.88477h-23.38965c-1.46875,0-2.71973.52002-3.74902,1.55225-1.03223,1.03613-1.54492,2.29346-1.54492,3.76953v23.50391c0,1.47949.5127,2.73682,1.54492,3.76953,1.0293,1.03564,2.28027,1.55176,3.74902,1.55176Z" fill="#231f20" stroke="#a293c7" stroke-miterlimit="10" stroke-width="6"/>
      <path d="M858.59406,285.50516c0-11.53027,2.21777-22.39551,6.65234-32.59521s10.4209-19.10352,17.95996-26.71875c7.53906-7.61182,16.4082-13.63672,26.6084-18.07129s21.06445-6.65186,32.59473-6.65186,22.39551,2.21729,32.59473,6.65186c10.2002,4.43457,19.10352,10.45947,26.71875,18.07129,7.6123,7.61523,13.63672,16.51904,18.07129,26.71875,4.43555,10.19971,6.65234,21.06494,6.65234,32.59521s-2.2168,22.39502-6.65234,32.59473c-4.43457,10.19971-10.45898,19.10693-18.07129,26.71875-7.61523,7.61523-16.51855,13.63672-26.71875,18.07129-10.19922,4.43457-21.06445,6.65234-32.59473,6.65234s-22.39453-2.21777-32.59473-6.65234-19.06934-10.45605-26.6084-18.07129c-7.53906-7.61182-13.52539-16.51904-17.95996-26.71875s-6.65234-21.06494-6.65234-32.59473ZM902.49738,285.50516c0,5.61914,1.03223,10.94092,3.10449,15.96484,2.06836,5.02686,4.91309,9.46143,8.53711,13.30371,3.62012,3.8457,7.87109,6.91211,12.74902,9.20215,4.87793,2.29346,10.05078,3.43652,15.52148,3.43652,5.4668,0,10.64355-1.14307,15.52148-3.43652,4.87793-2.29004,9.16406-5.35645,12.86035-9.20215,3.69336-3.84229,6.57617-8.27686,8.64746-13.30371,2.06836-5.02393,3.10449-10.3457,3.10449-15.96484,0-5.46729-1.03613-10.75439-3.10449-15.854-2.07129-5.1001-4.9541-9.53467-8.64746-13.3042-3.69629-3.76953-7.98242-6.79736-12.86035-9.09131-4.87793-2.29004-10.05469-3.43652-15.52148-3.43652-5.4707,0-10.64355,1.14648-15.52148,3.43652-4.87793,2.29395-9.12891,5.32178-12.74902,9.09131-3.62402,3.76953-6.46875,8.2041-8.53711,13.3042-2.07227,5.09961-3.10449,10.38672-3.10449,15.854Z" fill="#231f20" stroke="#a293c7" stroke-miterlimit="10" stroke-width="6"/>
    </g>
  </g>
</svg>