<?xml version="1.0" encoding="UTF-8"?>
<svg xmlns="http://www.w3.org/2000/svg" width="509" height="557" viewBox="0 0 509 557">
  <g id="a" data-name="Layer 4">
    <g>
      <path d="M323.22519,282.43111h17.66v198.11c0,.05.02.1.04.14l45,72.3-63.25-75.29c-.02-.02-.03-.05-.03-.07v-99.52c0-.04.24-3.99.24-8.69,0-1.93-.04-3.99-.16-5.95v-.07l.48-82.19c.01,0,.01-.05.01-.14.01-.07.01-.16.01-.27v1.64Z" fill="#e2e3e4"/>
      <path d="M387.23519,554.14111v.11c0,.1-.12.14-.19.07l-5.86-9.42v-.49l6.05,9.73Z" fill="#3b3b3c"/>
      <path d="M387.26519,554.19111c.07.11.03.27-.08.34-.04.03-.09.04-.13.04-.09,0-.17-.04-.22-.12l-.91-1.47,1.12,1.34c.07.07.19.03.19-.07v-.11l.03.05Z" fill="#231f20"/>
      <polygon points="384.81695 352.44111 387.23519 554.14111 377.48164 544.41111 375.24074 358.27111 384.63961 352.44111 384.81695 352.44111" fill="#3b3b3c"/>
      <polygon points="385.416 314.77111 385.60519 336.39635 385.416 336.39635 378.18907 341.68021 377.21792 342.38889 377.12963 332.26932 378.32781 332.21721 385.416 314.77111" fill="#3b3b3c"/>
      <polygon points="385.21931 288.37111 385.36519 302.9623 377.26225 308.57111 377.12963 296.0082 384.46339 288.37111 385.21931 288.37111" fill="#3b3b3c"/>
      <polygon points="384.68519 248.82111 384.68519 251.60111 384.60519 251.60111 384.58519 248.82111 384.68519 248.82111" fill="#231f20"/>
      <polygon points="384.60519 251.60111 322.60519 251.60111 322.65519 248.82111 384.58519 248.82111 384.60519 251.60111" fill="#231f20"/>
      <polygon points="381.08768 305.90611 381.18519 319.40247 377.01395 331.96615 365.88706 332.56965 346.25519 352.44111 346.60188 336.90384 363.8827 321.36657 381.08768 305.90611" fill="#414142"/>
      <polygon points="379.72519 340.59111 379.85519 357.36111 379.78519 357.36111 379.77519 355.14111 379.66519 355.14111 354.72519 380.09111 349.49519 378.10111 346.79519 382.04111 345.60519 383.78111 343.61519 383.02111 341.38519 386.28111 341.38519 374.55111 378.95519 341.27111 379.72519 340.59111" fill="#414142"/>
      <polygon points="385.59055 335.52111 385.73519 352.44111 385.6128 352.44111 379.12665 358.27111 379.11553 357.36111 379.19341 357.36111 379.04878 340.59111 385.42367 335.52111 385.59055 335.52111" fill="#3b3b3c"/>
      <path d="M381.09741,282.89108l.08777,10.55385h-.71472l-7.28508,8.43438v-5.86929c0-.34781-.01254-.69562-.05016-1.03256,0-.07608-.01254-.16304-.02508-.23912-.02508-.20651-.05016-.42389-.08777-.6304-.01254-.11956-.03762-.23912-.06269-.35868-.02508-.1413-.05016-.27173-.08777-.40215-.08777-.36955-.18808-.7391-.31347-1.0869-.06269-.19564-.13793-.39129-.21316-.57606-.07523-.19564-.16301-.39129-.25078-.57606-.07523-.1739-.15047-.33694-.25078-.49998-.05016-.1413-.12539-.27173-.21316-.40215-.08777-.1739-.18808-.34781-.30093-.51085-.06269-.10869-.12539-.20651-.18808-.30433-.10031-.15217-.21316-.30433-.32601-.4565-.50155-.69562-1.07834-1.34776-1.73036-1.94556h12.01223v-4.09763Z" fill="#414142"/>
      <polygon points="379.78519 357.36111 379.79519 358.27111 357.07519 380.99111 356.38519 380.72111 379.74519 357.36111 379.78519 357.36111" fill="#3b3b3c"/>
      <polygon points="353.91019 379.94517 383.25017 351.84178 383.37457 351.24074 383.38889 354.35983 383.34265 354.35983 356.33784 380.85611 355.12401 380.41375 353.91019 379.94517" fill="#3b3b3c"/>
      <polygon points="378.95519 341.27111 341.38519 374.55111 341.38519 356.77111 341.89519 356.26111 347.79519 350.36111 365.91519 332.25111 376.18519 331.70111 378.88519 331.56111 378.95519 341.27111" fill="#414142"/>
      <path d="M373.37519,295.36111c.03.31.04.63.04.95,0-.32-.01-.64-.04-.95Z" fill="#414142"/>
      <path d="M373.28519,294.56111c.03.19.05.39.07.58-.02-.2-.04-.39-.07-.58Z" fill="#414142"/>
      <path d="M373.28519,294.56111c-.01-.11-.03-.22-.05-.33.02.11.04.22.05.33Z" fill="#414142"/>
      <path d="M373.23519,294.23111c-.02-.13-.04-.25-.07-.37.03.12.05.24.07.37Z" fill="#414142"/>
      <path d="M373.11519,313.34111l-3.63,3.22,3.63-3.22Z" fill="#3b3b3c"/>
      <path d="M372.91519,292.86111c-.05-.18-.11-.36-.17-.53.06.17.12.35.17.53Z" fill="#414142"/>
      <path d="M372.57519,311.89111c.07-.17.13-.34.18-.5-.05.17-.11.34-.18.5Z" fill="#414142"/>
      <path d="M372.74519,292.33111c-.06-.18-.13-.36-.2-.53.07.17.14.35.2.53Z" fill="#414142"/>
      <path d="M372.54519,291.80111c-.06-.16-.12-.31-.2-.46.08.15.14.3.2.46Z" fill="#414142"/>
      <path d="M372.20519,312.74111c.05-.09.09-.18.13-.27-.04.09-.08.18-.13.27Z" fill="#414142"/>
      <path d="M372.17519,290.97111c-.07-.16-.15-.32-.24-.47.09.15.17.31.24.47Z" fill="#414142"/>
      <path d="M371.64519,313.78111c.2-.34.39-.69.56-1.04-.17.36-.36.7-.56,1.04Z" fill="#414142"/>
      <path d="M371.78519,290.22111c-.08-.14-.17-.28-.26-.42.09.14.18.28.26.42Z" fill="#414142"/>
      <path d="M371.32519,314.27111c.11-.16.22-.33.32-.49-.1.17-.21.33-.32.49Z" fill="#414142"/>
      <path d="M371.35519,150.54111l-6.11,5.34s-7.56-5.11-17.12,0l-5.33-5.34s14.28-17.44,28.56,0Z" fill="#595a5c"/>
      <path d="M370.62519,315.21111c.02-.03.04-.05.07-.08-.02.02-.04.05-.07.08Z" fill="#414142"/>
      <path d="M369.79519,287.65111c.11.1.22.21.32.33-.1-.11-.21-.22-.32-.33Z" fill="#414142"/>
      <path d="M369.93519,263.32111c2.23,0,4.03-1.8,4.03-4.03,0-2.22-1.8-4.02-4.03-4.02-2.22,0-4.02,1.8-4.02,4.02,0,2.23,1.8,4.03,4.02,4.03ZM353.52519,263.23111c2.22,0,4.03-1.81,4.03-4.03s-1.81-4.03-4.03-4.03-4.03,1.81-4.03,4.03,1.81,4.03,4.03,4.03ZM337.11519,263.23111c2.22,0,4.02-1.81,4.02-4.03s-1.8-4.03-4.02-4.03c-2.23,0-4.03,1.81-4.03,4.03s1.8,4.03,4.03,4.03ZM384.60519,251.60111l.08,15.39h-.01l-61.45.36h-.85l.23-15.75h62Z" fill="#414142"/>
      <path d="M371.58706,313.15577c.10197-.21812.21668-.43624.30591-.66584.08922-.18368.1657-.37884.22943-.574.54808-1.42353.84125-2.95037.84125-4.53462v-4.61498l7.3163-8.8052.12746,13.93679-7.82614,6.25663-4.62686,3.69658-.08922-.09184c.54808-.44772,1.07068-.94136,1.54229-1.45797.03824-.03444.06373-.06888.08922-.09184.28042-.32144.54808-.64288.80301-.98728.14021-.18368.28042-.36736.40788-.56252.25492-.39032.4971-.78064.71379-1.19393.06373-.10332.11472-.20664.1657-.30996Z" fill="#414142"/>
      <path d="M369.63519,287.49111c.05.04.1.09.15.15l-.15-.15Z" fill="#414142"/>
      <path d="M369.41519,316.48111c-.21.19-.43.38-.66.55.23-.17.45-.36.66-.55Z" fill="#414142"/>
      <path d="M367.86519,317.67111c.22-.14.43-.29.64-.44-.21.16-.42.31-.64.44Z" fill="#414142"/>
      <path d="M367.58519,285.91111c.15.08.3.18.44.28-.14-.1-.29-.19-.44-.28Z" fill="#3b3b3c"/>
      <path d="M367.13519,318.11111c.25-.13.49-.28.73-.44-.24.16-.48.31-.73.44Z" fill="#414142"/>
      <path d="M367.27519,285.73111c.11.05.21.11.31.18-.1-.06-.2-.12-.31-.18Z" fill="#3b3b3c"/>
      <path d="M367.01519,285.58111c-.17-.1-.34-.19-.52-.27.18.08.35.17.52.27Z" fill="#3b3b3c"/>
      <path d="M366.13519,318.61111c.25-.11.5-.23.75-.36-.24.13-.49.25-.75.36Z" fill="#414142"/>
      <path d="M365.21519,318.98111c.31-.11.62-.23.92-.37-.3.14-.6.26-.92.37Z" fill="#414142"/>
      <path d="M365.20519,284.78111c.1.03.2.07.3.11-.1-.04-.2-.08-.3-.11Z" fill="#3b3b3c"/>
      <path d="M365.51519,209.02111c.01.03.02.05.02.08v.01c-.32.44-9.22,12.65-17.74-.01.06-.15.1-.3.14-.46,0,0,.01-.01,0-.02.04-.11.06-.23.08-.35.03-.11.04-.23.06-.34.01-.08.02-.17.02-.25.02-.19.03-.38.03-.58v-51.22c9.56-5.11,17.12,0,17.12,0v51.22c0,.24.01.48.04.72.02.18.04.37.08.55v.02c.04.21.09.42.15.63Z" fill="#764d29"/>
      <path d="M364.24519,284.49111c.16.04.31.08.47.13-.15-.05-.31-.09-.47-.13Z" fill="#414142"/>
      <path d="M363.71519,319.39111c-.14.04-.28.06-.42.09l.42-.09Z" fill="#414142"/>
      <path d="M363.65519,284.35111c.02,0,.04.01.06.02-.02-.01-.04-.01-.06-.02Z" fill="#3b3b3c"/>
      <path d="M363.40519,284.30111c.05.01.09.02.13.03-.04-.01-.09-.02-.13-.03Z" fill="#414142"/>
      <path d="M359.623,319.03547c5.07756-2.19035,8.51121-6.46523,8.51121-11.37499v-11.76651c0-4.90976-3.43365-9.18465-8.51121-11.37499v-1.40732c7.80857.94174,13.77438,6.30651,13.77438,12.78232v11.76651c0,6.47581-5.9658,11.84058-13.77438,12.78232v-1.40732Z" fill="#3b3b3c"/>
      <path d="M362.60519,285.45563c3.83,2.07704,6.42,6.13078,6.42,10.78656v11.15782c0,4.65578-2.59,8.70952-6.42,10.78656v1.33452c5.89-.89303,10.39-5.98027,10.39-12.12109v-11.15782c0-6.14082-4.5-11.22806-10.39-12.12109v1.33452ZM363.26519,319.48111c-.34.06-.67.1-1.01.13v-27.21c0-.14-.01-.28-.02-.41-.01-.11-.03-.22-.05-.32l.07-.01v-7.51c.18.02.36.03.54.06.21.02.41.05.61.09.04.01.09.02.13.03.04,0,.08.01.12.02.02.01.04.01.06.02.18.03.36.07.53.12.16.04.32.08.47.13.17.05.33.1.49.16.1.03.2.07.3.11.34.12.67.26.99.42.18.08.35.17.52.27.09.04.18.09.26.15.11.06.21.12.31.18.15.09.3.18.44.28.58.38,1.11.82,1.61,1.3l.15.15.01.01c.11.11.22.22.32.33.02.01.03.02.03.03.52.55.98,1.15,1.38,1.79.09.14.18.28.26.42.05.09.1.18.15.28.09.15.17.31.24.47.07.12.13.24.17.37.08.15.14.3.2.46.07.17.14.35.2.53.06.17.12.35.17.53.1.32.18.66.25,1,.03.12.05.24.07.37.02.11.04.22.05.33.03.19.05.38.07.58.01.07.02.15.02.22.03.31.04.63.04.95v11.13c0,1.38-.23,2.71-.66,3.95-.05.16-.11.33-.18.5-.07.2-.16.39-.24.58-.04.09-.08.18-.13.27-.17.35-.36.7-.56,1.04-.1.16-.21.33-.32.49-.2.3-.41.58-.63.86-.03.03-.05.05-.07.08-.37.45-.78.88-1.21,1.27-.21.19-.43.38-.66.55-.08.07-.16.14-.25.2-.21.15-.42.3-.64.44-.24.16-.48.31-.73.44-.08.05-.16.1-.25.14-.25.13-.5.25-.75.36-.3.14-.61.26-.92.37-.48.17-.98.31-1.5.41l-.42.09h-.03Z" fill="#414142"/>
      <path d="M363.26519,319.48111c-.33.06-.67.11-1.01.13.34-.03.67-.07,1.01-.13Z" fill="#414142"/>
      <path d="M362.25519,284.15111c.18.01.36.03.54.06-.18-.03-.36-.04-.54-.06Z" fill="#3b3b3c"/>
      <path d="M361.64289,284.21221c-.18923-.03001-.37847-.05001-.5677-.06001v-1.72034h24.10641v-3.77075l.07359,9.71193h-.59924l-5.81371,7.38146-6.03449,7.67152v-1.71034l6.10808-7.76154h.59924l-.07359-9.71193v3.77075h-10.0715c0-.01-.01051-.02-.03154-.03001-.10513-.12002-.22077-.23005-.33642-.33007l-.01051-.01c-.05257-.06001-.10513-.11002-.1577-.15003-.52565-.4801-1.08284-.92018-1.6926-1.30026-.14718-.10002-.30488-.20004-.46257-.28006-.10513-.07001-.21026-.13003-.3259-.18004-.0841-.06001-.17872-.11002-.27334-.15003-.17872-.10002-.35744-.19004-.54668-.27005-.33642-.16003-.68335-.30006-1.04079-.42008-.10513-.04001-.21026-.08002-.31539-.11002-.16821-.06001-.33642-.11002-.51514-.16003-.16821-.05001-.3259-.09002-.49411-.13003-.17872-.05001-.36796-.09002-.55719-.12002-.02103-.01-.04205-.02-.06308-.02-.04205-.01-.0841-.02-.12616-.02-.04205-.01-.0841-.02-.13667-.03001-.21026-.04001-.42052-.07001-.6413-.09002Z" fill="#3b3b3c"/>
      <path d="M362.25519,319.61111v.03c-.17.01-.35.01-.53.01.04-.01.07-.01.1-.01.14,0,.29-.01.43-.03Z" fill="#3b3b3c"/>
      <path d="M362.25519,307.45111v10.42c-.35.01-.7.02-1.06.02h-5.15c-.63,0-1.24-.02-1.84-.06v-10.33c0,.03,0,.07.01.1,0,.11,0,.21.02.31.01.14.03.27.06.4.05.24.13.47.22.69.15.37.37.72.63,1.03.08.1.16.19.25.27.73.73,1.73,1.18,2.84,1.18,2.22,0,4.02-1.81,4.02-4.03Z" fill="#414142"/>
      <path d="M362.18519,291.67111c.02.1.04.21.05.32-.01-.11-.03-.21-.05-.32Z" fill="#414142"/>
      <path d="M362.10519,291.32111c.04.11.06.23.08.35-.02-.12-.05-.23-.08-.35Z" fill="#414142"/>
      <path d="M361.99519,290.99111c.05.11.08.22.11.33-.03-.11-.07-.22-.11-.33Z" fill="#414142"/>
      <path d="M361.90519,290.77111c-.04-.1-.08-.2-.14-.29.05.09.1.19.14.29Z" fill="#414142"/>
      <path d="M361.82519,319.64111c-.03,0-.06,0-.1.01-.17.01-.35.01-.53.01.21,0,.42-.01.63-.02Z" fill="#3b3b3c"/>
      <path d="M361.64519,284.11111c.06,0,.12.01.18.01-.06-.01-.12-.01-.18-.01Z" fill="#414142"/>
      <path d="M361.76519,290.48111c-.06-.12-.12-.23-.2-.33.07.11.14.22.2.33Z" fill="#414142"/>
      <path d="M361.56519,290.15111c-.07-.11-.15-.21-.23-.31.09.1.16.2.23.31Z" fill="#414142"/>
      <path d="M361.07519,289.55111c.08.08.16.16.23.25-.07-.09-.15-.17-.23-.25Z" fill="#414142"/>
      <path d="M360.14519,288.86111c.34.18.66.41.93.69-.27-.27-.59-.51-.93-.69Z" fill="#414142"/>
      <path d="M359.94519,288.76111c.07.02.13.06.2.1-.06-.04-.13-.07-.2-.1Z" fill="#414142"/>
      <path d="M359.79519,288.69111c-.12-.05-.24-.1-.37-.14.13.04.25.08.37.14Z" fill="#414142"/>
      <path d="M359.42519,288.55111c-.08-.02-.16-.05-.25-.07.09.02.17.04.25.07Z" fill="#414142"/>
      <path d="M359.17519,288.48111c-.07-.02-.14-.03-.22-.04.08.01.15.02.22.04Z" fill="#414142"/>
      <path d="M358.61519,288.39111c.12.01.23.02.34.05-.11-.03-.23-.04-.34-.05Z" fill="#414142"/>
      <polygon points="357.07519 380.99111 356.37519 380.73111 356.38519 380.72111 357.07519 380.99111" fill="#3b3b3c"/>
      <polygon points="356.38519 380.72111 356.37519 380.73111 355.33519 380.33111 356.38519 380.72111" fill="#414142"/>
      <polygon points="354.72519 380.09111 355.33519 380.33111 356.37519 380.73111 357.07519 380.99111 379.79519 358.27111 381.18519 544.41111 341.38519 480.47111 341.38519 389.95111 345.60519 383.78111 346.79519 382.04111 351.12519 383.69111 354.72519 380.09111" fill="#414142"/>
      <path d="M361.19519,317.73636c.36,0,.71-.01087,1.06-.02175v1.89213c-.14.02175-.29.03262-.43.03262-.21.01087-.42.02175-.63.02175h-5.23c-.29,0-.57-.01087-.85-.0435-.31-.02175-.61-.05437-.91-.10874v-1.83776c.6.0435,1.21.06525,1.84.06525h5.15Z" fill="#3b3b3c"/>
      <path d="M356.04519,284.10111c-.32,0-.62.01-.93.04.31-.03.62-.04.93-.04Z" fill="#414142"/>
      <path d="M355.40519,295.26111c.27.27.57.49.91.67-.34-.17-.64-.4-.91-.67Z" fill="#414142"/>
      <path d="M355.11519,319.62111c.28.03.56.04.85.04-.29,0-.57-.01-.85-.04Z" fill="#3b3b3c"/>
      <path d="M355.14519,310.03111c.08.09.16.18.25.27-.09-.08-.17-.17-.25-.27Z" fill="#414142"/>
      <path d="M361.19519,284.10111c.15,0,.3,0,.45.01.06,0,.12,0,.18.01.14,0,.29.01.43.03v7.51l-.07.01c-.02-.12-.04-.24-.08-.35-.03-.11-.06-.22-.11-.33-.02-.08-.05-.15-.09-.22-.04-.1-.09-.2-.14-.29-.06-.11-.13-.22-.2-.33s-.14-.21-.23-.31c-.01-.02-.02-.03-.03-.04-.07-.09-.15-.17-.23-.25-.27-.28-.59-.51-.93-.69-.07-.04-.13-.08-.2-.1-.05-.03-.1-.05-.15-.07-.12-.06-.24-.1-.37-.14-.08-.03-.16-.05-.25-.07-.07-.02-.14-.03-.22-.04-.11-.03-.22-.04-.34-.05s-.25-.02-.38-.02c-2.23,0-4.03,1.8-4.03,4.03v-6.11c.38.02.77.03,1.16.03h5.15c.36,0,.71-.01,1.06-.03v-1.76c-.35.01-.7.02-1.06.02h-5.15c-.39,0-.78-.01-1.16-.03v-.28c.3-.05.6-.08.91-.1.31-.03.61-.04.93-.04h5.15Z" fill="#414142"/>
      <path d="M361.20519,307.45111c0-1.64-1.33-2.98-2.97-2.98-1.65,0-2.98,1.34-2.98,2.98s1.33,2.98,2.98,2.98c1.64,0,2.97-1.34,2.97-2.98ZM362.25519,307.45111c0,2.22-1.8,4.03-4.02,4.03-1.11,0-2.11-.45-2.84-1.18-.09-.09-.17-.18-.25-.27-.26-.31-.48-.66-.63-1.03-.09-.22-.16-.45-.22-.69-.03-.13-.05-.26-.06-.4-.01-.1-.02-.21-.02-.31-.01-.03-.01-.07-.01-.1v-.05c0-2.22,1.8-4.03,4.03-4.03,2.22,0,4.02,1.81,4.02,4.03Z" fill="#414142"/>
      <path d="M361.20519,292.40111c0-1.65-1.33-2.98-2.97-2.98-1.65,0-2.98,1.33-2.98,2.98,0,1.64,1.33,2.97,2.98,2.97,1.64,0,2.97-1.33,2.97-2.97ZM362.25519,292.40111c0,2.22-1.8,4.02-4.02,4.02-.7,0-1.35-.18-1.92-.49-.34-.18-.64-.4-.91-.67-.2-.2-.38-.41-.53-.65-.07-.09-.13-.19-.18-.3-.07-.11-.12-.23-.17-.35-.05-.1-.09-.21-.12-.33-.01-.02-.02-.04-.02-.06-.08-.22-.13-.46-.15-.71-.01-.1-.02-.21-.02-.31-.01-.03-.01-.07-.01-.1v-.05c0-2.23,1.8-4.03,4.03-4.03.13,0,.26.01.38.02.11.01.23.02.34.05.08.01.15.02.22.04.09.02.17.05.25.07.13.04.25.09.37.14.05.02.1.04.15.07.07.03.14.06.2.1.34.18.66.42.93.69.08.08.16.16.23.25.01.01.02.02.03.04.08.1.16.2.23.31.08.1.14.21.2.33.06.09.1.19.14.29.04.07.07.14.09.22.04.11.08.22.11.33.03.12.06.23.08.35.02.11.04.21.05.32.01.13.02.27.02.41Z" fill="#414142"/>
      <path d="M355.11519,319.62111c.28.03.56.04.85.04-.6,0-1.19-.02-1.76-.06v-.08c.3.05.6.08.91.1Z" fill="#3b3b3c"/>
      <path d="M355.11519,284.14111c-.31.02-.61.05-.91.1.3-.05.6-.08.91-.1Z" fill="#414142"/>
      <path d="M354.20519,319.52111c.3.05.6.08.91.1-.31-.02-.61-.05-.91-.1Z" fill="#3b3b3c"/>
      <polygon points="354.90741 380.0164 351.09908 384.16667 346.51852 382.26446 349.37476 377.72222 354.90741 380.0164" fill="#3b3b3c"/>
      <path d="M354.69519,294.31111c.05.11.11.21.18.3-.07-.09-.13-.19-.18-.3Z" fill="#414142"/>
      <path d="M354.52519,293.96111c.05.12.1.24.17.35-.06-.11-.12-.23-.17-.35Z" fill="#414142"/>
      <path d="M354.29519,308.31111c.06.24.13.47.22.69-.09-.22-.17-.45-.22-.69Z" fill="#414142"/>
      <path d="M354.38519,293.57111c0,.02.01.04.02.06-.01-.01-.02-.03-.02-.06Z" fill="#414142"/>
      <path d="M354.21519,292.55111c0,.1.01.21.02.31-.02-.1-.02-.2-.02-.31Z" fill="#414142"/>
      <path d="M354.21519,307.60111c0,.1.01.21.02.31-.02-.1-.02-.2-.02-.31Z" fill="#414142"/>
      <path d="M362.25519,292.40111v15.05c0-2.22-1.8-4.03-4.02-4.03-2.23,0-4.03,1.81-4.03,4.03v-15c0,.03,0,.07.01.1,0,.11,0,.21.02.31.02.25.07.49.15.71,0,.03.01.05.02.06.03.12.07.23.12.33.05.12.11.24.17.35.05.11.11.21.18.3.15.24.33.45.53.65.27.27.57.5.91.67.57.31,1.22.49,1.92.49,2.22,0,4.02-1.8,4.02-4.02Z" fill="#414142"/>
      <path d="M354.20519,292.40111v25.79c-3.82-2.07-6.41-6.11-6.41-10.75v-11.12c0-4.36,2.29-8.19,5.73-10.35v.29c.22.01.45.02.68.03v6.11Z" fill="#414142"/>
      <path d="M354.20519,285.57111v.72c-.23-.01-.46-.02-.68-.03v-.29c.22-.14.45-.27.68-.4Z" fill="#3b3b3c"/>
      <path d="M353.52519,285.97111v-1.48c.22.01.45.03.68.03v1.05c-.23.13-.46.26-.68.4Z" fill="#3b3b3c"/>
      <path d="M353.65519,284.34111c-.05.01-.1.02-.16.03.06-.02.11-.03.16-.03Z" fill="#414142"/>
      <path d="M353.11519,319.30111c.18.05.36.09.54.12-.18-.03-.36-.07-.54-.12Z" fill="#414142"/>
      <path d="M353.49519,284.37111c-.11.02-.22.05-.33.08.11-.04.22-.06.33-.08Z" fill="#414142"/>
      <path d="M354.16125,285.59314c-3.78787,2.19721-6.30944,6.09319-6.30944,10.5283v11.31157c0,4.71993,2.85191,8.82953,7.0582,10.93519v1.35291c-.1982-.03052-.3964-.06103-.60562-.10172-.1982-.03052-.3964-.07121-.59461-.12207-.1982-.04069-.3964-.09155-.59461-.14241-.18719-.05086-.37438-.11189-.56157-.17293-.18719-.05086-.37438-.12207-.55056-.1831-.0991-.03052-.1982-.07121-.2973-.11189-.06607-.03052-.14315-.06103-.20921-.08138-.56157-.23396-1.10112-.49844-1.61865-.78326-.33034-.19327-.66067-.39672-.96899-.61034-.18719-.13224-.36337-.25431-.52854-.38655s-.33034-.25431-.49551-.39672c-.15416-.13224-.30831-.26448-.46247-.40689s-.2973-.28482-.44045-.42724c-.15416-.15258-.2973-.30517-.42944-.45775s-.26427-.30517-.3964-.46792c-.26427-.31534-.50652-.65103-.72674-.98671-.01101-.02034-.02202-.04069-.04404-.06103-.2973-.46792-.56157-.94602-.80382-1.45463-.01101-.03052-.02202-.06103-.04404-.10172-.08809-.1831-.16517-.3662-.24225-.55947s-.14315-.38655-.20921-.57982-.12112-.38655-.17618-.58999c-.06607-.19327-.11011-.39672-.15416-.60016l-.0991-.48827c-.05506-.28482-.08809-.56965-.12112-.86464-.03303-.37637-.05506-.76292-.05506-1.14947v-11.31157c0-.38655.02202-.77309.05506-1.14947.03303-.295.06607-.57982.12112-.86464l.0991-.48827c.04404-.20345.08809-.40689.15416-.60016.05506-.20345.11011-.39672.17618-.58999s.13213-.38655.20921-.57982.15416-.37637.24225-.55947c.02202-.04069.03303-.07121.04404-.10172.24225-.50861.50652-.98671.80382-1.45463.02202-.02034.03303-.04069.04404-.06103.22022-.33568.46247-.67137.72674-.98671.13213-.16276.26427-.31534.3964-.46792.14315-.15258.27528-.30517.42944-.45775.14315-.14241.28629-.28482.44045-.42724s.30831-.27465.46247-.40689c.16517-.14241.33034-.26448.49551-.39672s.34135-.26448.52854-.38655c.30831-.21362.63865-.41706.96899-.61034.51753-.295,1.05708-.55947,1.61865-.78326.06607-.02034.14315-.05086.20921-.08138.0991-.04069.1982-.08138.2973-.11189.17618-.06103.36337-.13224.55056-.1831.18719-.06103.37438-.12207.56157-.17293.22022-.06103.44045-.11189.64966-.15258.12112-.03052.24225-.06103.36337-.08138.06607-.01017.12112-.02034.17618-.03052.20921-.04069.40742-.07121.60562-.10172v.28482c-.25326,0-.50652-.02034-.74876-.03052v1.5055Z" fill="#3b3b3c"/>
      <path d="M352.57519,284.60111c-.17.05-.34.11-.51.17.17-.07.34-.12.51-.17Z" fill="#414142"/>
      <path d="M352.06519,318.99111c.17.06.34.12.51.17-.17-.05-.34-.1-.51-.17Z" fill="#414142"/>
      <path d="M352.06519,284.77111c-.17.05-.34.12-.5.18.16-.07.33-.13.5-.18Z" fill="#414142"/>
      <path d="M351.56519,318.81111c.16.06.33.13.5.18-.17-.05-.34-.11-.5-.18Z" fill="#414142"/>
      <path d="M351.10519,318.62111c.06.02.13.05.19.08-.06-.02-.13-.05-.19-.08Z" fill="#414142"/>
      <path d="M351.10519,285.14111c.06-.03.13-.06.19-.08-.06.03-.13.06-.19.08Z" fill="#414142"/>
      <path d="M349.63519,285.91111c-.3.19-.6.39-.88.6.28-.21.58-.41.88-.6Z" fill="#3b3b3c"/>
      <path d="M348.75519,317.25111c.28.21.58.41.88.6-.3-.19-.6-.39-.88-.6Z" fill="#3b3b3c"/>
      <path d="M348.27519,286.89111c-.15.13-.3.25-.45.39.15-.14.29-.27.45-.39Z" fill="#3b3b3c"/>
      <path d="M347.82519,316.48111c.15.14.3.26.45.39-.16-.12-.3-.25-.45-.39Z" fill="#3b3b3c"/>
      <polygon points="348.12519 335.55111 348.11519 336.20111 347.79519 350.36111 348.12519 335.55111" fill="#414142"/>
      <polygon points="361.75089 322.04111 344.07519 336.20111 344.08627 335.55111 344.08627 335.53111 344.08627 335.52111 367.75731 316.56111 371.78006 313.34111 378.58438 307.89111 385.35545 302.47111 385.45519 314.77111 379.22713 331.51111 378.17434 331.56111 375.18222 331.70111 379.44877 320.25111 379.34903 307.95111 361.75089 322.04111" fill="#3b3b3c"/>
      <polygon points="348.12519 335.55111 347.79519 350.36111 341.89519 356.26111 341.38519 356.26111 341.38519 341.51111 348.12519 335.53111 348.12519 335.55111" fill="#414142"/>
      <path d="M348.07519,207.93111c.01-.08.02-.17.02-.25,0,.08-.01.17-.02.25Z" fill="#764d29"/>
      <path d="M347.93519,208.62111c.04-.12.06-.23.08-.35-.02.12-.04.24-.08.35Z" fill="#764d29"/>
      <path d="M347.79519,209.10111c.05-.15.1-.31.14-.46-.04.16-.08.31-.14.46Z" fill="#764d29"/>
      <path d="M347.79519,209.10111c8.52,12.66,17.42.45,17.74.01h.01c.06.2.12.4.2.59.06.15.12.3.19.45.03.07.07.15.11.22.07.15.15.29.24.43,0,.02.01.03.02.04.09.14.18.28.28.41.04.05.08.11.12.16.12.15.25.3.38.43l5.44,5.48c1.19,1.2,1.19,3.05-.01,4.25l-8.44,8.61v7.51h-15.95v-7.51l-7.88-8.61c-1-1.13-.96-2.92.09-3.99l5.8-5.9c.16-.16.32-.33.45-.5.12-.14.23-.27.33-.41.03-.04.06-.08.09-.13.12-.17.23-.33.32-.5l.01-.01c.09-.17.18-.34.26-.51s.15-.35.2-.52Z" fill="#595a5c"/>
      <path d="M347.40519,287.68111c-.14.14-.27.28-.4.42.13-.14.26-.28.4-.42Z" fill="#3b3b3c"/>
      <path d="M347.00519,315.66111c.13.14.26.28.4.42-.14-.14-.27-.28-.4-.42Z" fill="#3b3b3c"/>
      <path d="M347.00519,288.10111c-.14.15-.26.3-.39.45.13-.16.26-.3.39-.45Z" fill="#3b3b3c"/>
      <path d="M346.61519,288.55111c-.12.15-.24.3-.36.46.11-.16.23-.31.36-.46Z" fill="#3b3b3c"/>
      <path d="M346.25519,314.75111c.12.16.24.31.36.46-.13-.15-.25-.3-.36-.46Z" fill="#3b3b3c"/>
      <path d="M346.25519,289.01111c-.24.31-.46.64-.66.97.2-.33.42-.66.66-.97Z" fill="#3b3b3c"/>
      <path d="M345.59519,313.78111c.2.33.42.66.66.97-.24-.31-.46-.64-.66-.97Z" fill="#3b3b3c"/>
      <polygon points="344.24402 382.04111 346.79519 382.90859 341.38519 389.95111 341.38519 385.76212 344.24402 382.04111" fill="#414142"/>
      <path d="M344.82519,291.47111c.21-.49.45-.97.73-1.43-.27.46-.51.93-.73,1.43Z" fill="#3b3b3c"/>
      <path d="M345.55519,313.72111c-.28-.46-.52-.94-.73-1.43.22.5.46.97.73,1.43Z" fill="#3b3b3c"/>
      <path d="M344.78519,291.57111c-.08.18-.15.36-.22.55.07-.18.14-.37.22-.55Z" fill="#3b3b3c"/>
      <path d="M344.56519,311.64111c.07.19.14.37.22.55-.08-.18-.15-.37-.22-.55Z" fill="#3b3b3c"/>
      <path d="M344.56519,292.12111c-.07.19-.13.38-.19.57.06-.19.12-.38.19-.57Z" fill="#3b3b3c"/>
      <path d="M344.37519,292.69111c-.06.19-.11.38-.16.58.04-.2.1-.39.16-.58Z" fill="#3b3b3c"/>
      <path d="M344.21519,310.49111c.05.2.1.39.16.58-.06-.19-.12-.38-.16-.58Z" fill="#3b3b3c"/>
      <path d="M344.07519,293.86111l-.09.48c.03-.16.05-.32.09-.48Z" fill="#3b3b3c"/>
      <path d="M343.98519,309.42111l.09.48c-.04-.16-.06-.32-.09-.48Z" fill="#3b3b3c"/>
      <path d="M343.87519,295.19111c-.03.37-.05.75-.05,1.13,0-.38.02-.76.05-1.13Z" fill="#3b3b3c"/>
      <path d="M343.82519,307.44111c0,.38.02.76.05,1.13-.03-.37-.05-.75-.05-1.13Z" fill="#3b3b3c"/>
      <path d="M341.38519,282.43111h20.87v1.72c-.14-.02-.29-.03-.43-.03-.06,0-.12-.01-.18-.01-.15-.01-.3-.01-.45-.01h-5.15c-.31,0-.62.01-.93.04-.31.02-.61.05-.91.1-.18.03-.36.06-.55.1-.05,0-.1.01-.16.03-.11.02-.22.04-.33.08-.19.04-.39.09-.59.15-.17.05-.34.1-.51.17-.17.05-.34.11-.5.18-.09.03-.18.07-.27.11-.06.02-.13.05-.19.08-.51.22-1,.48-1.47.77-.3.19-.6.39-.88.6-.17.12-.33.25-.48.38-.16.12-.3.25-.45.39-.14.13-.28.26-.42.4s-.27.28-.4.42c-.13.15-.26.29-.39.45-.13.15-.25.3-.36.46-.24.31-.46.64-.66.97-.01.02-.02.04-.04.06-.28.46-.52.94-.73,1.43-.01.03-.02.06-.04.1-.08.18-.15.37-.22.55-.07.19-.13.38-.19.57s-.12.38-.16.58c-.06.19-.1.39-.14.59-.04.16-.06.32-.09.48-.05.28-.08.56-.11.85-.03.37-.05.75-.05,1.13v11.12c0,.38.02.76.05,1.13.03.29.06.57.11.85.03.16.05.32.09.48.04.2.08.4.14.59.04.2.1.39.16.58s.12.38.19.57c.07.18.14.37.22.55.02.04.03.07.04.1.21.49.45.97.73,1.43.02.02.03.04.04.06.2.33.42.66.66.97.11.16.23.31.36.46.12.15.25.3.39.45.13.14.26.28.4.42s.28.27.42.4c.15.14.29.27.45.39.15.13.31.25.48.38.28.21.58.41.88.6.47.28.96.54,1.47.77.06.03.13.06.19.08.09.04.18.08.27.11.16.07.33.13.5.18.17.07.34.12.51.17.18.05.36.1.54.14.18.05.36.09.54.12.19.04.37.07.55.1v.14l-12.24,12.23h-.58v-49.46Z" fill="#414142"/>
      <path d="M369.48519,316.56111l-21.36,18.96v.01l-6.74,5.98v-9.62h.58l12.24-12.23v-.06c.57.04,1.16.06,1.76.06h5.23c.18,0,.36,0,.53-.01.18,0,.36,0,.53-.01v-.03c.34-.02.68-.07,1.01-.13h.03c.14-.03.28-.05.42-.09.52-.1,1.02-.24,1.5-.41.32-.11.62-.23.92-.37.26-.11.51-.23.75-.36.09-.04.17-.09.25-.14.25-.13.49-.28.73-.44.22-.13.43-.28.64-.44.09-.06.17-.13.25-.2.23-.17.45-.36.66-.55l.07.08Z" fill="#414142"/>
      <polygon points="341.89519 356.26111 341.38519 356.77111 341.38519 356.26111 341.89519 356.26111" fill="#3b3b3c"/>
      <polygon points="341.38519 386.28111 341.38519 389.95111 341.13519 390.32111 341.13519 386.65111 341.38519 386.28111" fill="#414142"/>
      <polygon points="341.38519 374.55111 341.38519 386.28111 341.13519 386.65111 341.13519 374.77111 341.38519 374.55111" fill="#231f20"/>
      <polygon points="341.38519 356.77111 341.38519 374.55111 341.13519 374.77111 341.13519 357.02111 341.38519 356.77111" fill="#231f20"/>
      <polygon points="341.38519 341.51111 341.38519 356.26111 341.13519 356.26111 341.13519 341.73111 341.38519 341.51111" fill="#231f20"/>
      <path d="M341.38519,282.43111h-.5c0-.13.12-.25.25-.25.14,0,.25.12.25.25Z" fill="#231f20"/>
      <rect x="341.13519" y="282.43111" width=".25" height="49.46" fill="#231f20"/>
      <polygon points="341.13519 331.89111 341.38519 331.89111 341.38519 341.51111 341.13519 341.73111 341.13519 331.89111" fill="#231f20"/>
      <polygon points="341.13519 356.26111 341.38519 356.26111 341.38519 356.77111 341.13519 357.02111 341.13519 356.26111" fill="#3b3b3c"/>
      <polygon points="341.13519 480.54111 341.13519 390.32111 341.38519 389.95111 341.38519 480.47111 381.18519 544.41111 381.18519 544.90111 341.13519 480.54111" fill="#231f20"/>
      <path d="M341.13519,390.32111v90.22l40.05,64.36,5.86,9.42-1.12-1.34-45-72.3c-.02-.04-.04-.09-.04-.14v-198.11h.25v107.89Z" fill="#231f20"/>
      <path d="M323.22519,278.66111c.04,0,.02,1.41,0,2.13v-2.13Z" fill="#231f20"/>
      <path d="M323.22519,278.66111h61.96v3.77h-43.8c0-.13-.11-.25-.25-.25-.13,0-.25.12-.25.25h-17.66v-1.64c.02-.72.04-2.13,0-2.13Z" fill="#231f20"/>
      <path d="M385.18519,278.66111c0-.06-.05,0,0,0h-61.96l-9.66-.23-.1-11.08h9.76l61.45-.36c-.04.01.01.06.01,0l9.44.11.23,11.56h-9.17Z" fill="#818385"/>
      <path d="M323.20519,280.88111c0,.07,0,.13.01.18,0,.09,0,.14-.01.14v-.32Z" fill="#a293c7"/>
      <path d="M384.58519,248.82111h-61.93v-.02l.19-.28c.03-.05-.03-.06-.09-.04-.02,0-.04.01-.05.02s-.02.01-.03.02h-8.34c-.97,0-1.76-.79-1.76-1.77v-6.59c0-1.36,1.1-2.47,2.46-2.47h76.52c1.42,0,2.57,1.16,2.57,2.58v7.5c0,.06.09.89.03.89l-9.57.11v.05Z" fill="#818385"/>
      <path d="M321.58519,355.89111c-.81-2.31-2.1-2.94-4.12-.23,0,0-2.67.88-44.89,64.14-19.99,33.61-38.79-1.14-38.82-1.18l-.56-.66c-.14-.18-.31-.38-.51-.62l-1.46-1.76c-.28-.35-.59-.73-.92-1.13l-2.82-3.5c-.84-1.05-1.73-2.18-2.67-3.38-.24-.3-.48-.61-.72-.92-.48-.62-.98-1.26-1.49-1.92-.5-.65-1.02-1.32-1.54-2.01s-1.05-1.39-1.58-2.1l-2.45-3.29c-.55-.75-1.11-1.51-1.66-2.28-.56-.76-1.12-1.54-1.67-2.33-.84-1.18-1.67-2.37-2.5-3.57-.47-.66-.92-1.34-1.38-2.01-1.46-2.16-2.9-4.34-4.27-6.52-.52-.82-1.02-1.64-1.52-2.45-.75-1.22-1.47-2.43-2.16-3.63s-1.35-2.39-1.99-3.57v-.01c-.42-.78-.82-1.56-1.21-2.32-.39-.77-.76-1.53-1.11-2.28s-.69-1.49-1-2.21c-.31-.73-.6-1.44-.88-2.14-.27-.7-.52-1.39-.74-2.06-9.26-15.5-7.77,6.38-7.53,11.26.03.62.03,1.25.01,1.87-.58,19.68,3.04,71.42-3.28,85.44-.01.02-.02.03-.04.04-11.81,9.1-60.56,8.75-58.2-5.87v-195.27c3.57-19.54,32.87-16.58,32.89-16.58l23.03,4.39c.72.32,1.42.65,2.1.99l11.09,7.89c.23.23.46.45.69.68.45.45.89.91,1.31,1.37,6.14,6.7,9.45,13.96,12,18.16,5.63,9.26,32.15,52.45,32.15,52.45,15.33,20.61,28.38-1.67,28.45-1.78l52.76-75.79v2.4h.23l-.23,15.75h-8.91l.1,11.08c-.05,0,0,.06,0,0l9.66.23v2.13c0,.11-.01.2-.01.27-.01-.05-.01-.11-.01-.18v.32l-.48,82.19c-.02-.48-.06-.95-.1-1.41-.02-.31-.05-.61-.08-.91-.09-1.05-.22-2.03-.39-2.92-.02-.13-.04-.26-.07-.38-.1-.5-.21-.96-.33-1.37-.06-.18-.11-.35-.17-.51Z" fill="#a293c7"/>
      <polygon points="322.63519 248.82111 322.37519 249.20111 322.37519 248.82111 322.63519 248.82111" fill="#231f20"/>
      <polygon points="322.65519 248.82111 322.60519 251.60111 322.37519 251.60111 322.37519 249.20111 322.63519 248.82111 322.65519 248.82111" fill="#231f20"/>
      <path d="M322.54519,361.07111c.03.3.06.6.08.91-.02-.31-.05-.61-.08-.91Z" fill="#a293c7"/>
      <path d="M322.15519,358.15111c-.02-.13-.05-.25-.07-.38.03.12.05.25.07.38Z" fill="#a293c7"/>
      <path d="M321.58519,355.89111c.06.16.11.33.17.51-.06-.18-.11-.35-.17-.51Z" fill="#a293c7"/>
      <path d="M232.68519,417.34111c.2.24.37.44.51.62-.14-.18-.31-.38-.51-.62Z" fill="#a293c7"/>
      <path d="M230.30519,414.45111c.33.4.64.78.92,1.13-.29-.35-.6-.73-.92-1.13Z" fill="#a293c7"/>
      <path d="M209.82519,387.14111c.46.67.91,1.35,1.38,2.01-.47-.67-.93-1.34-1.38-2.01Z" fill="#a293c7"/>
      <path d="M195.70519,254.79111c.45.45.89.91,1.31,1.37-.42-.46-.86-.92-1.31-1.37Z" fill="#a293c7"/>
      <path d="M362.59519,284.32831v2.14622c-.43999.02439-.87999.03658-1.33255.03658h-6.47419c-.49028,0-.98056-.01219-1.45826-.03658v-2.15842c.47771.02439.96799.03658,1.45826.03658h6.47419c.45256,0,.89256-.01219,1.33255-.02439Z" fill="#3b3b3c"/>
    </g>
    <path d="M343.19519,502.12112l-20.52002-24.43005c-.02002-.01996-.02997-.04999-.02997-.06995v-99.52002c0-.03998.23999-3.98999.23999-8.69,0-1.92999-.04004-3.98999-.16003-5.95001v-.07001l.47003-80.5h6.89996v198.10004c0,.06.02002.09998.04004.13995l13.06,20.99005Z" fill="#b1b3b6"/>
    <path d="M343.19519,502.12112l-20.52002-24.43005c-.02002-.01996-.02997-.04999-.02997-.06995v-99.52002c0-.03998.23999-3.98999.23999-8.69,0-1.92999-.04004-3.98999-.16003-5.95001v-.07001l.47003-80.5h6.89996v198.10004c0,.06.02002.09998.04004.13995l13.06,20.99005Z" fill="#939598"/>
    <path d="M394.35517,278.6611h-6.01001l-.12-5.72998-9.44-.11005c0,.06-.03998.01001-.00995,0l-61.45001.36005h-3.81l-.04999-5.83002h9.75995l61.45001-.35999c-.03998.01001.01001.06.01001,0l9.44.10999.22998,11.56Z" fill="#636466"/>
    <path d="M372.5152,221.57107l-1.92999,1.97003-3.24005-3.27002c-.12994-.13-.25995-.27997-.37994-.42999-.04004-.04999-.08002-.10999-.12006-.15997-.09998-.13-.19-.27002-.27997-.41003-.01001-.01001-.02002-.01996-.02002-.03998-.08997-.14001-.16998-.28003-.23999-.42999-.03998-.07001-.08002-.15002-.10999-.22003-.07001-.14996-.13-.29999-.19-.45001-.08002-.19-.14001-.38995-.20001-.58997h-.01001c-.32001.44-9.21997,12.64996-17.73999-.01001-.04999.16998-.12.34998-.20001.52002-.07996.16998-.16998.33997-.26001.51001l-.00995.00995c-.09003.17004-.20001.33002-.32001.5-.03003.05005-.06.09003-.09003.13-.09998.14001-.20996.27002-.33002.41003-.12994.16998-.28998.33997-.44995.5l-3.88,3.94-2.27002-2.48004c-1-1.13-.96002-2.91998.09003-3.98999l5.79999-5.89996c.15997-.16003.32001-.33002.45001-.5.12-.14001.22998-.27002.32996-.41003.03003-.03998.06-.08002.09003-.13.12-.16998.22998-.32996.32001-.5l.01001-.01001c.08997-.16998.17999-.33997.25995-.50995.08002-.17004.15002-.35004.20001-.52002,8.52002,12.65997,17.42004.45001,17.73999.01001h.01001c.06.20001.12.39996.20001.58997.06.15002.12.30005.19.45001.03003.07001.07001.15002.10999.22003.07001.14996.15002.28998.23999.42999,0,.01996.01001.02997.02002.03998.09003.14001.17999.28003.28003.41003.03998.04999.07996.10999.12.15997.12.15002.25.29999.38.42999l5.44,5.47998c1.19,1.20001,1.19,3.05005-.01001,4.25Z" fill="#414042"/>
    <path d="M365.53516,209.1011v.01001c-.07996.10999-.65997.89996-1.60999,1.87-.07001-.14001-.13-.29999-.17999-.45001-.09003-.22998-.15997-.46002-.21002-.69l-12.20996-49.75s-1.23004-.46002-3.20001-.63v-3.58002c9.56-5.10999,17.12,0,17.12,0v51.22003c0,.23999.01001.47998.03998.71997.02002.18005.04004.37.08002.55005v.01996c.03998.21002.09003.42004.15002.63.01001.03003.01996.04999.01996.08002Z" fill="#603e1d"/>
    <path d="M371.35517,150.5411l-6.07996,5.31c-8.01001-8.84998-15.92004-7.09003-21.18005-4.01001l-1.29999-1.29999s14.28003-17.44,28.56,0Z" fill="#414042"/>
    <path d="M184.14521,458.52108c-.01001.02002-.02002.03003-.04004.04004-11.77997,9.07996-60.31,8.75-58.20996-5.76001,14.51996,4.03998,39.54999,2.21997,47.56-3.96002.01996-.01001.02997-.02002.03998-.03998,6.32001-14.02002,2.70001-65.76001,3.28003-85.44.01996-.62.01996-1.25-.01001-1.87-.23999-4.88-1.73004-26.76001,7.52997-11.26001.22003.66998.47003,1.35999.73999,2.06.28003.70001.57001,1.40997.88,2.14001.31.71997.65002,1.45996,1,2.20996.22003.47003.45001.94.67999,1.42004-.71997,4.14996-.29999,10.72998-.17999,13.14996.03003.62.03003,1.25.01001,1.87-.58002,19.67999,3.04004,71.42004-3.27997,85.44Z" fill="#655c7e"/>
    <path d="M240.1352,325.09109c-3.03003-1.08002-6.27002-3.52997-9.62-8.03998,0,0-26.52002-43.19-32.15002-52.45001-2.08002-3.42999-4.66998-8.89001-8.88-14.42999l5.53003,3.94c.22998.22998.45996.45001.69.67999.44995.45001.88995.90997,1.31,1.37,6.13995,6.70001,9.45001,13.96002,12,18.15997,4.96997,8.17004,26.19,42.73004,31.12,50.77002Z" fill="#a293c7"/>
    <path d="M323.22516,278.6611v2.13c0,.10999-.00995.20001-.00995.27002-.01001-.05005-.01001-.11005-.01001-.18005v.32001l-.48004,82.19c-.01996-.47998-.06-.95001-.09998-1.40997-.02002-.31-.04999-.60999-.08002-.91003-.08997-1.04999-.21997-2.02997-.39001-2.91998-.01996-.13-.03998-.26001-.06995-.38-.10004-.5-.21002-.95996-.33002-1.37-.06-.17999-.10999-.34998-.16998-.51001-.81-2.31-2.10004-2.94-4.12-.22998,0,0-2.67004.88-44.89001,64.14001-15.33002,25.76996-29.95001,11.34998-35.95001,3.20996,7.01001,3.54004,16.02997,2.66003,25.29999-12.92999,42.22003-63.26001,44.89001-64.14001,44.89001-64.14001,2.02002-2.70996,3.31-2.07996,4.12.23004.06.15997.10999.33002.16998.51001.12.40997.23004.87.33002,1.37.03003.12.04999.25.07001.38.16998.88995.29999,1.87.39001,2.91998.02997.29999.06.59998.07996.90997.04004.46002.08002.92999.10004,1.41003l.47998-82.19v-.32001c0,.07001,0,.13.01001.17999,0-.07001.01001-.15997.01001-.27002v-2.13l-3.88-.08997,13.67999-19.65002v2.40002h.22998l-.22998,15.75h-8.90997l.09998,11.08002,9.65997.22998Z" fill="#655c7e"/>
    <polygon points="351.04517 365.99112 371.53516 347.84109 352.74518 366.64108 351.04517 365.99112" fill="#f2f2f3"/>
    <polygon points="375.02832 344.72699 352.86383 366.76465 350.05084 366.56813 375.02832 344.72699" fill="#3b3b3c"/>
  </g>
  <g id="b" data-name="outline">
    <line x1="322.37034" y1="267.35251" x2="384.68085" y2="266.99042" fill="none" stroke="#231f20" stroke-miterlimit="10" stroke-width="4"/>
    <path d="M322.64815,378.10153l.55661-97.22116c0,1.3857.07606-2.22404.01685-2.22404l-9.65187-.22147c-.05897,0,0,.05897,0,0l-.10678-11.08235h9.75864" fill="none" stroke="#231f20" stroke-miterlimit="10" stroke-width="4"/>
    <path d="M322.8407,248.51903h-8.50232c-.9744,0-1.76431-.78991-1.76431-1.76431v-6.59764c0-1.36026,1.10271-2.46296,2.46296-2.46296h76.51852c1.42162,0,2.57407,1.15245,2.57407,2.57407v7.5c0,.05897.08518.88889.02621.88889l-9.5717.11342c-.04142.04164.04142-.04164,0,0l.09672,18.21992c0,.05897-.05897,0,0,0l9.44878.10678c.05897,0,0-.05897,0,0l.22222,11.55914c0,.05658.05648-.00327,0,0h-9.1636c-.05679.00329-.00042-.05688,0,0l2.05027,275.5931c.00075.10005-.12417.14609-.18853.06948l-64.37683-76.63205c-.01616-.01924-.02502-.04356-.02502-.06868v-99.51351l.00002-.00348c.0071-.11835,1.9127-31.98193-5.18521-22.44411,0,0-2.66667.88889-44.88889,64.14815-19.98819,33.60977-38.7926-1.1441-38.8148-1.18515-.00044-.0007.00039.00062-.00004-.00007-.03104-.04296-31.6296-37.18515-38.81479-58.66663-9.25926-15.4996-7.77356,6.37596-7.53135,11.25312.03109.626.03466,1.25115.01604,1.87765-.58494,19.67842,3.03236,71.42016-3.28868,85.43792-.0073.01619-.01767.02924-.03175.04008-11.81418,9.09453-60.56553,8.74495-58.20129-5.86801l-.00005-195.24822.00194-.02127c3.56287-19.53863,32.86999-16.58409,32.88699-16.58238h.00054c35.2588.00026,44.59208,24.22227,50.22168,33.48148s32.14815,52.44444,32.14815,52.44444c15.3295,20.61779,28.38257-1.67186,28.44422-1.77741l.00238-.00347,53.22743-76.46829c.05874-.085-.18678-.04533-.18412.05796l-.28624,18.77552" fill="none" stroke="#231f20" stroke-miterlimit="10" stroke-width="4"/>
    <path d="M365.24074,155.87931v51.22004c0,1.6711.66131,3.55628,1.83949,4.74139l5.44537,5.47741c1.19281,1.19983,1.18742,3.05724-.01204,4.25042l-8.43949,8.6163v7.50926" fill="none" stroke="#231f20" stroke-miterlimit="10" stroke-width="4"/>
    <path d="M348.12963,237.69412v-7.50926l-7.88559-8.6163c-1.00195-1.12287-.9607-2.91266.0943-3.98585l5.80054-5.90055c1.27582-1.29782,1.99075-2.76291,1.99075-4.58282v-51.22004" fill="none" stroke="#231f20" stroke-miterlimit="10" stroke-width="4"/>
    <path d="M347.7996,209.10279c8.66825,12.88763,17.73639,0,17.73639,0" fill="none" stroke="#231f20" stroke-miterlimit="10" stroke-width="4"/>
    <path d="M365.24074,155.87931l6.11111-5.33333c-14.27778-17.44444-28.55556,0-28.55556,0l5.33333,5.33333c9.55556-5.11111,17.11111,0,17.11111,0Z" fill="none" stroke="#231f20" stroke-miterlimit="10" stroke-width="4"/>
    <rect x="323.22161" y="278.65634" width="61.96665" height="3.77928" fill="none" stroke="#231f20" stroke-miterlimit="10" stroke-width="4"/>
    <rect x="322.37034" y="248.82375" width="62.31051" height="2.77778" fill="none" stroke="#231f20" stroke-miterlimit="10" stroke-width="4"/>
    <circle cx="337.11343" cy="259.20107" r="4.02576" fill="none" stroke="#231f20" stroke-miterlimit="10"/>
    <circle cx="353.5256" cy="259.20107" r="4.02576" fill="none" stroke="#231f20" stroke-miterlimit="10"/>
    <circle cx="369.93776" cy="259.29597" r="4.02576" fill="none" stroke="#231f20" stroke-miterlimit="10"/>
    <polyline points="387.04999 554.31892 341.13919 480.54597 341.13919 282.43561" fill="none" stroke="#231f20" stroke-miterlimit="10" stroke-width="2"/>
    <circle cx="358.23069" cy="292.39783" r="4.02576" fill="none" stroke="#231f20" stroke-miterlimit="10"/>
    <circle cx="358.23069" cy="307.45178" r="4.02576" fill="none" stroke="#231f20" stroke-miterlimit="10"/>
    <rect x="343.82431" y="284.10153" width="29.59239" height="35.55556" rx="12.22044" ry="12.22044" fill="none" stroke="#231f20" stroke-miterlimit="10"/>
    <polyline points="354.20493 284.10153 354.20493 292.39783 354.20493 306.3858 354.20493 319.65708 341.96836 331.89366" fill="none" stroke="#231f20" stroke-miterlimit="10"/>
    <polyline points="362.25645 292.39783 362.25645 306.3858 362.25645 319.60838" fill="none" stroke="#231f20" stroke-miterlimit="10"/>
    <line x1="362.25645" y1="291.65708" x2="362.25645" y2="284.10153" fill="none" stroke="#231f20" stroke-miterlimit="10"/>
    <circle cx="358.23069" cy="307.45178" r="2.97584" fill="none" stroke="#231f20" stroke-miterlimit="10" stroke-width=".25"/>
    <circle cx="358.23069" cy="292.39783" r="2.97584" fill="none" stroke="#231f20" stroke-miterlimit="10" stroke-width=".25"/>
    <line x1="385.36544" y1="302.47373" x2="341.13919" y2="341.73116" fill="none" stroke="#231f20" stroke-miterlimit="10"/>
    <polyline points="385.45692 314.76934 379.83333 331.50894 365.912 332.24968 341.89597 356.26571" fill="none" stroke="#231f20" stroke-miterlimit="10"/>
    <line x1="384.68085" y1="288.37206" x2="373.4167" y2="303.42602" fill="none" stroke="#231f20" stroke-miterlimit="10"/>
    <line x1="348.12963" y1="335.51753" x2="347.7996" y2="350.36208" fill="none" stroke="#231f20" stroke-miterlimit="10"/>
    <line x1="385.45692" y1="335.51753" x2="341.13919" y2="374.7682" fill="none" stroke="#231f20" stroke-miterlimit="10"/>
    <polyline points="341.13919 390.32375 349.49983 378.10153 357.07407 380.99042 385.62761 352.43688" fill="none" stroke="#231f20" stroke-miterlimit="10"/>
    <line x1="322.37034" y1="267.35251" x2="384.68085" y2="266.99042" fill="none" stroke="#231f20" stroke-miterlimit="10" stroke-width="4"/>
    <path d="M322.64815,378.10153l.55661-97.22116c0,1.3857.07606-2.22404.01685-2.22404l-9.65187-.22147c-.05897,0,0,.05897,0,0l-.10678-11.08235h9.75864" fill="none" stroke="#231f20" stroke-miterlimit="10" stroke-width="4"/>
    <path d="M365.24074,155.87931v51.22004c0,1.6711.66131,3.55628,1.83949,4.74139l5.44537,5.47741c1.19281,1.19983,1.18742,3.05724-.01204,4.25042l-8.43949,8.6163v7.50926" fill="none" stroke="#231f20" stroke-miterlimit="10" stroke-width="4"/>
    <path d="M348.12963,237.69412v-7.50926l-7.88559-8.6163c-1.00195-1.12287-.9607-2.91266.0943-3.98585l5.80054-5.90055c1.27582-1.29782,1.99075-2.76291,1.99075-4.58282v-51.22004" fill="none" stroke="#231f20" stroke-miterlimit="10" stroke-width="4"/>
    <path d="M347.7996,209.10279c8.66825,12.88763,17.73639,0,17.73639,0" fill="none" stroke="#231f20" stroke-miterlimit="10" stroke-width="4"/>
    <path d="M365.24074,155.87931l6.11111-5.33333c-14.27778-17.44444-28.55556,0-28.55556,0l5.33333,5.33333c9.55556-5.11111,17.11111,0,17.11111,0Z" fill="none" stroke="#231f20" stroke-miterlimit="10" stroke-width="4"/>
    <rect x="323.22161" y="278.65634" width="61.96665" height="3.77928" fill="#231f20" stroke="#231f20" stroke-miterlimit="10" stroke-width="4"/>
    <rect x="322.37034" y="248.82375" width="62.31051" height="2.77778" fill="#231f20" stroke="#231f20" stroke-miterlimit="10" stroke-width="4"/>
    <circle cx="337.11343" cy="259.20107" r="4.02576" fill="none" stroke="#231f20" stroke-miterlimit="10"/>
    <circle cx="353.5256" cy="259.20107" r="4.02576" fill="none" stroke="#231f20" stroke-miterlimit="10"/>
    <circle cx="369.93776" cy="259.29597" r="4.02576" fill="none" stroke="#231f20" stroke-miterlimit="10"/>
    <polyline points="387.04999 554.31892 341.13919 480.54597 341.13919 282.43561" fill="none" stroke="#231f20" stroke-miterlimit="10" stroke-width="2"/>
    <circle cx="358.23069" cy="292.39783" r="4.02576" fill="none" stroke="#231f20" stroke-miterlimit="10"/>
    <circle cx="358.23069" cy="307.45178" r="4.02576" fill="none" stroke="#231f20" stroke-miterlimit="10"/>
    <rect x="343.82431" y="284.10153" width="29.59239" height="35.55556" rx="12.22044" ry="12.22044" fill="none" stroke="#231f20" stroke-miterlimit="10"/>
    <polyline points="354.20493 284.10153 354.20493 292.39783 354.20493 306.3858 354.20493 319.65708 341.96836 331.89366" fill="none" stroke="#231f20" stroke-miterlimit="10"/>
    <polyline points="362.25645 292.39783 362.25645 306.3858 362.25645 319.60838" fill="none" stroke="#231f20" stroke-miterlimit="10"/>
    <line x1="362.25645" y1="291.65708" x2="362.25645" y2="284.10153" fill="none" stroke="#231f20" stroke-miterlimit="10"/>
    <circle cx="358.23069" cy="307.45178" r="2.97584" fill="none" stroke="#231f20" stroke-miterlimit="10" stroke-width=".25"/>
    <circle cx="358.23069" cy="292.39783" r="2.97584" fill="none" stroke="#231f20" stroke-miterlimit="10" stroke-width=".25"/>
    <line x1="385.36544" y1="302.47373" x2="341.13919" y2="341.73116" fill="none" stroke="#231f20" stroke-miterlimit="10"/>
    <polyline points="385.45692 314.76934 379.83333 331.50894 365.912 332.24968 341.89597 356.26571" fill="none" stroke="#231f20" stroke-miterlimit="10"/>
    <line x1="384.68085" y1="288.37206" x2="373.4167" y2="303.42602" fill="none" stroke="#231f20" stroke-miterlimit="10"/>
    <line x1="348.12963" y1="335.51753" x2="347.7996" y2="350.36208" fill="none" stroke="#231f20" stroke-miterlimit="10"/>
    <line x1="385.45692" y1="335.51753" x2="341.13919" y2="374.7682" fill="#414142" stroke="#231f20" stroke-miterlimit="10"/>
    <polyline points="341.13919 390.32375 349.49983 378.10153 357.07407 380.99042 385.62761 352.43688" fill="none" stroke="#231f20" stroke-miterlimit="10"/>
  </g>
</svg>