<svg width="1280" height="1280" viewBox="0 0 1280 1280" fill="none" xmlns="http://www.w3.org/2000/svg">
<rect width="1280" height="1280" fill="#1E1E1E"/>
<g clip-path="url(#clip0_0_1)">
<rect width="1280" height="1280" rx="128" fill="white"/>
<path d="M1060.58 426.721L1061.28 459.699H1033.62C1033.62 459.557 1033.5 459.699 1033.59 459.699H846.77L817.638 459.072L817.337 427.463H846.77L1032.12 426.436C1031.94 426.436 1032.12 426.607 1032.12 426.436L1060.58 426.721Z" fill="#818385"/>
<path d="M1061.28 459.699H1049.85L1049.4 437.505L1020.93 437.219L835.582 438.246H817.427L817.337 427.463H846.77L1032.12 426.436L1060.58 426.721L1061.28 459.699Z" fill="#636466"/>
<path d="M1031.81 374.458V374.601H845.051V374.515L845.624 373.716C845.745 373.545 845.413 373.574 845.202 373.716H819.96C817.035 373.716 814.653 371.463 814.653 368.696V349.867C814.653 345.987 817.97 342.849 822.072 342.849H1052.83C1057.12 342.849 1060.58 346.13 1060.58 350.181V371.577C1060.58 371.748 1060.86 374.116 1060.68 374.116L1031.81 374.458Z" fill="#818385"/>
<path d="M1060.68 374.116L1043.76 374.316V362.22C1043.76 358.169 1040.29 354.888 1036.01 354.888H814.653V349.867C814.653 345.987 817.97 342.849 822.072 342.849H1052.83C1057.12 342.849 1060.58 346.13 1060.58 350.181V371.577C1060.58 371.748 1060.86 374.116 1060.68 374.116Z" fill="#636466"/>
<path d="M1035.28 670.178L1039.81 1245.93C1039.81 1246.21 1039.44 1246.33 1039.23 1246.1L900.782 1035.65V778.27L925.993 743.409L948.852 751.653L1034.95 670.178H1035.28Z" fill="#414142"/>
<path d="M925.993 743.409L934.377 746.433L928.858 751.653L921.862 749.114L925.993 743.409Z" fill="#414142"/>
<path d="M1039.81 1245.93C1039.81 1246.21 1039.44 1246.33 1039.23 1246.1L1019.57 1216.23L1015.44 688.635L1034.95 670.178H1035.28L1039.81 1245.93Z" fill="#3B3B3C"/>
<path d="M1015.44 688.635L948.852 751.653L934.377 746.433L1014.96 670.178H1015.29L1015.44 688.635Z" fill="#414142"/>
<path d="M1034.89 621.909L1035.28 670.178H1034.95L948.852 751.653L925.993 743.409L900.782 778.27V733.88L1034.44 621.909H1034.89Z" fill="#414142"/>
<path d="M910.281 754.221L916.554 756.474L900.782 778.27V767.372L910.281 754.221Z" fill="#414142"/>
<path d="M1035.28 670.178H1034.95L948.852 751.653L945.746 750.541L1019.27 680.99H1019.57L1019.21 634.661L1034.44 621.909H1034.89L1035.28 670.178Z" fill="#3B3B3C"/>
<path d="M945.746 750.541L933.14 762.465L916.554 756.474L925.993 743.409L945.746 750.541Z" fill="#414142"/>
<path d="M1034.44 562.742L1034.89 621.909H1034.44L900.782 733.88V681.104H903.074L920.866 664.272L975.511 612.608L1017.49 610.469L1034.44 562.742Z" fill="#414142"/>
<path d="M975.511 612.608L1010.01 610.84L1005.34 623.991L963.358 626.131L900.782 685.326V681.104H903.074L920.866 664.272L975.511 612.608Z" fill="#414142"/>
<path d="M1034.89 621.909H1034.44L1022.74 631.722L1022.47 596.433L1034.44 562.742L1034.89 621.909Z" fill="#3B3B3C"/>
<path d="M1017.49 610.469L1010.01 610.84L1022.32 576.264L1022.47 596.433L1017.49 610.469Z" fill="#414142"/>
<path d="M1034.17 527.653L1034.44 562.742L1017.49 610.469L975.511 612.608L920.866 664.272L921.862 621.966L984.95 568.961L1034.17 527.653Z" fill="#414142"/>
<path d="M1034.44 562.742L1017.49 610.469L1008.44 610.925L1018.09 583.795L1017.82 548.706L968.605 590.014L921.681 629.44L921.862 621.966L984.95 568.961L1034.17 527.653L1034.44 562.742Z" fill="#3B3B3C"/>
<path d="M1033.84 487.428L1034.17 527.653L984.95 568.961L984.709 568.704C992.912 562.314 998.129 552.643 998.129 541.802V530.363L1032.12 487.428H1033.84Z" fill="#414142"/>
<path d="M1034.17 527.653L984.95 568.961L984.709 568.704C985.915 567.763 987.061 566.764 988.087 565.68L1019.75 539.121L1019.45 503.432L1032.12 487.428H1033.84L1034.17 527.653Z" fill="#3B3B3C"/>
<path d="M1033.62 459.699L1033.84 487.428H1032.12L998.129 530.363V510.108C998.129 491.879 983.322 476.902 964.474 475.39V470.483H1033.62V459.699Z" fill="#414142"/>
<path d="M1033.84 487.428H1032.12L998.129 530.363V526.397L1017.91 501.407H1019.63L1019.42 473.678V484.461H986.187C980.367 479.384 972.827 476.074 964.474 475.39V470.483H1033.62V459.699L1033.84 487.428Z" fill="#3B3B3C"/>
<path d="M1031.87 382.532L1032.12 426.436L846.77 427.463H844.207L844.9 382.532H1031.87ZM999.788 404.469C999.788 398.136 994.359 393.001 987.634 393.001C980.909 393.001 975.511 398.136 975.511 404.469C975.511 410.803 980.94 415.966 987.634 415.966C994.329 415.966 999.788 410.831 999.788 404.469ZM950.3 404.213C950.3 397.851 944.841 392.716 938.146 392.716C931.452 392.716 925.993 397.851 925.993 404.213C925.993 410.574 931.452 415.681 938.146 415.681C944.841 415.681 950.3 410.546 950.3 404.213ZM900.782 404.213C900.782 397.851 895.353 392.716 888.659 392.716C881.964 392.716 876.505 397.851 876.505 404.213C876.505 410.574 881.934 415.681 888.659 415.681C895.384 415.681 900.782 410.546 900.782 404.213Z" fill="#414142"/>
<path d="M1031.87 382.532H844.9L844.75 393.201H885.16C886.276 392.887 887.452 392.716 888.659 392.716C889.865 392.716 891.041 392.887 892.127 393.201H934.648C935.764 392.887 936.94 392.716 938.146 392.716C939.353 392.716 940.529 392.887 941.645 393.201H985.403C986.127 393.058 986.88 393.001 987.634 393.001C988.388 393.001 989.142 393.058 989.866 393.201H1021.83L1022.01 426.493L1032.12 426.436L1031.87 382.532Z" fill="#3B3B3C"/>
<path d="M998.129 530.363V541.802C998.129 552.643 992.912 562.314 984.709 568.704C979.13 573.069 972.134 575.922 964.474 576.521V498.897C964.474 498.183 964.413 497.499 964.263 496.814H964.474V475.39C983.322 476.902 998.129 491.879 998.129 510.108V530.363Z" fill="#414142"/>
<path d="M995.445 284.71C999.034 288.133 999.034 293.439 995.415 296.834L969.962 321.425V342.849H921.862V321.425L898.098 296.834C895.082 293.639 895.203 288.532 898.369 285.48L915.86 268.648C918.182 266.423 919.901 263.998 920.866 261.288C947.013 298.061 974.365 261.288 974.365 261.288C975.3 264.227 976.868 267.051 979.04 269.105L995.445 284.71Z" fill="#595A5C"/>
<path d="M995.415 296.834L991.826 300.286L979.04 288.133C976.868 286.079 975.3 283.255 974.365 280.316C974.365 280.316 947.013 317.089 920.866 280.316C919.901 283.026 918.182 285.451 915.86 287.677L902.079 300.942L898.098 296.834C895.082 293.639 895.203 288.532 898.369 285.48L915.86 268.648C918.182 266.423 919.901 263.998 920.866 261.288C947.013 298.061 974.365 261.288 974.365 261.288C975.3 264.227 976.868 267.051 979.04 269.105L995.445 284.71C999.034 288.133 999.034 293.439 995.415 296.834Z" fill="#3B3B3C"/>
<path d="M991.917 94.2293L973.491 109.463C973.491 109.463 950.692 94.8569 921.862 109.463L905.788 94.2293C905.788 94.2293 948.852 44.4768 991.917 94.2293Z" fill="#595A5C"/>
<path d="M991.917 94.2293L973.491 109.463C973.491 109.463 971.772 108.351 968.696 107.067C946.138 85.3001 924.123 89.1228 908.804 97.0821L905.788 94.2293C905.788 94.2293 948.852 44.4768 991.917 94.2293Z" fill="#414042"/>
<path d="M921.862 621.966L900.782 639.653V611.582H903.285L940.197 576.663V576.264C942.007 576.521 943.846 576.663 945.746 576.663H961.277C962.363 576.663 963.418 576.606 964.474 576.521C972.134 575.922 979.13 573.069 984.709 568.704L984.95 568.961L921.862 621.966Z" fill="#414142"/>
<path d="M973.491 255.583C973.491 257.437 973.792 259.405 974.365 261.288C974.365 261.288 947.013 298.061 920.866 261.288C921.53 259.52 921.862 257.637 921.862 255.583V109.463C950.692 94.8569 973.491 109.463 973.491 109.463V255.583Z" fill="#764D29"/>
<path d="M974.365 261.288C974.365 261.288 966.615 271.701 955.427 275.895C955.246 275.324 955.125 274.782 955.004 274.211L925.842 130.745C925.842 130.745 924.395 130.174 921.862 129.518V109.463C950.692 94.8569 973.491 109.463 973.491 109.463V255.583C973.491 257.437 973.792 259.405 974.365 261.288Z" fill="#513314"/>
<path d="M964.474 541.859V576.521C963.418 576.606 962.363 576.663 961.277 576.663H945.746C943.846 576.663 942.007 576.521 940.197 576.264V542.002C940.288 548.278 945.686 553.328 952.35 553.328C959.015 553.328 964.474 548.193 964.474 541.859Z" fill="#414142"/>
<path d="M964.474 538.807V541.859C964.474 535.498 959.045 530.363 952.35 530.363C945.656 530.363 940.197 535.498 940.197 541.859V499.039C940.288 505.344 945.686 510.393 952.35 510.393C959.015 510.393 964.474 505.258 964.474 498.896V538.807Z" fill="#414142"/>
<path d="M964.474 475.39V496.786H964.263C963.237 491.479 958.291 487.428 952.35 487.428C945.625 487.428 940.197 492.563 940.197 498.897V475.646C942.007 475.39 943.846 475.247 945.746 475.247H961.277C962.363 475.247 963.418 475.304 964.474 475.39Z" fill="#414142"/>
<path d="M940.197 475.646C922.465 478.185 908.894 492.649 908.894 510.108V541.802C908.894 559.261 922.465 573.725 940.197 576.264V576.663L903.285 611.581H900.782V470.483H964.474V475.39C963.418 475.304 962.363 475.247 961.277 475.247H945.746C943.846 475.247 942.007 475.39 940.197 475.646Z" fill="#414142"/>
<path d="M964.263 496.814C964.413 497.499 964.474 498.183 964.474 498.897C964.474 505.258 959.045 510.393 952.35 510.393C945.656 510.393 940.288 505.344 940.197 499.039V498.897C940.197 492.563 945.625 487.428 952.35 487.428C958.291 487.428 963.237 491.479 964.263 496.814ZM961.307 498.897C961.307 494.218 957.296 490.424 952.35 490.424C947.405 490.424 943.364 494.218 943.364 498.897C943.364 503.575 947.374 507.398 952.35 507.398C957.326 507.398 961.307 503.604 961.307 498.897Z" fill="#414142"/>
<path d="M952.35 530.363C959.045 530.363 964.474 535.498 964.474 541.86C964.474 548.221 959.045 553.328 952.35 553.328C945.656 553.328 940.288 548.278 940.197 542.002V541.86C940.197 535.498 945.625 530.363 952.35 530.363ZM961.307 541.86C961.307 537.152 957.296 533.358 952.35 533.358C947.405 533.358 943.364 537.152 943.364 541.86C943.364 546.567 947.374 550.332 952.35 550.332C957.326 550.332 961.307 546.538 961.307 541.86Z" fill="#414142"/>
<path d="M940.197 498.897V576.264C922.465 573.725 908.894 559.261 908.894 541.802V510.108C908.894 492.649 922.465 478.185 940.197 475.646V498.897Z" fill="#414142"/>
<path d="M921.862 621.966L920.866 664.272L903.074 681.104H900.782V639.653L921.862 621.966Z" fill="#414142"/>
<path d="M900.782 1035.76L1039.23 1246.21L845.112 1027.6C845.112 1027.6 845.021 1027.49 845.021 1027.4V743.523C845.021 743.523 845.745 732.14 845.745 718.732C845.745 713.226 845.624 707.349 845.262 701.729C845.262 701.672 845.262 701.615 845.262 701.53L846.71 466.147C846.71 467.63 846.74 467.117 846.77 465.89V470.597H900.782V1035.76Z" fill="#E7E8E9"/>
<path d="M1039.23 1246.21L845.112 1027.6C845.112 1027.6 845.021 1027.49 845.021 1027.4V743.523C845.021 743.523 845.745 732.14 845.745 718.732C845.745 713.226 845.624 707.349 845.262 701.729C845.293 701.672 845.262 701.615 845.262 701.53L846.71 467.06C846.71 467.06 846.74 466.575 846.77 465.89V470.597H865.83L864.442 696.452C864.442 696.452 864.442 696.594 864.442 696.651C864.804 702.271 864.925 708.148 864.925 713.654C864.925 727.062 864.201 738.331 864.201 738.445V1022.33C864.201 1022.33 864.231 1022.47 864.292 1022.52L971.5 1143.25L1039.23 1246.21Z" fill="#BDBEC1"/>
<path d="M846.77 459.015V465.091C846.74 466.318 846.71 466.831 846.71 465.348L845.262 700.731C844.056 681.189 840.166 664.986 829.4 678.679C829.4 678.679 821.348 681.218 694.024 861.685C633.74 957.567 577.044 858.433 576.954 858.29C576.924 858.233 554.788 829.277 529.125 793.903C503.461 758.528 474.209 716.707 459.914 690.946C434.311 644.759 436.482 709.118 437.206 723.04C437.296 724.837 437.296 726.606 437.206 728.403C435.457 784.546 446.373 932.149 427.314 972.145C427.284 972.145 427.254 972.23 427.194 972.259C391.578 998.191 244.562 997.192 251.679 955.513V398.45C262.445 342.707 350.805 351.122 350.866 351.151C404.033 351.151 437.658 368.439 460.095 389.007C482.562 409.576 493.841 433.454 502.315 446.662C519.294 473.079 599.27 596.262 599.27 596.262C645.501 655.086 684.856 591.498 685.067 591.184L844.177 374.972V381.847H844.87L844.177 426.778H817.307L817.608 458.387C817.457 458.387 817.608 458.558 817.608 458.387L846.74 459.015H846.77Z" fill="#B68EDA"/>
<path d="M441.609 676.653C435.698 684.812 436.753 714.167 437.206 723.04C437.296 724.837 437.296 726.606 437.236 728.403C435.487 784.546 446.404 932.149 427.344 972.145C427.314 972.145 427.284 972.23 427.224 972.259C391.608 998.191 244.592 997.192 251.709 955.513V954.714C294.14 968.55 376.077 963.758 401.469 945.271C401.53 945.243 401.56 945.186 401.59 945.157C420.649 905.161 409.732 757.558 411.482 701.416C411.542 699.618 411.542 697.85 411.451 696.052C410.728 682.131 408.556 617.772 434.16 663.959C436.331 667.838 438.834 672.118 441.609 676.653Z" fill="#4F3A72"/>
<path d="M573.546 569.275C573.546 569.275 493.569 446.092 476.591 419.675C470.952 410.888 464.076 397.395 453.521 383.302C455.813 385.185 458.014 387.067 460.125 389.007C482.592 409.576 493.871 433.454 502.345 446.662C516.73 469.028 576.23 560.716 594.174 588.331C587.539 584.423 580.603 578.289 573.546 569.275Z" fill="#B68EDA"/>
<path d="M817.397 431.942L802.5 431.628L844.207 374.972V381.847H844.9L844.207 426.778H817.337L817.397 431.942Z" fill="#4F3A72"/>
<path d="M846.77 459.015V465.091C846.77 465.776 846.77 466.261 846.71 466.261L845.262 700.731C844.056 681.189 840.166 664.986 829.4 678.679C829.4 678.679 821.348 681.218 694.024 861.685C643.843 941.506 596.134 886.162 581.508 865.308C603.643 881.284 635.429 886.932 668.27 834.698C795.594 654.231 803.646 651.692 803.646 651.692C814.412 637.998 818.302 654.202 819.508 673.744L820.835 458.444L846.77 459.015Z" fill="#4F3A72"/>
<path d="M821.016 432.027V438.104C820.986 438.788 820.986 439.273 820.956 439.273L820.835 458.444L817.638 458.387L817.397 431.942L821.016 432.027Z" fill="#B68EDA"/>
<path d="M844.177 427.577L1032.09 426.55" stroke="#231F20" stroke-width="4" stroke-miterlimit="10"/>
<path d="M845.021 743.523L846.71 466.175C846.71 470.14 846.951 459.842 846.77 459.842L817.668 459.214M817.668 459.214C817.488 459.214 817.668 459.385 817.668 459.214ZM817.668 459.214L817.337 427.605H846.77" stroke="#231F20" stroke-width="4" stroke-miterlimit="10"/>
<path d="M845.594 373.831H819.961C817.035 373.831 814.653 371.577 814.653 368.81V349.981C814.653 346.102 817.97 342.963 822.072 342.963H1052.83C1057.12 342.963 1060.58 346.244 1060.58 350.295V371.691C1060.58 371.862 1060.86 374.23 1060.68 374.23L1031.81 374.544L1032.12 426.521M1032.12 426.521C1031.94 426.521 1032.12 426.693 1032.12 426.521ZM1032.12 426.521L1060.61 426.835M1060.61 426.835C1060.61 426.664 1060.8 426.835 1060.61 426.835ZM1060.61 426.835L1061.28 459.813M1061.28 459.813C1061.28 459.985 1061.46 459.813 1061.28 459.813ZM1061.28 459.813H1033.65M1033.65 459.813C1033.47 459.813 1033.65 459.642 1033.65 459.813ZM1033.65 459.813L1039.84 1246.01C1039.84 1246.3 1039.47 1246.44 1039.26 1246.21L845.112 1027.6C845.112 1027.6 845.021 1027.49 845.021 1027.4V743.523C845.021 743.18 850.781 652.262 829.37 679.478C829.37 679.478 821.318 682.017 693.994 862.484C633.71 958.366 577.014 859.232 576.954 859.089C576.864 858.975 481.567 752.994 459.914 691.716C431.989 647.498 436.482 709.917 437.206 723.81C437.296 725.607 437.296 727.376 437.266 729.173C435.517 785.316 446.404 932.919 427.344 972.915C427.344 972.972 427.284 973.001 427.254 973.029C391.638 998.961 244.592 997.962 251.739 956.283V399.277C251.739 399.277 251.739 399.249 251.739 399.22C262.475 343.477 350.866 351.921 350.926 351.921C457.26 351.921 485.397 421.016 502.375 447.432C519.354 473.849 599.331 597.032 599.331 597.032C645.562 655.857 684.917 592.268 685.098 591.954L845.624 373.802C845.805 373.574 845.051 373.659 845.081 373.973L844.207 427.548" stroke="#231F20" stroke-width="4" stroke-miterlimit="10"/>
<path d="M973.46 109.549V255.668C973.46 260.432 975.451 265.824 979.009 269.19L995.445 284.824C999.034 288.247 999.034 293.553 995.415 296.948L969.962 321.539V342.963" stroke="#231F20" stroke-width="4" stroke-miterlimit="10"/>
<path d="M921.862 342.963V321.539L898.068 296.948C895.052 293.753 895.172 288.646 898.339 285.565L915.83 268.734C919.69 265.025 921.831 260.86 921.831 255.668V109.549" stroke="#231F20" stroke-width="4" stroke-miterlimit="10"/>
<path d="M920.866 261.402C947.013 298.175 974.365 261.402 974.365 261.402" stroke="#231F20" stroke-width="4" stroke-miterlimit="10"/>
<path d="M973.46 109.549L991.887 94.3434C948.822 44.5909 905.758 94.3434 905.758 94.3434L921.831 109.549C950.662 94.971 973.43 109.549 973.43 109.549H973.46Z" stroke="#231F20" stroke-width="4" stroke-miterlimit="10"/>
<path d="M1033.62 459.813H846.74V470.597H1033.62V459.813Z" stroke="#231F20" stroke-width="4" stroke-miterlimit="10"/>
<path d="M1032.09 374.715H844.177V382.646H1032.09V374.715Z" stroke="#231F20" stroke-width="4" stroke-miterlimit="10"/>
<path d="M888.628 415.823C895.34 415.823 900.782 410.676 900.782 404.327C900.782 397.977 895.34 392.83 888.628 392.83C881.916 392.83 876.475 397.977 876.475 404.327C876.475 410.676 881.916 415.823 888.628 415.823Z" stroke="#231F20" stroke-miterlimit="10"/>
<path d="M938.146 415.823C944.859 415.823 950.3 410.676 950.3 404.327C950.3 397.977 944.859 392.83 938.146 392.83C931.434 392.83 925.993 397.977 925.993 404.327C925.993 410.676 931.434 415.823 938.146 415.823Z" stroke="#231F20" stroke-miterlimit="10"/>
<path d="M987.634 416.08C994.347 416.08 999.788 410.933 999.788 404.584C999.788 398.234 994.347 393.087 987.634 393.087C980.922 393.087 975.481 398.234 975.481 404.584C975.481 410.933 980.922 416.08 987.634 416.08Z" stroke="#231F20" stroke-miterlimit="10"/>
<path d="M1039.23 1246.21L900.782 1035.76V470.597" stroke="#231F20" stroke-width="2" stroke-miterlimit="10"/>
<path d="M952.32 510.507C959.033 510.507 964.474 505.36 964.474 499.011C964.474 492.661 959.033 487.514 952.32 487.514C945.608 487.514 940.167 492.661 940.167 499.011C940.167 505.36 945.608 510.507 952.32 510.507Z" stroke="#231F20" stroke-miterlimit="10"/>
<path d="M952.32 553.47C959.033 553.47 964.474 548.323 964.474 541.974C964.474 535.624 959.033 530.477 952.32 530.477C945.608 530.477 940.167 535.624 940.167 541.974C940.167 548.323 945.608 553.47 952.32 553.47Z" stroke="#231F20" stroke-miterlimit="10"/>
<path d="M961.247 475.361H945.716C925.363 475.361 908.864 490.969 908.864 510.222V541.945C908.864 561.198 925.363 576.806 945.716 576.806H961.247C981.6 576.806 998.099 561.198 998.099 541.945V510.222C998.099 490.969 981.6 475.361 961.247 475.361Z" stroke="#231F20" stroke-miterlimit="10"/>
<path d="M940.167 475.361V499.011V538.921V576.778L903.285 611.696" stroke="#231F20" stroke-miterlimit="10"/>
<path d="M964.474 499.011V538.921V576.635" stroke="#231F20" stroke-miterlimit="10"/>
<path d="M964.474 496.9V475.361" stroke="#231F20" stroke-miterlimit="10"/>
<path d="M952.32 550.475C957.284 550.475 961.307 546.669 961.307 541.974C961.307 537.278 957.284 533.472 952.32 533.472C947.357 533.472 943.333 537.278 943.333 541.974C943.333 546.669 947.357 550.475 952.32 550.475Z" stroke="#231F20" stroke-width="0.25" stroke-miterlimit="10"/>
<path d="M952.32 507.512C957.284 507.512 961.307 503.706 961.307 499.011C961.307 494.316 957.284 490.509 952.32 490.509C947.357 490.509 943.333 494.316 943.333 499.011C943.333 503.706 947.357 507.512 952.32 507.512Z" stroke="#231F20" stroke-width="0.25" stroke-miterlimit="10"/>
<path d="M1034.17 527.767L900.782 639.767" stroke="#231F20" stroke-miterlimit="10"/>
<path d="M1034.44 562.827L1017.46 610.583L975.481 612.694L903.074 681.218" stroke="#231F20" stroke-miterlimit="10"/>
<path d="M1032.09 487.542L998.129 530.477" stroke="#231F20" stroke-miterlimit="10"/>
<path d="M921.862 622.023L920.866 664.386" stroke="#231F20" stroke-miterlimit="10"/>
<path d="M1034.44 622.023L900.782 733.994" stroke="#231F20" stroke-miterlimit="10"/>
<path d="M900.782 778.384L925.993 743.523L948.822 751.767L1034.95 670.292" stroke="#231F20" stroke-miterlimit="10"/>
<path d="M844.177 427.577L1032.09 426.55" stroke="#231F20" stroke-width="4" stroke-miterlimit="10"/>
<path d="M845.021 743.523L846.71 466.175C846.71 470.14 846.951 459.842 846.77 459.842L817.668 459.214M817.668 459.214C817.488 459.214 817.668 459.385 817.668 459.214ZM817.668 459.214L817.337 427.605H846.77" stroke="#231F20" stroke-width="4" stroke-miterlimit="10"/>
<path d="M973.46 109.549V255.668C973.46 260.432 975.451 265.824 979.009 269.19L995.445 284.824C999.034 288.247 999.034 293.553 995.415 296.948L969.962 321.539V342.963" stroke="#231F20" stroke-width="4" stroke-miterlimit="10"/>
<path d="M921.862 342.963V321.539L898.068 296.948C895.052 293.753 895.172 288.646 898.339 285.565L915.83 268.734C919.69 265.025 921.831 260.86 921.831 255.668V109.549" stroke="#231F20" stroke-width="4" stroke-miterlimit="10"/>
<path d="M920.866 261.402C947.013 298.175 974.365 261.402 974.365 261.402" stroke="#231F20" stroke-width="4" stroke-miterlimit="10"/>
<path d="M973.46 109.549L991.887 94.3434C948.822 44.5909 905.758 94.3434 905.758 94.3434L921.831 109.549C950.662 94.971 973.43 109.549 973.43 109.549H973.46Z" stroke="#231F20" stroke-width="4" stroke-miterlimit="10"/>
<path d="M1033.62 459.813H846.74V470.597H1033.62V459.813Z" fill="#231F20" stroke="#231F20" stroke-width="4" stroke-miterlimit="10"/>
<path d="M1032.09 374.715H844.177V382.646H1032.09V374.715Z" fill="#231F20" stroke="#231F20" stroke-width="4" stroke-miterlimit="10"/>
<path d="M888.628 415.823C895.34 415.823 900.782 410.676 900.782 404.327C900.782 397.977 895.34 392.83 888.628 392.83C881.916 392.83 876.475 397.977 876.475 404.327C876.475 410.676 881.916 415.823 888.628 415.823Z" stroke="#231F20" stroke-miterlimit="10"/>
<path d="M938.146 415.823C944.859 415.823 950.3 410.676 950.3 404.327C950.3 397.977 944.859 392.83 938.146 392.83C931.434 392.83 925.993 397.977 925.993 404.327C925.993 410.676 931.434 415.823 938.146 415.823Z" stroke="#231F20" stroke-miterlimit="10"/>
<path d="M987.634 416.08C994.347 416.08 999.788 410.933 999.788 404.584C999.788 398.234 994.347 393.087 987.634 393.087C980.922 393.087 975.481 398.234 975.481 404.584C975.481 410.933 980.922 416.08 987.634 416.08Z" stroke="#231F20" stroke-miterlimit="10"/>
<path d="M1039.23 1246.21L900.782 1035.76V470.597" stroke="#231F20" stroke-width="2" stroke-miterlimit="10"/>
<path d="M952.32 510.507C959.033 510.507 964.474 505.36 964.474 499.011C964.474 492.661 959.033 487.514 952.32 487.514C945.608 487.514 940.167 492.661 940.167 499.011C940.167 505.36 945.608 510.507 952.32 510.507Z" stroke="#231F20" stroke-miterlimit="10"/>
<path d="M952.32 553.47C959.033 553.47 964.474 548.323 964.474 541.974C964.474 535.624 959.033 530.477 952.32 530.477C945.608 530.477 940.167 535.624 940.167 541.974C940.167 548.323 945.608 553.47 952.32 553.47Z" stroke="#231F20" stroke-miterlimit="10"/>
<path d="M961.247 475.361H945.716C925.363 475.361 908.864 490.969 908.864 510.222V541.945C908.864 561.198 925.363 576.806 945.716 576.806H961.247C981.6 576.806 998.099 561.198 998.099 541.945V510.222C998.099 490.969 981.6 475.361 961.247 475.361Z" stroke="#231F20" stroke-miterlimit="10"/>
<path d="M940.167 475.361V499.011V538.921V576.778L903.285 611.696" stroke="#231F20" stroke-miterlimit="10"/>
<path d="M964.474 499.011V538.921V576.635" stroke="#231F20" stroke-miterlimit="10"/>
<path d="M964.474 496.9V475.361" stroke="#231F20" stroke-miterlimit="10"/>
<path d="M952.32 550.475C957.284 550.475 961.307 546.669 961.307 541.974C961.307 537.278 957.284 533.472 952.32 533.472C947.357 533.472 943.333 537.278 943.333 541.974C943.333 546.669 947.357 550.475 952.32 550.475Z" stroke="#231F20" stroke-width="0.25" stroke-miterlimit="10"/>
<path d="M952.32 507.512C957.284 507.512 961.307 503.706 961.307 499.011C961.307 494.316 957.284 490.509 952.32 490.509C947.357 490.509 943.333 494.316 943.333 499.011C943.333 503.706 947.357 507.512 952.32 507.512Z" stroke="#231F20" stroke-width="0.25" stroke-miterlimit="10"/>
<path d="M1034.17 527.767L900.782 639.767" stroke="#231F20" stroke-miterlimit="10"/>
<path d="M1034.44 562.827L1017.46 610.583L975.481 612.694L903.074 681.218" stroke="#231F20" stroke-miterlimit="10"/>
<path d="M1032.09 487.542L998.129 530.477" stroke="#231F20" stroke-miterlimit="10"/>
<path d="M921.862 622.023L920.866 664.386" stroke="#231F20" stroke-miterlimit="10"/>
<path d="M1034.44 622.023L900.782 733.994" stroke="#231F20" stroke-miterlimit="10"/>
<path d="M900.782 778.384L925.993 743.523L948.822 751.767L1034.95 670.292" stroke="#231F20" stroke-miterlimit="10"/>
</g>
<defs>
<clipPath id="clip0_0_1">
<rect width="1280" height="1280" rx="128" fill="white"/>
</clipPath>
</defs>
</svg>
